<svg id="Layer_1" data-name="Layer 1" xmlns="http://www.w3.org/2000/svg" viewBox="0 0 250 100"><defs><style>.cls-1{fill:#252b58;}</style></defs><polygon class="cls-1" points="47.49 36.19 43.45 36.19 41.09 40.41 44.47 40.41 47.49 36.19"/><path class="cls-1" d="M18.07,42.19,9.45,63.4h3.84l2.07-5.08h9.38l2.07,5.08h3.84L22,42.19ZM16.92,54.72,20,47l3.14,7.76Z"/><path class="cls-1" d="M72.25,48.62a6.48,6.48,0,0,0-3.6-5.76c-1.14-.57-1.68-.66-4.32-.66H55.62V63.4h3.59V55H64.9l3.66,8.39h4l-4-9.09a6.06,6.06,0,0,0,3.69-5.69m-5,2.32a4.38,4.38,0,0,1-2.45.48H59.21V45.79H64.9a5.12,5.12,0,0,1,2,.25,3,3,0,0,1,1.68,2.58,2.78,2.78,0,0,1-1.3,2.32"/><polygon class="cls-1" points="38.78 53.7 44.98 53.7 44.98 50.11 38.78 50.11 38.78 45.79 50.32 45.79 50.32 42.19 35.18 42.19 35.18 63.4 50.66 63.4 50.66 59.81 38.78 59.81 38.78 53.7"/><path class="cls-1" d="M86.06,41.78a8.48,8.48,0,0,0-6.29,2.7c-1.72,1.85-2.64,4.74-2.64,8.36s.89,6.33,2.54,8.21a8.69,8.69,0,0,0,6.27,2.76,8.37,8.37,0,0,0,6.19-2.76c1.69-1.88,2.58-4.74,2.58-8.39a12.39,12.39,0,0,0-2.26-7.73,8.47,8.47,0,0,0-6.39-3.15m-.12,18.31c-3.15,0-5.09-2.76-5.09-7.25,0-4.64,1.91-7.34,5.18-7.34,3,0,5,2.83,5,7.28s-1.91,7.31-5,7.31"/><path class="cls-1" d="M188.37,42.19,179.76,63.4h3.85l2.06-5.08h9.38l2.07,5.08H201l-8.64-21.21Zm-1.14,12.53L190.35,47l3.14,7.76Z"/><polygon class="cls-1" points="209.09 42.19 205.49 42.19 205.49 63.4 220.97 63.4 220.97 59.81 209.09 59.81 209.09 42.19"/><polygon class="cls-1" points="228.66 59.81 228.66 53.7 234.86 53.7 234.86 50.11 228.66 50.11 228.66 45.79 240.2 45.79 240.2 42.19 225.07 42.19 225.07 63.4 240.55 63.4 240.55 59.81 228.66 59.81"/><path class="cls-1" d="M130.63,41.78a8.49,8.49,0,0,0-6.3,2.7c-1.72,1.85-2.64,4.74-2.64,8.36s.89,6.33,2.55,8.21a8.67,8.67,0,0,0,6.26,2.76,8.4,8.4,0,0,0,6.2-2.76c1.68-1.88,2.57-4.74,2.57-8.39A12.38,12.38,0,0,0,137,44.93a8.48,8.48,0,0,0-6.39-3.15m-.13,18.31c-3.15,0-5.09-2.76-5.09-7.25,0-4.64,1.91-7.34,5.18-7.34,3.06,0,5,2.83,5,7.28s-1.91,7.31-5.06,7.31"/><path class="cls-1" d="M113.22,42.67c-1.18-.48-1.24-.48-4.48-.48h-8.3V63.4H104V55h5.25c2.48,0,2.76,0,3.59-.28a6.18,6.18,0,0,0,4.52-6.08,6.3,6.3,0,0,0-4.17-6m-1,8.36a3.47,3.47,0,0,1-2,.41H104V45.79h5.88c1.44,0,1.65,0,2.26.38a2.86,2.86,0,0,1,1.49,2.48A2.75,2.75,0,0,1,112.27,51"/><path class="cls-1" d="M153,50.84a26.54,26.54,0,0,1-3.94-1.24,1.69,1.69,0,0,1-1.15-1.71c0-1.5,1.4-2.42,3.66-2.42a7.25,7.25,0,0,1,5,2L159.17,45a10,10,0,0,0-7.41-3.18c-4.45,0-7.47,2.48-7.47,6.2A4.93,4.93,0,0,0,147,52.62a25.88,25.88,0,0,0,5.09,1.78,20.65,20.65,0,0,1,3.59,1.21,1.54,1.54,0,0,1,.92,1.47c0,1.74-2,3-4.77,3a8.09,8.09,0,0,1-3-.6,7.6,7.6,0,0,1-2.39-1.81l-.25-.26-2.83,2.26a10.21,10.21,0,0,0,8.36,4.13c4.9,0,8.62-2.86,8.62-6.61a5.35,5.35,0,0,0-1.47-3.75c-1-1-2.73-1.75-5.88-2.61"/><polygon class="cls-1" points="163.74 45.79 169.69 45.79 169.69 63.4 173.28 63.4 173.28 45.79 179.22 45.79 179.22 42.19 163.74 42.19 163.74 45.79"/></svg>