<svg id="Layer_1" data-name="Layer 1" xmlns="http://www.w3.org/2000/svg" viewBox="0 0 250 100"><defs><style>.cls-1{fill:#010101;}</style></defs><path class="cls-1" d="M100,57.41h22.14v5.81H93.53V36.91H100Zm43.29.08c6.17,0,10.52-3.23,10.51-7.45s-4.35-7.45-10.52-7.45h-9.95v14.9h10M155,40.18c3.45,2.58,5.39,6.08,5.39,9.86A12.31,12.31,0,0,1,155,59.89c-3.19,2.39-7.65,3.33-12.08,3.33H126.7V36.86H143c4.42,0,8.85,1,12,3.32M69.58,45.79l-6,8.05H75.55Zm.14-9.46L90.15,63.22H82.36l-3-4H59.79l-3,4H49.33ZM182.89,58c6.23,0,11.1-3.77,11.11-8s-4.87-8-11.1-8h-1.23c-6.23,0-11.1,3.77-11.09,8s4.87,8,11.1,8h1.21m12.2-18c3.47,2.6,5.58,6.13,5.58,9.94s-2.11,7.35-5.59,10a20.86,20.86,0,0,1-12.19,3.73h-1.2A20.9,20.9,0,0,1,169.49,60c-3.47-2.6-5.59-6.13-5.59-10s2.11-7.34,5.58-9.94a20.78,20.78,0,0,1,12.19-3.74h1.23a20.78,20.78,0,0,1,12.19,3.74"/></svg>