<svg id="Layer_1" data-name="Layer 1" xmlns="http://www.w3.org/2000/svg" viewBox="0 0 250 100"><defs><style>.cls-1{fill:#010101;}</style></defs><path class="cls-1" d="M69.37,71.22l-2.3-6.87-.58-2.29-3.15,9.16ZM57.83,78.08l1.91-.28,6.53-17.88,2.52-.86,6.7,18.74,1.93.28,0,.75-4.12-.06-3.8.06,0-.75,2.21-.31L69.7,72.16H63l-2,5.61,2.3.31,0,.75-2.82-.06-2.58.06Z"/><path class="cls-1" d="M84.43,66.71a1.94,1.94,0,0,0-1.08-.28c-1.66,0-3.16,1.6-3.16,4.84s1.78,5.54,4.46,5.54a5.44,5.44,0,0,0,3.12-1.11l.34.69a15.69,15.69,0,0,1-4.68,2.83c-3.65,0-6.34-2.44-6.34-6.51,0-4.37,3.21-6.61,6.78-7.42a7,7,0,0,1,4,1.44v2.94H85.29Z"/><path class="cls-1" d="M96.69,66.71a1.91,1.91,0,0,0-1.08-.28c-1.66,0-3.16,1.6-3.16,4.84s1.78,5.54,4.46,5.54A5.49,5.49,0,0,0,100,75.7l.33.69a15.44,15.44,0,0,1-4.68,2.83c-3.65,0-6.34-2.44-6.34-6.51,0-4.37,3.21-6.61,6.78-7.42a7,7,0,0,1,4,1.44v2.94H97.55Z"/><path class="cls-1" d="M109.56,70.63v-.3c0-2.35-.45-3.87-2.32-3.87-1.64,0-2.55,1.6-2.66,4.12v.19Zm-5,.92c.12,3.26,1.91,5.2,4.6,5.2a6.74,6.74,0,0,0,3.41-1.11l.35.7a15.62,15.62,0,0,1-5,2.88,6.23,6.23,0,0,1-6.48-6.51c0-4,2.49-6.51,6.43-7.42,3.34,0,5,2.11,5,5.15v1.11Z"/><path class="cls-1" d="M121.68,67.18a3,3,0,0,0-2.21-.86c-1.14,0-1.94.63-1.94,1.63s.66,1.47,2,2.24l2.3,1.33c1.69.94,2.4,1.91,2.38,3.46,0,2.24-1.75,3.49-5.09,4.24a10.35,10.35,0,0,1-4.37-1.14l-.28-3.68h1.05l1.22,2.66a3.73,3.73,0,0,0,2.51,1.11,1.88,1.88,0,0,0,2.13-1.83c0-1.14-.57-1.58-2-2.44l-2.3-1.33c-1.22-.72-2.32-1.63-2.32-3.29,0-1.94,1.54-3.16,4.89-4a8.14,8.14,0,0,1,4.13,1.06v3.4h-1Z"/><path class="cls-1" d="M132.59,67.18a3.05,3.05,0,0,0-2.22-.86c-1.13,0-1.93.63-1.93,1.63s.66,1.47,2,2.24l2.29,1.33c1.69.94,2.41,1.91,2.38,3.46,0,2.24-1.74,3.49-5.09,4.24a10.39,10.39,0,0,1-4.37-1.14l-.28-3.68h1l1.22,2.66a3.75,3.75,0,0,0,2.52,1.11,1.88,1.88,0,0,0,2.13-1.83c0-1.14-.58-1.58-2-2.44L128,72.57c-1.22-.72-2.32-1.63-2.32-3.29,0-1.94,1.55-3.16,4.9-4a8.06,8.06,0,0,1,4.12,1.06v3.4h-.94Z"/><path class="cls-1" d="M143.38,78.13c1.83,0,2.82-1.93,2.82-5.25,0-4.18-1.52-6.48-3.48-6.48s-2.86,1.91-2.86,5.26c0,3.93,1.5,6.47,3.52,6.47m6.26-6.2c0,4.38-2.91,6.45-7,7.28-3.55,0-6.12-2.76-6.12-6.61,0-4.4,2.9-6.42,7-7.31,3.6,0,6.18,2.77,6.18,6.64"/><path class="cls-1" d="M155.42,69.75l2.82-4.32h2.17v3.3h-2.86a7,7,0,0,0-1.6,1.49l-.42.55v7l2.69.25-.09.81L154,78.77l-3.24.06-.05-.75,1.69-.27V67.07l-1.75.21-.08-.74,3.93-.94.8-.06Z"/><path class="cls-1" d="M163.42,59.59l2.22-.17.8.17.19,1.64-.3,1.43-2.22.17-.8-.17L163.12,61Zm1.41,19.18-3.23.06-.06-.75,1.66-.28V67l-1.72.25-.08-.75,4-.94.94-.06V77.8l1.77.28-.05.75Z"/><path class="cls-1" d="M176.9,70.63v-.3c0-2.35-.44-3.87-2.32-3.87-1.64,0-2.55,1.6-2.66,4.12v.19Zm-5,.92c.12,3.26,1.91,5.2,4.6,5.2A6.74,6.74,0,0,0,180,75.64l.35.7a15.62,15.62,0,0,1-5,2.88,6.23,6.23,0,0,1-6.48-6.51c0-4,2.49-6.51,6.43-7.42,3.35,0,5,2.11,5,5.15v1.11Z"/><path class="cls-1" d="M189,67.18a3.05,3.05,0,0,0-2.22-.86c-1.13,0-1.93.63-1.93,1.63s.66,1.47,2,2.24l2.29,1.33c1.69.94,2.41,1.91,2.38,3.46,0,2.24-1.74,3.49-5.09,4.24a10.43,10.43,0,0,1-4.38-1.14l-.27-3.68h1l1.22,2.66a3.75,3.75,0,0,0,2.52,1.11,1.89,1.89,0,0,0,2.13-1.83c0-1.14-.59-1.58-2-2.44l-2.3-1.33c-1.22-.72-2.33-1.63-2.33-3.29,0-1.94,1.56-3.16,4.9-4a8.08,8.08,0,0,1,4.13,1.06v3.4h-.94Z"/><polygon class="cls-1" points="97.55 21.43 90.47 21.43 90.47 50.3 121.85 50.3 121.85 43.93 97.55 43.93 97.55 21.43"/><path class="cls-1" d="M157.89,25c-3.48-2.61-8.35-3.63-13.19-3.64H126.86V50.29h17.8c4.86,0,9.75-1,13.25-3.65,3.77-2.82,5.89-6.67,5.89-10.81s-2.13-8-5.91-10.82M145,44H134.12V27.66H145c6.77,0,11.54,3.54,11.55,8.18S151.82,44,145,44"/><path class="cls-1" d="M42,50.3h8.16l3.31-4.4h21.5l3.28,4.4h8.55L64.35,20.79ZM64.19,31.17,70.75,40H57.64Z"/><path class="cls-1" d="M201.91,24.88a22.84,22.84,0,0,0-13.38-4.1h-1.34a22.84,22.84,0,0,0-13.38,4.1c-3.8,2.85-6.13,6.72-6.13,10.92s2.33,8.05,6.14,10.91A22.88,22.88,0,0,0,187.2,50.8h1.32a22.78,22.78,0,0,0,13.37-4.09C205.71,43.85,208,40,208,35.8s-2.31-8.07-6.12-10.92M188.52,44.61H187.2c-6.84,0-12.18-4.14-12.19-8.81S180.35,27,187.19,27h1.34c6.84,0,12.18,4.14,12.18,8.82s-5.35,8.81-12.19,8.81"/></svg>