<?xml version="1.0" encoding="utf-8"?>
<!-- Generator: Adobe Illustrator 26.4.1, SVG Export Plug-In . SVG Version: 6.00 Build 0)  -->
<svg version="1.1" id="Layer_1" xmlns="http://www.w3.org/2000/svg" xmlns:xlink="http://www.w3.org/1999/xlink" x="0px" y="0px"
	 viewBox="0 0 250 100" style="enable-background:new 0 0 250 100;" xml:space="preserve">
<path d="M49.6,55.6l17.9-18.8v18.8H49.6z M70.5,29.3c-0.9-0.3-2,0-2.7,0.7L36,63.4l-0.2,0.1l-5.4,5.6c-0.4,0.4-0.4,1,0,1.4
	c0.2,0.2,0.4,0.3,0.6,0.3h2.6c0.7,0.1,1.5-0.2,2-0.7c0.3-0.3,0.6-0.6,0.9-0.9l8.8-9.2h22.1v8.5c0,0,0,0,0,0.1v1.1
	c0,0.6,0.5,1.1,1.1,1.1c0,0,0,0,0,0h2.2c0.6,0,1.1-0.5,1.1-1.1c0,0,0,0,0,0v-0.9c0-0.1,0-0.1,0-0.2V31.3
	C71.9,30.4,71.3,29.6,70.5,29.3"/>
<path d="M125.6,62.1c-2.2,2.9-5.7,4.2-10.6,4.2c-1.6,0-1.6,0-3.2,0h-2.9V33.7h6.1c11.6,0,14,8.3,14,15.2
	C128.9,54.8,127.8,59.2,125.6,62.1 M114.9,29.2h-9.5c-0.6,0-1.1,0.5-1.1,1.1v38.3c0,0.1,0,0.1,0,0.2v0.9c0,0.6,0.5,1.1,1.1,1.1h1.1
	c1.8,0,3.5,0,5.2,0s1.7,0,3.2,0c6.2,0,11-2,14.1-5.9c2.9-3.7,4.3-8.9,4.3-16c0-6.2-1.6-11-4.8-14.4S120.6,29.3,114.9,29.2"/>
<path d="M81.5,36v-2.8c1.6,0,4.1-0.1,6.6-0.1c3.2,0,7.8,1.7,7.8,7.4c0,8.3-7.1,8.7-7.1,8.7s-5.8,0-7.3-0.1L81.5,36z M98.9,65.8
	L93.8,52c1.2-0.5,2.2-1.3,3.1-2.2c2.2-2.1,2.8-5.7,2.8-9.2s-0.6-5.6-2.2-7.8c-2-2.7-5.5-3.7-9.7-3.7c-3.2,0-7.1-0.1-7.1,0s0,0-0.1,0
	h-0.2h-2.2c-0.6,0-1.1,0.5-1.1,1.1c0,0,0,0,0,0v0.9c0,0.1,0,0.2,0,0.3v37.1c0,0,0,0.1,0,0.2v1.1c0,0.6,0.5,1.1,1.1,1.1c0,0,0,0,0,0
	h2.2c0.6,0,1.1-0.5,1.1-1.1c0,0,0,0,0,0v-1.2c0,0,0-0.1,0-0.1V53.3l7.9-0.1l0,0L94,65.5c0,0.1,0,0.2,0.1,0.2c0,0,0.8,2.1,1.2,3.4
	s0.6,1.7,1.2,1.7s2.2,0,3,0c1.1,0,0.9-0.9,0.5-2C99.7,68.1,99.2,66.9,98.9,65.8"/>
<path d="M158.1,29.2h-19.2c-0.6,0-1.1,0.5-1.1,1.1v0.9c0,0.1,0,0.2,0,0.3v37.2c0,0,0,0.1,0,0.1v1c0,0.6,0.5,1.1,1.1,1.1c0,0,0,0,0,0
	h19.2c0.6,0,1.1-0.5,1.1-1.1c0,0,0,0,0,0v-2.2c0-0.6-0.5-1.1-1.1-1.1c0,0,0,0,0,0h-15.9V51.7h15.9c0.6,0,1.1-0.5,1.1-1.1
	c0,0,0,0,0,0v-2.2c0-0.6-0.5-1.1-1.1-1.1c0,0,0,0,0,0h-15.9V33.7h14.6c0.1,0,0.2,0,0.4,0h0.9c0.6,0,1.1-0.5,1.1-1.1v0v-2.3
	C159.2,29.7,158.7,29.2,158.1,29.2"/>
<path d="M217.5,33.7c0.1,0,0.2,0,0.3,0h0.9c0.6,0,1.1-0.5,1.1-1.1v0v-2.3c0-0.6-0.5-1.1-1.1-1.1h-19.2c-0.6,0-1.1,0.5-1.1,1.1v0.9
	c0,0.1,0,0.2,0,0.3v37.2c0,0,0,0.1,0,0.1v1c0,0.6,0.5,1.1,1.1,1.1c0,0,0,0,0,0h19.2c0.6,0,1.1-0.5,1.1-1.1c0,0,0,0,0,0v-2.2
	c0-0.6-0.5-1.1-1.1-1.1h-15.9V51.7h15.9c0.6,0,1.1-0.5,1.1-1.1v-2.2c0-0.6-0.5-1.1-1.1-1.1c0,0,0,0,0,0h-15.9V33.7H217.5z"/>
<path d="M194.1,30.3c0-0.6-0.5-1.1-1.1-1.1h-2.2c-0.6,0-1.1,0.5-1.1,1.1v5.8c0,0.1,0,0.1,0,0.2v25.2l-22-31.3
	c-0.7-1-2.1-1.2-3.1-0.5c-0.5,0.4-0.9,1-0.9,1.7v38.3c0,0.6,0.5,1.1,1.1,1.1c0,0,0,0,0,0h2.2c0.6,0,1.1-0.5,1.1-1.1c0,0,0,0,0,0
	v-0.9c0-0.1,0-0.2,0-0.2V38.5l22,31.3c0.4,0.6,1.1,1,1.8,1c1.2,0,2.2-1,2.2-2.2L194.1,30.3L194.1,30.3z"/>
</svg>
