<svg id="Layer_1" data-name="Layer 1" xmlns="http://www.w3.org/2000/svg" viewBox="0 0 250 100"><defs><style>.cls-1{fill:#010101;}</style></defs><path class="cls-1" d="M99.36,51.34a26.31,26.31,0,0,1-2.27-16.42l-.77-1.33-9.24-16-9.24,16L61.16,62.48h48.59A26.41,26.41,0,0,1,99.36,51.34m-19.43.31,7.15-12.39,7,12.08.17.31Z"/><path class="cls-1" d="M123,28.12a11.63,11.63,0,0,1,9.86,5.47c.18.29.34.59.5.89l.4-.89,4.64-10.2a22.46,22.46,0,0,0-37,10.2c-.07.24-.13.49-.19.73a22.45,22.45,0,0,0-.65,5.41c0,.4,0,.8,0,1.19a22.52,22.52,0,0,0,16.21,20.39,22.72,22.72,0,0,0,6.21.87,22.38,22.38,0,0,0,15.35-6.06l-2.18-4.78-2.85-6.28a11.61,11.61,0,0,1-21.93-5.33A11.62,11.62,0,0,1,123,28.12"/><path class="cls-1" d="M182.44,33.59a22.46,22.46,0,1,0-8.38,24.28l.25-.19c0-.16,0-.34,0-.51a9.14,9.14,0,0,1,7.32-9l.12-.28a22.36,22.36,0,0,0,1.54-8.21,22.64,22.64,0,0,0-.84-6.14m-21.6,17.75a11.63,11.63,0,0,1-11.57-10.53h0c0-.35-.05-.71-.05-1.07s0-.72.05-1.07h0a11.61,11.61,0,1,1,11.57,12.68"/><path class="cls-1" d="M183.42,51.75a5.42,5.42,0,1,0,5.42,5.42,5.42,5.42,0,0,0-5.42-5.42"/><path class="cls-1" d="M85.2,82.45V71.94H82.57V73.1A5,5,0,0,0,81,72a4.42,4.42,0,0,0-1.78-.35,4.58,4.58,0,0,0-3.49,1.55,5.65,5.65,0,0,0-1.44,4,5.53,5.53,0,0,0,1.49,3.93,4.68,4.68,0,0,0,3.52,1.58A4.26,4.26,0,0,0,81,82.4a5.54,5.54,0,0,0,1.56-1.06v1.11Zm-3.34-3a2.74,2.74,0,0,1-2.06.86,2.69,2.69,0,0,1-2-.87A3.15,3.15,0,0,1,77,77.18,3.1,3.1,0,0,1,77.76,75a2.63,2.63,0,0,1,2-.87,2.74,2.74,0,0,1,2.07.85,3.06,3.06,0,0,1,.81,2.23,3.14,3.14,0,0,1-.81,2.26"/><path class="cls-1" d="M99.57,71.67A4.21,4.21,0,0,0,98,72a6.25,6.25,0,0,0-1.56,1V67.88H93.81V82.45h2.62V78.23a11.69,11.69,0,0,1,.12-2.17,2.77,2.77,0,0,1,.79-1.44,1.94,1.94,0,0,1,1.38-.53,1.67,1.67,0,0,1,1,.31,1.82,1.82,0,0,1,.6,1,12.86,12.86,0,0,1,.16,2.48v4.6h2.6v-7a3.79,3.79,0,0,0-.91-2.75,3.59,3.59,0,0,0-2.64-1.08"/><rect class="cls-1" x="105.39" y="67.88" width="2.63" height="14.57"/><path class="cls-1" d="M115.37,71.67a5.16,5.16,0,0,0-3.88,1.58,5.47,5.47,0,0,0-1.56,4,5.27,5.27,0,0,0,1.56,3.9,5.42,5.42,0,0,0,4,1.56,6.19,6.19,0,0,0,2.75-.57,5.19,5.19,0,0,0,2-1.73L118,79.36a3.52,3.52,0,0,1-2.55,1,3,3,0,0,1-2-.66,2.83,2.83,0,0,1-1-1.77H121v-.51a5.76,5.76,0,0,0-1.55-4.21,5.39,5.39,0,0,0-4-1.58m-2.78,4.21a3.4,3.4,0,0,1,1-1.36,3.15,3.15,0,0,1,1.94-.63,3.07,3.07,0,0,1,1.79.56,2.65,2.65,0,0,1,1,1.43Z"/><path class="cls-1" d="M134,71.67a5.21,5.21,0,0,0-3.89,1.58,5.55,5.55,0,0,0-1.55,4,5.34,5.34,0,0,0,1.55,3.9,5.46,5.46,0,0,0,4,1.56,6.13,6.13,0,0,0,2.75-.57,5.07,5.07,0,0,0,2-1.73l-2.23-1.06a3.51,3.51,0,0,1-2.54,1,3,3,0,0,1-2-.66,2.93,2.93,0,0,1-1-1.77h8.48v-.51A5.76,5.76,0,0,0,138,73.25a5.37,5.37,0,0,0-4-1.58m-2.77,4.21a3.3,3.3,0,0,1,1-1.36,3.13,3.13,0,0,1,1.94-.63,3.07,3.07,0,0,1,1.79.56,2.65,2.65,0,0,1,1,1.43Z"/><path class="cls-1" d="M145.5,76.07l-1-.48a3.23,3.23,0,0,1-.79-.49.58.58,0,0,1,.09-.86,1.19,1.19,0,0,1,.7-.19,2.76,2.76,0,0,1,1.81,1L148,73.41a4.11,4.11,0,0,0-1.53-1.29,4.28,4.28,0,0,0-1.93-.45,3.48,3.48,0,0,0-2.46.88,2.79,2.79,0,0,0-1,2.13c0,1.29.85,2.37,2.54,3.21l.9.46c.77.38,1.16.78,1.16,1.19a.72.72,0,0,1-.33.57,1.26,1.26,0,0,1-.83.25,2.46,2.46,0,0,1-1.12-.33,3.76,3.76,0,0,1-1.08-.87l-1.63,1.77a4.39,4.39,0,0,0,3.68,1.79,3.94,3.94,0,0,0,2.75-.94,3,3,0,0,0,1-2.33,3.09,3.09,0,0,0-.56-1.84,5.85,5.85,0,0,0-2.11-1.54"/><path class="cls-1" d="M155.59,74.11a3.69,3.69,0,0,1,1.43.26,4.09,4.09,0,0,1,1.23.9l2.19-1.21a5.41,5.41,0,0,0-2-1.76,6,6,0,0,0-2.82-.63,6.27,6.27,0,0,0-3,.74,5.26,5.26,0,0,0-2.14,2,5.42,5.42,0,0,0-.77,2.81,5.34,5.34,0,0,0,1.58,3.84,6.41,6.41,0,0,0,9.12-.54l-2.08-1.43a3.41,3.41,0,0,1-2.76,1.2,3.13,3.13,0,0,1-2.32-.85,2.88,2.88,0,0,1-.87-2.18,3,3,0,0,1,.9-2.27,3.34,3.34,0,0,1,2.39-.89"/><path class="cls-1" d="M169.67,72.41a5.53,5.53,0,0,0-2.79-.74,5.24,5.24,0,0,0-3.65,1.43,5.56,5.56,0,0,0-.21,8,5.2,5.2,0,0,0,3.86,1.61,5.48,5.48,0,0,0,2.81-.73,5.34,5.34,0,0,0,2-2,5.5,5.5,0,0,0-2-7.56m-.71,7a2.89,2.89,0,0,1-4.11,0,3.13,3.13,0,0,1-.79-2.22,3,3,0,0,1,.81-2.2,2.7,2.7,0,0,1,2-.85A2.74,2.74,0,0,1,169,75a3.05,3.05,0,0,1,.82,2.21,3,3,0,0,1-.84,2.2"/><path class="cls-1" d="M91.06,80.32a1.52,1.52,0,0,1-.21-1v-.48h0V74.21h1.56V72H90.83V68.07H88.18V72H86.84v2.26h1.34v4.67h0V80h0a2.84,2.84,0,0,0,.69,2.06,3.45,3.45,0,0,0,2.37.64,11.25,11.25,0,0,0,1.67-.19v-2c-.32,0-.6,0-.85,0a1.43,1.43,0,0,1-1-.25"/><path class="cls-1" d="M126.19,80.32a1.52,1.52,0,0,1-.21-1v-.48h0V74.21h1.57V72H126V68.07h-2.64V72H122v2.26h1.35v4.67h0v.87s0,.08,0,.12V80h0a2.84,2.84,0,0,0,.68,2.06,3.48,3.48,0,0,0,2.37.64,11.49,11.49,0,0,0,1.68-.19v-2c-.32,0-.6,0-.85,0a1.41,1.41,0,0,1-1-.25"/></svg>