<svg xmlns="http://www.w3.org/2000/svg" xmlns:xlink="http://www.w3.org/1999/xlink" id="Layer_1" x="0px" y="0px" viewBox="0 0 250 100" style="enable-background:new 0 0 250 100;" xml:space="preserve"><style type="text/css">	.st0{fill-rule:evenodd;clip-rule:evenodd;fill:#1A1A18;}	.st1{fill:#1A1A18;}</style><g>	<path class="st0" d="M159.2,47c-0.1-0.3-0.7-0.1-1-0.2c-0.1,0.2,0,0.5,0.2,0.6C158.8,47.4,159.2,47.2,159.2,47"></path>	<g>		<path class="st1" d="M149.3,43.1c0,0,0.2-0.2,0.8-0.7c0.7-0.5,1.5,1.3,1.2,1.6c-0.4,0.4-1.6,0.6-1.6,0.6s0.4-0.1,1.2-0.6   c0.6-0.4-0.3-1.3-0.3-1.3L149.3,43.1z"></path>		<path class="st1" d="M150,61.4c-0.1-0.1,0-0.4,0.2-0.3c0.2,0.1,0.1,0.5-0.2,0.7C149.8,62,150,61.4,150,61.4"></path>		<path class="st1" d="M130.8,46.4c0-0.3-0.1-0.5,0.2-0.3c0.2,0.1,0.3,0.2,0,0.5c-0.3,0.3-0.4-0.2-0.4-0.2L130.8,46.4z"></path>		<path class="st1" d="M140.5,47.4c0.2,0.5,0.5,0.3,0.6,0.5c0.1,0.2,0.1,0.1-0.2,0.3c-0.3,0.1-0.1,0.3-0.4-0.1   C140.2,47.7,140.5,47.4,140.5,47.4"></path>		<path class="st1" d="M131.1,39c0,0,0.5,0.3,1-0.4c0.5-0.7-0.4-1.3-0.4-1.3s0.6,0,1.1,0c0.5,0,0.3,1.1,0.3,1.1l-0.2,1.3   c0,0-1.1-0.2-1.4-0.1C130.8,39.8,131.1,39,131.1,39"></path>		<path class="st1" d="M129.4,38.8c0,0,0.5,0.3,1,0.2c1.5-0.1-0.1,0.2-0.1,0.2s-2.1-0.3-2.5-0.5C127.5,38.6,129.4,38.8,129.4,38.8"></path>		<path class="st1" d="M127.3,64.9c0,0,0.8,1.3,1.1,1.5c0.4,0.2,0.6,0.5,0.9,0.7c0.3,0.2-0.2-0.1-0.5-0.2c-0.8-0.2-0.9,0.1-0.9-0.2   c0-0.6-0.3-1.1-0.3-1.2C127.4,65,127.3,64.9,127.3,64.9"></path>		<path class="st1" d="M139.3,66c0.1,0.1,0.2,0.3,0.2,0.4c0,0.3,0.4,0.6-0.2,1.1c-0.4,0.3-0.9,0.3-0.6,0c0.3-0.3,0.2-0.6,0.5-1.1   C139.3,66.2,139.3,66.1,139.3,66"></path>		<path class="st1" d="M154.7,46.2c0,0,0.3-0.5,0.4-1.1c0-0.2,0.4,0.2,0.4,0.2s-0.1,0.7-0.3,1.3C155,46.8,154.7,46.2,154.7,46.2"></path>		<path class="st1" d="M155.5,45.4c0,0,1.6,0.3,1.2,0.5c-0.3,0.1-0.4,0.7-0.4,0.7s-1,0.1-0.8,0C155.8,46.4,155.5,45.4,155.5,45.4"></path>		<path class="st1" d="M156.6,43.6l1,0.7c0,0,1.3,1.1,1.1,1.1c-0.4,0.1-0.7,0.4-0.7,0.4s1,0,1.2,0.6c0.1,0.3-0.5,0-0.8,0   c-0.3,0-0.7,0.2-0.8,0c0-0.2-1-1.4-1.6-1.5C155.6,45,156.6,43.6,156.6,43.6"></path>		<path class="st1" d="M131.9,51c0.6,0.3-0.2,0.1-0.6,0.4c-0.4,0.2-1.1,0.1-0.3,0.3c0.9,0.2,1.2-0.7,1.7-0.2c0.3,0.4,0,0.9,0.9,1.3   c1,0.5,0.9-0.2,1.7,0.7c0.7,0.8,1.9,0.2,1.3,1.6c-0.6,1.4,0.3,1-1.2,0.9c-1.5-0.1,0.1-1.4-1.3-1.8c-1-0.3-0.9-0.6-2-0.6   c0.1,0-1.1,0.3-1.4,0.5c-0.8,0.5-0.1,1.2-1.2,1c-1-0.2-0.5-0.1-0.4-1c0.1-0.9,0.5-0.3,1.3-1.2c0,0,1.1-0.9,0.3-0.9   c-0.9,0.1-0.9-0.4-1.4-0.4c-1.3-0.1-2.3-1.7-2-1.4c1,0.9,2.3,1.3,2.2,1.2c-2-1.4-1.7-1.5-1.7-1.5l0.7,0.3l-0.2-0.5   c0,0,0.7,1.5,2.6,0.9C131.1,50.4,131.2,50.8,131.9,51"></path>		<path class="st1" d="M135.4,71.4c0.5-0.2,1.1-0.8,1.3-0.8c0.2-0.1,1.2,0.7,2.2,2.2c0.1,0.2,0.9,1.4,0.1,0.9   c-0.9-0.5-2.1-0.6-2.8-0.8c-0.3-0.1,0-1-0.1-1.1C135.5,71.7,135.1,71.5,135.4,71.4"></path>		<path class="st1" d="M152.1,42.8c0,0,0.9,1.4,2.6,2.1c0,0-0.2,1-0.8,1.1c-1.2,0.1-1.5,0-1.5,0L152.1,42.8z"></path>		<path class="st1" d="M152,42.1c0,0-0.3-1.1,0.3-1c0,0,1.2-0.4,1.5,0c0.9,1.1,2.5,2.2,2.5,2.2s-1.1,1.4-1.6,1.3   c-0.3-0.1-2.4-1.2-2.1-1.6c0.2-0.4,0.7,0.4,0.9,0.2c0.1-0.1-0.3-0.6-0.3-0.6s1.9,1.2,2.1,1.1c0.2-0.1-0.1-0.6-0.7-0.6   c-0.8,0-0.6-0.8-1.2-0.8l-0.1,0c0,0,1.5,0.1,1-0.2c-0.1-0.1-1.1-0.1-1.8-0.4c-0.5-0.2,0.9,1,0.7,1C152.8,42.7,152,42.1,152,42.1"></path>		<path class="st1" d="M151.2,47.3c0,0-0.2,0.2,1.9,0.4c2.1,0.2,2.3-0.3,2.3-0.3s1.6-0.1,1.8,0.1c0.2,0.4-1.2,0.5-1.2,0.5   s-0.1,0.3,0.3,0.5c0.5,0.2-4.9-0.6-4.9-0.6l-1-0.4L151.2,47.3z"></path>		<path class="st1" d="M150,48.2c0,0,1.6,0.7,4.7,0.3l0,0.3c0,0-4.2,0-4.8-0.2L150,48.2z"></path>		<path class="st1" d="M151.2,40.5c0,0,0.3-0.1,0.8,0.3l-0.4,1.1l-1.5-0.8c0,0.6,1.2,1,1.3,1.2c0.9,2.1,0.9,3.6,0.9,3.6   c-0.5-0.3-1.1-0.2-1.1-0.2c-0.6,0.4-1.2,1-1.2,1s-3.6,0-6.5-0.2c0,0,4.1-4.4,6-5.3c0.5-0.2-1.7-1.6-1.3-1.7c1.1-0.1,2,1,2,1   s1,1,1.1,0.6C151.3,40.9,151.2,40.5,151.2,40.5"></path>		<path class="st1" d="M140.7,48.5c0,0,0.6-0.6,1.1-0.8c0.4-0.2,0.7,0,1.2-0.2c1.1-0.5,7.1-0.1,7.1-0.1s0.4,0.6-0.6,1.3   c-0.5,0.4-2.6,4.6-2.6,4.6s-0.2-0.7-3.3-3.1C142.5,49.3,140.7,48.5,140.7,48.5"></path>		<path class="st1" d="M136.8,49.1c0.7,0.1,0.5,0.6,1,0.5c0.5,0,0.9-0.8,1.6-0.9c1.2-0.2,1.3,0.7,1.3,1c0.3,1.2-0.5,2.3-0.3,2.9   c0,0-0.8,0.3-1.5-0.1c-0.6-0.4,0.4-1.5-0.4-1.9c0,0-1,0-1.7-0.8C136.2,49.2,136.8,49.1,136.8,49.1"></path>		<path class="st1" d="M136.8,50.2c0.9,0.4,0.9,0.7,1.4,0.8c0.7,0.1-0.2,1.4,0.5,1.8c0.8,0.4,0.8,0.1,1.6,0.1c0.7,0,1.5,0.9,1.3,1.4   c-0.2,0.5-0.6,0-1,0c-0.4-0.1-1.4-0.2-1.7-0.1c-0.4,0.1-0.2,0.7-0.8,1.3c-0.8,0.7-1.2,0-1.1-1c0.1-1-0.1-1.6,0.2-2.3   c0.2-0.6,0.5-0.8-0.5-1.4c-0.6-0.4-0.5-1.1-0.5-1.1S136.2,50,136.8,50.2"></path>		<path class="st1" d="M138.9,36.9c0,0-0.8,0.1-1.7-0.2c0,0-0.5-0.7,0.1-1.3c0,0,0.6-1,1.8-1c1.5,0,2.1,2,2.1,2   C139.1,36.2,138.9,36.9,138.9,36.9"></path>		<path class="st1" d="M133.9,46.9c0,0,1,0.1,1.4-0.1c0.9-0.5,0.9,2.6,0.9,2.6S134.5,47.4,133.9,46.9"></path>		<path class="st1" d="M129.8,37.6l1.7-0.1c0,0,0.7,0.2,0.7,0.5c-0.1,1.1-2.4,0.8-2.4,0.8c-0.9-0.5-0.9-1.5-1.3-1.4   c-0.4,0,0,0.7-0.3,0.8c-0.6,0.3-0.7,0.4-0.7,0.4s-2-0.8-1.4-0.8c0.1,0,0.6,0.3,0.9,0.4c0.7,0.1,0.4,0.1,0.4,0.1s0.1-0.2-0.8-0.5   c-0.3-0.1-0.2-0.3-1.2-0.5c0,0-0.1-0.2-0.9-0.2c-0.3,0-0.1-0.9-0.1-0.9s-0.4,0.2-0.6,0c-0.2-0.2-0.3-0.6-0.5-0.4   c-0.5,0.5,0.8,0.9,0.5,1.1c-0.1,0.1-0.3,0.2-1-0.6c-0.2-0.2-0.1-0.5-0.1-0.5s-0.3-0.5,0-0.7c0.3-0.2-0.1-0.6,0.7-0.8   c0.8-0.1,1.8,0.3,1.8,0.3l21.3-10.7l-1.6-1.3l0.3-0.3l3.7,2.8l-0.3,0.3l-1.6-1.2l-21.7,10.9c0,0-0.7-0.2-0.6,0.3   c0.1,0.5-0.1,0.4-0.1,0.4s1.5,1.2,2.9,1.2l1.1,0.1C128.7,36.7,129.3,37.2,129.8,37.6"></path>		<path class="st1" d="M137.1,37.3c-0.4-0.2-0.4-0.6-0.4-0.6c1,0.6,2.2,0.4,2.2,0.4c1-0.1,1.8-0.3,1.8-0.3s-0.4-0.3-0.3-0.3l0.5,0.2   l0.2-0.1c0.2,0,0.6,0.4,0.6,0.4s-0.7,0.2-1.6,0c-0.6-0.2-0.3,0.5-0.3,0.5s0.1,0.5-0.3,0.5c-0.3,0-0.4,0.2-0.4,0.2l0,0.4l-0.3,0.1   c-0.4-0.2-0.4-0.9-0.6-0.8c-0.3,0.1-0.3,0-0.3,0.1c0,0,0,0,0,0.1c-0.1,0.3-0.3,0.7-0.4,0.4c-0.2-0.4-1-0.9-0.7-0.9   C137.1,37.6,137.1,37.3,137.1,37.3"></path>		<path class="st1" d="M140.4,38.5l0.1,0.3c0.1,0.3,0,0.6,0,0.6l0.3,0.1c0,0,0.7-0.8,0.6,0.2c0,0.5-0.1,0.6-0.4,1   c-0.3,0.3-0.2,1.1-0.7,1.1c-0.5-0.1,0.1-0.8,0.2-1c0.1-0.3,0.2-0.6-0.1-0.7c-0.3-0.1-0.3,1.5-1,0.8c-0.3-0.3-0.4,0.9-0.5,1.4   c-0.1,0.5,0.1,0.9-0.9,1.4c0,0-1.5,1.3-1.8,2l-1.3,0.8l-1.4,0l-0.1,0.5c0,0-1.4-1.2-2.1-2.1c-0.6-0.7-1.3-0.9-1.2-1.1l1.1-0.4   l-0.1-0.9l0.5-0.4c0.2-0.2,0.2,0,0.6-0.6c0.4-0.6,0.4-0.9,0.6-0.8c0.2,0.1-0.3,1.1,0,1.4c0.3,0.3,0,0.5,0,1.3c0,0.7-0.2,0.8,0,0.8   c0.8-0.2,0.3-1.8,0.4-2.4c0-0.6,0-0.8,0-1.1c0-0.3,0.2-0.8,0.3-0.6c0.1,0.8,0.6,1,0.6,1c0.2,0.9,1.6,2.2,1.4,2.7   c-0.2,0.4,0.8,0.9-0.1,1c-0.9,0.2-1.7,0.4-1,0.5c0.8,0.1,1.2,0.3,1.6-0.1c0.4-0.4,0.6-0.9,1-1.3c0.4-0.4,1.3-0.6,1.3-0.6   s-3-5.5-3.5-5.7c-0.6-0.2-1.2,0.3-1.2,0c0.1-0.4,0.1-0.2,0.1-0.2c0.9-0.1,1.2,0.1,1.7,0.1c0.4-0.1,0.8,0.3,1.2,0.8   c0.6,0.6,1,1.1,1.8,1.2c1.8,0.1,1.6-0.8,1.9-0.7C140.6,38.5,140.4,38.5,140.4,38.5"></path>		<path class="st1" d="M130.1,44c0.3,0.4,0.5,0.4,0.9,1c0.4,0.5,0.4,0.5,0.7,0.9c0.3,0.3-0.3,0-0.6-0.3c-0.3-0.3-0.1-0.1-0.4-0.5   C130.4,44.6,130.1,44,130.1,44"></path>		<path class="st1" d="M133,47.4c0,0,0.6,0.8,1.1,1.1c-0.1-0.1,0.4,1,0.5,1c0.2,0.1,0.4,0.2,0.3-0.4c-0.1-0.2-0.2-0.7-0.8-1   C133.4,47.8,133.3,47.3,133,47.4"></path>		<path class="st1" d="M131.1,49.8c-0.3,0,0.1-0.2-0.4-0.2c-0.4,0-0.3-0.4-0.3-0.4c0.6,0,0.2-0.1,0.7-0.3c0.2-0.1,0.4-0.5,0.3-0.7   c-0.1-0.3-0.7,0.8-1.3,0.8c-0.2,0-0.4-0.6,0-0.6c0.5,0,1.5-1,1-1.1c-0.1,0-0.3,0.5-0.5,0.6c-0.2,0,0.1-0.4-0.1-0.5   c-0.1-0.1-0.3,0.7-0.7,0.8c-0.4,0.1-0.4-0.4-0.4-0.4l0.4-0.7l0.6-0.6l-0.5-0.1l0.4-0.2l0-0.6l1,0.4c0,0,1.3,0.7,2.4,1.4   c1.1,0.7,1.4,2.2,1.4,2.2l0,0.5c0,0,0.7-0.6,0.7-0.2c-0.1,0.9-0.3,0.4,0.3,1.1c0.3,0.3,0.9,0.1,0.6,0.7c-0.3,0.8,0.1,2.3-0.6,1.9   c-0.7-0.4-2.7-1.5-2.2-1.5c0.7,0,1.2-0.4,1.2-0.4c-1.9,0.2-2.4-0.2-3.3-1.1C133,51.6,131.1,49.2,131.1,49.8L131.1,49.8z"></path>		<path class="st1" d="M156.5,47.3c-0.4-0.1-1.3-0.3-2.3-0.5c-1.5-0.3-6.3,0.3-4.4,0.3C153.6,46.9,155.7,47.1,156.5,47.3    M142.8,39.7c0.4,0.8,0.4,2,0.3,2.5c0,0.3,0.1,0.6,0.2,1.2c0,0.6-0.4,1.2-0.4,1.7c0.1,0.7,0.1,1.2,0.1,1.2   c-0.4,0.4-0.3,0.8-0.2,0.8c4,0.3,10.4-0.8,13.6,0c0.2,0,0.2-0.9,0.7-1c0,0,0.6,0.9,0.2,0.8c-0.8-0.1-0.6,0.4-0.6,0.6   c-1.1,0-10,0.3-13.8,0c0,0-0.1,0-0.5-0.1c-0.7-0.2-0.6-0.2-0.7,0.1c0,0.3-0.3,0.2-0.7,0.2c-0.4,0-0.4-0.3,0.1-0.6   c0.2-0.1,0.2-0.6,0.5-0.8c-0.3,0.3,0.1-0.3,0-0.9c-0.1-0.4,0.1-1.7-0.1-2.1c-0.3-0.6-0.4-1.7-0.1-2c0.2-0.3,0.5,0,0.7-0.5   C142.4,40.3,142.7,39.8,142.8,39.7z"></path>		<path class="st1" d="M147.1,53.3c0.4,0,0.2,0.6,0.8,0c0.6-0.6,2.2-2.3,2.2-2.1c-0.1,0.1,2.2-2.3,2.2-2.3s0.6-0.1,0.4,0.1   c-0.3,0.3-2.4,2.3-2.7,2.6c-0.4,0.3-1.1,1.2-1.4,1.6c-0.2,0.2-0.8,0.4-0.9,1c-0.1,0.3-0.3,0-0.6-0.3   C146.8,53.6,147.1,53.3,147.1,53.3"></path>		<path class="st1" d="M128.6,51.9c1.2,0.1,2.4,0.4,2.1,0.8c-0.8,1-1.2,0.3-1.3,0.8c-0.1,0.3-0.3,1.1-0.3,1.4   c-0.1,0.3,1.5,0.4,1.5-0.4c0-0.5,0.3-1,1.3-0.7c0.3,0.1-1.4,0.7,1.3,0.5c0.5,0,1.5-0.5,1.5,1c0,0.8,1.5,1.1,1.6,0.9   c0.6-1.7,0.9-0.3,1.1-0.3c0,0-0.2,0.8-0.8,2c0,0-1.7,0.1-0.4,0.9c0.5,0.3,1.1-1.6,1.2-0.5c0.1,0.7-1.3,1-0.8,1.1   c0.5,0,1.5-0.6,1.3-0.2c-0.3,0.4-0.3,0.4-0.9,0.5c-0.6,0.1-0.6,0.4,0.1,0.4c0.7,0,0.4,0.2,0.7,0.8c0.3,0.6,0.3,0.4,0.3,0.8   c0,0-0.9-0.4-2.1,0.3c-1.1,0.6-5.9-1.4-5.9-1.4c-1,0.4-1.3-1.6-1.5-2.1c-0.7-1.8-1.6-1.1-1.6-1.1s0.7,0.1,1.1,1.2   c0.4,1.1,0.9,1.2,0.6,2.8l-0.4,0.5c1.8,2.9,1.7,4.7,1.7,4.7s0.1,0.4-0.2,0.9c-0.1,0.2-1.2-1.4-1.3-1.5c-0.7-0.4-1-1.3-1.1-1.5   c-0.2,0.1-0.9,0.4-1.1,0.9c-0.1,0.4-0.3,1.1-0.1,1.3l1.2,0.1c0,0,0,0.1,0,0.2c-0.4,0.2-0.7,0-1,0.4c-0.2,0.3-0.1,0.6-0.2,0.9   c-0.1,0.3-0.1-0.3-0.8-0.2c-0.4,0.1-0.2-0.4-0.8-0.5c-0.8-0.1-1.3-0.2-1.3-0.2s-0.5-0.1-0.5-0.8c0-0.6,0.4-0.6,0.5-0.8   c0.6-0.7,0.5-1.4,1.1-2.1c0.6-0.7,0.3-1,0-0.9c-1.1,0.4-1.1-0.1-2.7-0.4c-1.6-0.3-2.3-0.8-3.3-1.8c-0.6-0.6,0-4.7,0-4.7   c-1.5,0.2-2.1-0.3-3.1-0.1c-0.3,0.1-0.8,0-1.2,0.3c-0.4,0.3-0.3,0.6-0.3,0.6l-1.3,0c0,0,0.7-1.5,1.3-1.6c0.9-0.3,1.5-0.3,2.4-0.3   c1.7-0.2,2.7,0.2,2.7,0.2s0.7-1.5,4.7-3.1c4.3-0.8,4.4-0.5,4.4-0.5l0.4,0.6L128.6,51.9z"></path>		<path class="st1" d="M141.8,50.4c-0.1,0.3,0.3,0.2,0.7-0.5c0.4-0.6,3.9,3.1,4.7,4.7c0.1,0.2,0.3,1.1-0.2,1.1   c-1.2-0.1-0.1-0.6-0.1-0.6s0.2-0.5-0.4-0.8c-0.5-0.3,0,0.3-0.7,0.3c-0.5,0-0.2-1.3-0.3-1.4c-0.2-0.2-0.2,0.6-0.2,0.6   c-1.3-1.4-1.5-1.7-2-1.6c-1.5,0.6,0.7,0.8,1.4,1.5c0.9,0.8,1.1,1.5,0.3,1.2c-1.7-0.7-0.9-1.5-1.3-1.4c-1.4,0.4-3.2-0.6-3-1.3   c0.5-1.4,0.3-2.8,0.3-2.8l0.7,0.1C141.8,49.5,142.1,49.8,141.8,50.4"></path>		<path class="st1" d="M141.3,68.6c-1.7,0.4-3-0.4-3-0.4s2.4-0.5,1.5-1.9c-0.7-1.1-1.1-0.7-0.8-4.2l-0.6-0.8c-0.2-0.7,0.3-0.5-0.3-1   c-0.5-0.4-0.4-0.8,0.2-1.3c0.2-0.2,2.7,2.3,3.7,2.3c1.4,0,0.3,0.8,0,2.4c-0.3,1.3-1,2.7-0.8,4.5L141.3,68.6z"></path>		<path class="st1" d="M143.1,61.1c0,0-0.6,0-1.3-0.1c-1.4-0.2-2.8-2.4-4.4-3c-0.4-0.1-0.3-0.8,0.3-1.5c1.3-1.6,1.9-2.2,2.2-2.1   c1.4,0.6,2.9,0.9,3,1.4c0.4,1.3,0.2,1.4,1,1.4c0.2,0-0.7-1.5-0.5-1.4c3.7,1.3,2.6,0.1,3,0.2c0.8,0.3-0.8,1.8-1,2.3   C145,59.3,143.8,61,143.1,61.1"></path>		<path class="st1" d="M143.3,61.3c0,0,0.6-0.4,1.3-1.1c0.8-1,0.7-1.5,0.9-1.6c0.2-0.1,1.9,1,2.3,1.1c0.1,0,2.8-0.1,3.8,1   c0.9,1.1-0.1,1.5-0.6,2.6c-0.3,0.6-0.3,0.4-1.3,0.2c-1-0.2-1.2,0-0.8-0.5c0.4-0.5,1-1.2,0.7-1.3c-0.7-0.5,0.1,0.8-1,0.2   c-0.7-0.4-1.5-0.1-2.5-0.1C145.4,61.8,143.4,61.4,143.3,61.3"></path>		<path class="st1" d="M130.5,69.6c0,0,0.3-0.1,0.6-0.4c0.4-0.3,0.3-0.6,0.5-0.5c0.2,0.1,0.6,0.8,0.7,1.1c0.2,0.4,0.8,2.2,0.7,2.8   c0,0.3-1-0.8-1.6-1.1c-0.1,0-1-0.3-1-0.8C130.4,70.1,130.5,69.6,130.5,69.6"></path>		<path class="st1" d="M131.8,68.2c0.2,0.1,1.4,0.3,1.7,0.4c0,0,0.3,0.9,0.9,1.1c0,0-0.3,0.4-0.3,0.8c0,0.6,0.1,1,0.1,1   c-0.7-0.1-0.6-0.6-1.8-1.7C132.2,69.5,131.9,68.5,131.8,68.2"></path>		<path class="st1" d="M143.3,68.9c0.7-1.4,2.4-2.6,1.8-2.5c0.4,0,1,0.1,1.3-0.2c-0.2,0.1,0.3,1.2,0.7,1.4c0.1,0.1-0.1,0.2-1.5,0.7   C144.3,68.7,143.3,68.9,143.3,68.9"></path>		<path class="st1" d="M141.7,39.5c0,0,0.5-0.1,0.5,0.1c0,0.2,0,0.4-0.4,0.8c-0.4,0.4-0.7,1.1-0.9,1.3c-0.1,0.1,0.1-0.4,0.2-0.8   C141.5,40.1,142,40,141.7,39.5"></path>		<path class="st1" d="M145.6,54.8c0.7-0.1,0.9-0.2,1,0c0.1,0.1-0.2,0.4-0.4,0.5c-0.2,0.1,0-0.1-0.3-0.2   C145.6,54.9,145.6,54.8,145.6,54.8"></path>		<path class="st1" d="M148.9,63.5c0,0,1.8,0.3,1.5,0.6c-1.1,1.4-1.9,3-1.9,3s-1.3-1.4-1-1.6c1.3-1.2,1.1-1.5,1.1-1.5L148.9,63.5z"></path>		<path class="st1" d="M146.6,66.2l0.6,1.2c0,0,0.3,0.3,1.1,0c0.8-0.3-1-1.6-1-1.6L146.6,66.2z"></path>		<path class="st1" d="M126.6,67.6c0,0-0.1,0.8-0.1,0.9c0.6,0.4,2.1-0.2,3.7,1c0.4,0.3,1.3-1.2,1.3-1.2s0.6-0.7-4.4-1.3   C126.8,67,126.6,67.6,126.6,67.6"></path>		<path class="st1" d="M134.7,69.8c0,0-0.3,0.9-0.2,1.7c0.1,0.4,1.4-1.1,2.4-1.2c1-0.2,2.4-1,3.2-1c0.8,0,1.1-0.4,1.1-0.4   s-0.8,0.3-1.9,0.1c-1.1-0.2-1-0.5-1.3-0.7c-0.3-0.2-0.3,0.3-1.3,0.7C135.8,69.3,134.7,69.8,134.7,69.8"></path>		<path class="st1" d="M140.2,38.4c0-0.1,0.1-0.1,0.2-0.1c0.1-0.1,0-0.2,0.1-0.3c0.1-0.1,0.3-0.1,0.4-0.1c0.1-0.2-0.1-0.5,0-0.7   c0,0-0.1,0-0.2,0c-0.1,0.1-0.1,0.3-0.1,0.4c0,0.1-0.3,0.3-0.3,0.5c0,0,0,0.1-0.1,0.2c-0.1,0.1-0.1,0.1-0.3,0.4   c-0.2,0.3,0.3,0,0.3-0.1C140.3,38.5,140.2,38.4,140.2,38.4"></path>		<path class="st1" d="M150,68.8l-0.2,0l0-1.6l0.6,0c0.3,0,0.5,0.2,0.5,0.5c0,0.3-0.2,0.4-0.4,0.5l0.4,0.7l-0.2,0l-0.4-0.7l-0.3,0   V68.8z M150.3,67.9c0.2,0,0.4-0.1,0.4-0.3c0-0.2-0.1-0.3-0.4-0.3l-0.3,0l0,0.5L150.3,67.9z M150.3,66.7c0.7,0,1.3,0.6,1.3,1.4   c0,0.8-0.6,1.4-1.3,1.4c-0.7,0-1.3-0.6-1.3-1.4C149,67.3,149.6,66.7,150.3,66.7z M150.3,69.2c0.6,0,1.1-0.5,1.1-1.2   c0-0.7-0.5-1.2-1.1-1.2c-0.6,0-1.1,0.5-1.1,1.2C149.2,68.7,149.7,69.2,150.3,69.2z"></path>		<path class="st0" d="M157.6,48.4c0-0.2,0.3-0.3,0.2-0.5c-0.1,0-0.3,0-0.5,0C157.4,48,157.2,48.4,157.6,48.4"></path>		<path class="st0" d="M157.7,47.6c0.1,0.1,0.2,0.1,0.3,0.1c0.1-0.2,0.1-0.7-0.1-0.9c-0.1,0-0.1,0-0.2,0   C157.8,47.1,157.9,47.4,157.7,47.6"></path>	</g>	<g>		<path class="st1" d="M171.9,52.8c-0.5,0.3-1.1,0.4-1.9,0.4h-2.4V56h-1v-7h3.5c1.9,0,2.8,0.7,2.8,2.1   C172.9,51.9,172.5,52.4,171.9,52.8 M170.1,50h-2.5v2.3h2.6c0.5,0,0.9-0.1,1.2-0.3c0.3-0.2,0.5-0.5,0.5-0.8   C171.9,50.4,171.3,50,170.1,50z"></path>		<path class="st1" d="M181.8,55.2c-0.7,0.6-1.7,1-2.9,1c-1.2,0-2.2-0.3-2.9-1c-0.7-0.6-1.1-1.5-1.1-2.6c0-1.1,0.4-2,1.1-2.6   c0.7-0.6,1.6-0.9,2.9-0.9c1.2,0,2.2,0.3,2.9,0.9c0.7,0.6,1.1,1.5,1.1,2.6C182.9,53.7,182.5,54.5,181.8,55.2 M181.1,50.7   c-0.5-0.4-1.2-0.7-2.2-0.7c-0.9,0-1.7,0.2-2.2,0.7c-0.5,0.4-0.8,1.1-0.8,1.9c0,0.8,0.3,1.5,0.8,1.9c0.5,0.5,1.2,0.7,2.2,0.7   c0.9,0,1.7-0.2,2.2-0.7c0.5-0.5,0.8-1.1,0.8-2C181.9,51.7,181.6,51.1,181.1,50.7z"></path>		<polygon class="st1" points="185.2,56.1 185.2,49.1 186.2,49.1 186.2,55.2 190.6,55.2 190.6,56.1   "></polygon>		<path class="st1" d="M198.8,55.2c-0.7,0.6-1.7,1-2.9,1c-1.2,0-2.2-0.3-2.9-1c-0.7-0.6-1.1-1.5-1.1-2.6c0-1.1,0.4-2,1.1-2.6   c0.7-0.6,1.6-0.9,2.9-0.9c1.2,0,2.2,0.3,2.9,0.9c0.7,0.6,1.1,1.5,1.1,2.6C199.9,53.7,199.5,54.5,198.8,55.2 M198.1,50.7   c-0.5-0.4-1.2-0.7-2.2-0.7c-0.9,0-1.7,0.2-2.2,0.7c-0.5,0.4-0.8,1.1-0.8,1.9c0,0.8,0.3,1.5,0.8,1.9c0.5,0.5,1.2,0.7,2.2,0.7   c0.9,0,1.7-0.2,2.2-0.7c0.5-0.5,0.8-1.1,0.8-2C198.9,51.7,198.6,51.1,198.1,50.7z"></path>		<path class="st1" d="M214.2,51c-0.3-0.4-0.6-0.7-1-0.9c-0.4-0.2-0.9-0.3-1.4-0.3c-0.9,0-1.7,0.2-2.2,0.7c-0.5,0.5-0.8,1.1-0.8,2   c0,0.8,0.3,1.5,0.8,1.9c0.5,0.5,1.2,0.7,2.1,0.7c0.5,0,1-0.1,1.4-0.3c0.4-0.2,0.8-0.5,1.1-0.9l0.8,0.5c-0.9,1-2,1.5-3.3,1.5   c-1.2,0-2.1-0.3-2.8-1c-0.7-0.6-1.1-1.5-1.1-2.6c0-1.1,0.4-2,1.1-2.6c0.7-0.7,1.7-1,2.9-1c1.4,0,2.5,0.5,3.3,1.5L214.2,51z"></path>		<polygon class="st1" points="217.3,56.1 217.3,49.1 218.2,49.1 218.2,55.2 222.7,55.2 222.7,56.1   "></polygon>		<path class="st1" d="M230.1,55.5c-0.5,0.4-1.3,0.6-2.3,0.6c-2.1,0-3.2-0.9-3.2-2.8v-4.3h1v4.3c0,0.6,0.2,1.1,0.5,1.4   c0.4,0.3,0.9,0.5,1.7,0.5c0.8,0,1.3-0.2,1.7-0.5c0.3-0.3,0.5-0.7,0.5-1.4v-4.3h1v4.3C231,54.3,230.7,55,230.1,55.5"></path>		<path class="st1" d="M239,55.6c-0.5,0.3-1.1,0.4-1.9,0.4h-3.6v-7h3.7c0.7,0,1.3,0.1,1.7,0.4c0.6,0.3,0.8,0.8,0.8,1.5   c0,0.6-0.3,1-0.8,1.4c0.7,0.3,1,0.9,1,1.6C240,54.7,239.7,55.3,239,55.6 M238.3,50.2c-0.3-0.2-0.7-0.3-1.2-0.3h-2.7v2h2.7   c0.5,0,0.9-0.1,1.2-0.3c0.3-0.2,0.4-0.4,0.4-0.8C238.8,50.6,238.6,50.4,238.3,50.2z M238.5,53.2c-0.3-0.2-0.8-0.3-1.4-0.3h-2.7   v2.3h2.7c0.5,0,1-0.1,1.3-0.3c0.4-0.2,0.5-0.5,0.5-0.9C239,53.6,238.9,53.3,238.5,53.2z"></path>	</g>	<g>		<polygon class="st1" points="76.5,56.1 76.5,52.9 71.8,52.9 71.8,56.1 70.8,56.1 70.8,49 71.8,49 71.8,52 76.5,52 76.5,49    77.5,49 77.5,56.1   "></polygon>		<rect x="80.1" y="49" class="st1" width="1" height="7.1"></rect>		<polygon class="st1" points="83.7,56.1 83.7,49 84.7,49 84.7,55.2 89.2,55.2 89.2,56.1   "></polygon>		<polygon class="st1" points="91.1,56.1 91.1,49 92.1,49 92.1,55.2 96.6,55.2 96.6,56.1   "></polygon>		<path class="st1" d="M101.4,56.2c-0.9,0-1.7-0.2-2.3-0.5c-0.8-0.4-1.1-1.1-1.1-2v-0.5h1v0.4c0,1,0.8,1.6,2.5,1.6   c0.6,0,1.1-0.1,1.5-0.3c0.4-0.2,0.7-0.5,0.7-0.8c0-0.3-0.1-0.5-0.2-0.6c-0.1-0.1-0.4-0.2-0.7-0.3c-0.2-0.1-0.7-0.2-1.5-0.3   c-0.9-0.2-1.5-0.4-1.9-0.5c-0.7-0.3-1.1-0.9-1.1-1.5c0-1.3,1-1.9,3-1.9c2.1,0,3.2,0.9,3.2,2.6l-1,0c-0.1-0.7-0.3-1.2-0.6-1.4   c-0.3-0.2-0.9-0.3-1.6-0.3c-1.3,0-2,0.3-2,1c0,0.3,0.2,0.6,0.5,0.7c0.3,0.1,0.7,0.2,1.4,0.4c1.3,0.2,2.2,0.4,2.6,0.7   c0.6,0.3,0.9,0.8,0.9,1.5c0,0.7-0.4,1.2-1.1,1.6C102.9,56,102.2,56.2,101.4,56.2"></path>		<path class="st1" d="M15.5,55.7c-0.5,0.3-1.1,0.4-1.9,0.4l-3.6,0l0-7l3.7,0c0.7,0,1.3,0.1,1.7,0.4c0.6,0.3,0.8,0.8,0.8,1.5   c0,0.5-0.3,1-0.8,1.4c0.7,0.3,1,0.9,1,1.6C16.5,54.8,16.1,55.4,15.5,55.7 M14.8,50.3c-0.3-0.2-0.7-0.3-1.2-0.3l-2.7,0l0,2l2.7,0   c0.5,0,0.9-0.1,1.2-0.3c0.3-0.2,0.4-0.4,0.4-0.8C15.3,50.7,15.1,50.5,14.8,50.3z M15,53.2C14.7,53,14.2,53,13.6,53L11,53l0,2.3   l2.7,0c0.5,0,1-0.1,1.3-0.3c0.4-0.2,0.5-0.5,0.5-0.9C15.5,53.7,15.3,53.4,15,53.2z"></path>		<polygon class="st1" points="18.7,56.1 18.7,49.2 24.5,49.2 24.5,50 19.7,50 19.7,52 23.9,52 23.9,52.9 19.7,52.9 19.7,55.2    24.5,55.2 24.5,56.1   "></polygon>		<polygon class="st1" points="30,56.1 29.3,56.1 25.9,49.1 27,49.1 29.6,54.7 32.2,49.1 33.3,49.1   "></polygon>		<polygon class="st1" points="35.1,56.1 35.1,49.1 40.8,49.1 40.8,50 36,50 36,52 40.3,52 40.3,52.9 36,52.9 36.1,55.2 40.9,55.2    40.9,56.1   "></polygon>		<path class="st1" d="M48.3,52.7c0.5,0.3,0.8,0.8,0.8,1.5v1.9l-1,0l0-1.8c0-0.7-0.6-1.1-1.7-1.1l-2.5,0l0,2.9h-1l0-7l3.6,0   c1.8,0,2.7,0.6,2.7,1.9C49.2,51.8,48.9,52.3,48.3,52.7 M46.5,50l-2.6,0v2.3l2.5,0c0.5,0,1-0.1,1.3-0.3c0.4-0.2,0.5-0.5,0.5-0.9   C48.2,50.4,47.6,50,46.5,50z"></path>		<polygon class="st1" points="51.6,56.1 51.6,49.1 52.5,49.1 52.6,55.2 56.9,55.2 56.9,56.1   "></polygon>		<polygon class="st1" points="60.6,52.8 60.6,56.1 59.6,56.1 59.6,52.8 56,49.1 57.3,49.1 60.1,51.9 62.9,49.1 64.2,49.1   "></polygon>	</g></g></svg>