<svg id="Layer_1" data-name="Layer 1" xmlns="http://www.w3.org/2000/svg" viewBox="0 0 250 100"><defs><style>.cls-1,.cls-2{fill:#18407f;}.cls-1{fill-rule:evenodd;}.cls-3{fill:#13110e;}</style></defs><path class="cls-1" d="M167.24,33a.68.68,0,0,0,.67-.67V27.34a.67.67,0,0,0-.67-.66H150.51a.67.67,0,0,0-.67.66v4.94a.68.68,0,0,0,.67.67h4.41a.67.67,0,0,1,.67.67V59.44a.67.67,0,0,0,.68.68h5.21a.67.67,0,0,0,.68-.68V33.62a.68.68,0,0,1,.68-.67Z"/><path class="cls-1" d="M130.82,60.12a.67.67,0,0,0,.67-.68V27.36a.67.67,0,0,0-.67-.68h-4.92a.67.67,0,0,0-.67.68V41.62c0,.37-.11.4-.25.05L119,27.31a1.07,1.07,0,0,0-.92-.63h-4.65a.67.67,0,0,0-.67.68V59.45a.67.67,0,0,0,.67.67h4.91a.69.69,0,0,0,.68-.67V44.34c0-.38.1-.39.23-.05l6.16,15.19a1.05,1.05,0,0,0,.91.64Z"/><path class="cls-1" d="M100.12,46.6c0-.37.07-.45.45-.45h4.58a.69.69,0,0,0,.67-.69V40.64a.67.67,0,0,0-.67-.67h-4.58c-.38,0-.45-.09-.45-.45V33.39c0-.37.07-.44.45-.44h7.92a.63.63,0,0,0,.66-.62v-5a.68.68,0,0,0-.66-.68H94.2a.69.69,0,0,0-.68.68V59.44a.67.67,0,0,0,.68.68h14.29a.66.66,0,0,0,.66-.68v-5a.67.67,0,0,0-.66-.67h-7.92c-.38,0-.45-.08-.45-.46Z"/><path class="cls-1" d="M79.67,46.84c0-.38.1-.38.21,0l5,12.67a1,1,0,0,0,.89.64h5.37a.45.45,0,0,0,.46-.64L85.18,43.32a2.09,2.09,0,0,1,0-1.26l5.7-14.76a.43.43,0,0,0-.43-.62H85.11a1,1,0,0,0-.9.62L79.9,39.07c-.13.35-.23.34-.23,0V27.35a.68.68,0,0,0-.68-.67H74.06a.67.67,0,0,0-.67.67V59.44a.67.67,0,0,0,.67.68H79a.68.68,0,0,0,.68-.68Z"/><path class="cls-1" d="M213.65,46.84c0-.38.1-.38.22,0l4.95,12.67a1,1,0,0,0,.89.64h5.38a.44.44,0,0,0,.44-.64l-6.35-16.16a2.16,2.16,0,0,1,0-1.26l5.72-14.76a.43.43,0,0,0-.44-.62h-5.36a1.05,1.05,0,0,0-.92.62l-4.31,11.77c-.12.35-.23.34-.23,0V27.35a.67.67,0,0,0-.67-.67h-4.93a.68.68,0,0,0-.68.67V59.44a.68.68,0,0,0,.68.68H213a.67.67,0,0,0,.67-.68Z"/><path class="cls-1" d="M48.3,27.35a.68.68,0,0,0-.68-.67H42.69a.67.67,0,0,0-.66.67V59.44a.67.67,0,0,0,.66.68h4.93a.68.68,0,0,0,.68-.68Z"/><path class="cls-1" d="M144.6,40.89c-2-2-4-3.56-4-5.4A2.51,2.51,0,0,1,142.91,33h3.73a.68.68,0,0,0,.69-.68V27.35a.7.7,0,0,0-.69-.68H142c-5.11,0-7.95,3.57-7.89,8.62,0,4.08,2.42,6.89,5.76,10,1.9,1.73,3.45,3.17,3.45,5.5a2.76,2.76,0,0,1-2.93,3h-5.61a.69.69,0,0,0-.67.69v4.93a.69.69,0,0,0,.68.69h7.4c5.58.12,7.64-4.58,7.64-9.39,0-4.63-2.37-6.9-5.24-9.83"/><path class="cls-1" d="M36,42.76a.45.45,0,0,1-.19-.3c0-.18.22-.36.22-.36a6.59,6.59,0,0,0,1.9-4.85V33.38c-.06-4.72-1.65-6.7-6.86-6.7H22.13a.67.67,0,0,0-.68.68V59.43a.67.67,0,0,0,.68.68h9.39c4.9,0,6.8-3.49,6.8-8.39V49c0-3.26-.49-4.87-2.33-6.22M27.7,33.08c0-.38.07-.45.44-.45h1.55c1.41,0,2,1.06,2,3.8,0,3-.83,3.54-2,3.54H28.14c-.37,0-.44-.08-.44-.46Zm2.45,21.08h-2c-.38,0-.46-.08-.46-.45v-7.1c0-.38.08-.46.46-.46h2c1.53,0,1.92,1.33,2,3.86,0,3.37-.51,4.15-2,4.15"/><path class="cls-1" d="M70.63,59.48,65.24,46.27h.08l.51-.2c1.64-.84,3.32-2.63,3.32-6.07V33.78c0-5.94-3.48-7.11-7.77-7.11h-8.3a.69.69,0,0,0-.68.68V59.43a.68.68,0,0,0,.68.69H58a.68.68,0,0,0,.68-.69V46.84c0-.37.11-.37.23,0l5,12.67a1,1,0,0,0,.89.64h5.37a.45.45,0,0,0,.45-.64m-7.58-23c0,3.37-.51,4.16-1.95,4.16h-2c-.38,0-.47-.08-.47-.46V33.09c0-.37.09-.46.47-.46h2c1.52,0,1.92,1.33,1.95,3.85"/><path class="cls-2" d="M202,60.12c-9.73,0-10.94-7-10.94-16.78S192.25,26.68,202,26.68h2.2a.67.67,0,0,1,.7.64v5a.68.68,0,0,1-.68.68H202c-3.82,0-4.46,1.79-4.46,10.39S198.16,53.8,202,53.8h2.22a.69.69,0,0,1,.68.69v4.95a.68.68,0,0,1-.68.68Z"/><path class="cls-2" d="M178.52,26.67c9.73,0,10.39,6.89,10.39,16.66s-.66,16.79-10.39,16.79-10.39-7-10.39-16.79.66-16.66,10.39-16.66m0,27.18c3.82,0,3.91-1.87,3.91-10.52s-.09-10.72-3.91-10.72-3.91,2.12-3.91,10.72.08,10.52,3.91,10.52"/><path class="cls-2" d="M222.34,42.89a3.11,3.11,0,1,1,3.1,3.12,3.06,3.06,0,0,1-3.1-3.12m5.66,0a2.55,2.55,0,1,0-2.56,2.59A2.49,2.49,0,0,0,228,42.89m-3.64,1.72a.11.11,0,0,1-.12-.12V41.26a.11.11,0,0,1,.12-.11h1.3c.74,0,1.18.38,1.18,1a1,1,0,0,1-.68,1l.7,1.35c0,.06,0,.12-.06.12h-.46c-.07,0-.11,0-.14-.12l-.65-1.27h-.62c-.05,0-.07,0-.07.06v1.21a.11.11,0,0,1-.12.12Zm1.87-2.44c0-.3-.18-.47-.57-.47h-.73c-.05,0-.07,0-.07.06v.84s0,.06.07.06h.73c.39,0,.57-.18.57-.49"/><path class="cls-3" d="M31.53,66a.15.15,0,0,1,.13-.12h.39c.08,0,.11,0,.13.12l2.56,7.15c0,.07,0,.11-.07.11h-.43a.12.12,0,0,1-.14-.11l-.65-1.81H30.24l-.66,1.81c0,.09-.06.11-.13.11H29c-.07,0-.1,0-.08-.11Zm1.72,4.75-1.38-3.87h0l-1.4,3.87Z"/><path class="cls-3" d="M36.1,66a.1.1,0,0,1,.11-.1h2.31a2.18,2.18,0,0,1,2.35,1.49,6.39,6.39,0,0,1,.2,2.19,6.28,6.28,0,0,1-.2,2.19,2.18,2.18,0,0,1-2.35,1.51H36.21a.11.11,0,0,1-.11-.12Zm.69,6.69h1.64a1.7,1.7,0,0,0,1.85-1.12,6.07,6.07,0,0,0,.17-2,6.08,6.08,0,0,0-.17-2,1.7,1.7,0,0,0-1.85-1.12H36.79s-.07,0-.07.07v6.07c0,.05,0,.07.07.07"/><path class="cls-3" d="M42.83,66a.1.1,0,0,1,.1-.11h4.23a.1.1,0,0,1,.1.11v.37a.09.09,0,0,1-.1.1H43.51s-.06,0-.06.07v2.62s0,.07.06.07h3.13a.1.1,0,0,1,.11.11v.36a.1.1,0,0,1-.11.11H43.51a.06.06,0,0,0-.06.06v2.74c0,.05,0,.06.06.06h3.65a.1.1,0,0,1,.1.11v.37a.1.1,0,0,1-.1.11H42.93a.1.1,0,0,1-.1-.11Z"/><path class="cls-3" d="M51.53,66a.1.1,0,0,1,.11-.11H52a.1.1,0,0,1,.1.11v7.15a.1.1,0,0,1-.1.11h-.4a.1.1,0,0,1-.11-.11Z"/><path class="cls-3" d="M54.18,66a.1.1,0,0,1,.11-.11h.4a.17.17,0,0,1,.19.11L58.56,72h0V66a.1.1,0,0,1,.11-.11h.4a.1.1,0,0,1,.11.11v7.15a.1.1,0,0,1-.11.11h-.42a.21.21,0,0,1-.19-.11L54.85,67H54.8v6.07a.1.1,0,0,1-.11.11h-.4a.1.1,0,0,1-.11-.11Z"/><path class="cls-3" d="M63.6,69.53a7.11,7.11,0,0,1,.2-2.13,2.33,2.33,0,0,1,2.42-1.66,2.38,2.38,0,0,1,2.31,1.37.1.1,0,0,1,0,.14l-.35.17a.09.09,0,0,1-.13,0,1.89,1.89,0,0,0-1.8-1,1.74,1.74,0,0,0-1.8,1.24,6.64,6.64,0,0,0-.17,2,6.68,6.68,0,0,0,.17,2,1.93,1.93,0,0,0,3.6,0,4.21,4.21,0,0,0,.18-1.41.05.05,0,0,0-.06-.06H66.44a.1.1,0,0,1-.1-.11v-.36c0-.07,0-.11.1-.11h2.25a.1.1,0,0,1,.11.11V70a5.3,5.3,0,0,1-.2,1.64,2.3,2.3,0,0,1-2.38,1.67,2.34,2.34,0,0,1-2.42-1.66,7.1,7.1,0,0,1-.2-2.14"/><path class="cls-3" d="M70.52,66a.1.1,0,0,1,.11-.11h4.22A.1.1,0,0,1,75,66v.37a.1.1,0,0,1-.11.1H71.2s-.06,0-.06.07v2.62s0,.07.06.07h3.14a.1.1,0,0,1,.11.11v.36a.1.1,0,0,1-.11.11H71.2a.06.06,0,0,0-.06.06v2.74c0,.05,0,.06.06.06h3.65a.1.1,0,0,1,.11.11v.37a.1.1,0,0,1-.11.11H70.63a.1.1,0,0,1-.11-.11Z"/><path class="cls-3" d="M80.93,73.22c-.07,0-.1,0-.13-.1l-1.56-3.2h-2a.07.07,0,0,0-.07.07v3.13a.09.09,0,0,1-.1.1h-.41a.09.09,0,0,1-.1-.1V66a.1.1,0,0,1,.1-.1h2.48a2,2,0,0,1,2.24,2,1.88,1.88,0,0,1-1.5,2l1.6,3.26a.07.07,0,0,1,0,.12Zm-.17-5.33c0-.93-.59-1.45-1.63-1.45H77.24s-.07,0-.07.06v2.77a.06.06,0,0,0,.07.07h1.89c1,0,1.63-.52,1.63-1.45"/><path class="cls-3" d="M83.23,66a.1.1,0,0,1,.11-.11h.41a.15.15,0,0,1,.16.11l2.4,5.28h0L88.69,66a.16.16,0,0,1,.16-.11h.42a.1.1,0,0,1,.11.11v7.15a.1.1,0,0,1-.11.11h-.41c-.07,0-.1,0-.1-.11V67.34h0L86.6,72a.18.18,0,0,1-.2.12h-.21c-.11,0-.14,0-.19-.12l-2.12-4.68h0v5.77a.1.1,0,0,1-.1.11h-.4a.1.1,0,0,1-.11-.11Z"/><path class="cls-3" d="M93.31,66a.15.15,0,0,1,.14-.12h.39c.07,0,.11,0,.13.12l2.56,7.15c0,.07,0,.11-.08.11H96c-.08,0-.12,0-.14-.11l-.65-1.81H92l-.66,1.81c0,.09-.08.11-.13.11h-.43c-.07,0-.1,0-.08-.11ZM95,70.71l-1.37-3.87h0l-1.39,3.87Z"/><path class="cls-3" d="M97.88,66a.1.1,0,0,1,.11-.11h.4a.18.18,0,0,1,.19.11L102.25,72h0V66a.1.1,0,0,1,.11-.11h.4a.1.1,0,0,1,.1.11v7.15a.1.1,0,0,1-.1.11h-.42a.2.2,0,0,1-.19-.11L98.55,67h0v6.07a.1.1,0,0,1-.11.11H98a.1.1,0,0,1-.11-.11Z"/><path class="cls-3" d="M106.52,73.22a.1.1,0,0,1-.11-.11V70.19L104.2,66a.08.08,0,0,1,.08-.11h.43c.09,0,.11,0,.16.11l1.85,3.52h0L108.58,66c0-.09.07-.11.16-.11h.41c.09,0,.11.06.09.11L107,70.19v2.92c0,.07,0,.11-.1.11Z"/><path class="cls-3" d="M113.48,69.88a.85.85,0,1,1,.85.87.83.83,0,0,1-.85-.87"/><path class="cls-3" d="M122,73.22a.11.11,0,0,1-.11-.11V66.5s0-.07-.06-.07h-2.13a.1.1,0,0,1-.1-.11V66a.1.1,0,0,1,.1-.11h5a.1.1,0,0,1,.11.11v.36a.1.1,0,0,1-.11.11h-2.12a.06.06,0,0,0-.07.07v6.61a.1.1,0,0,1-.11.11Z"/><path class="cls-3" d="M130.39,73.22c-.07,0-.1,0-.13-.1l-1.55-3.2h-2a.07.07,0,0,0-.07.07v3.12a.1.1,0,0,1-.1.11h-.4a.1.1,0,0,1-.11-.11V66a.1.1,0,0,1,.11-.11h2.47a2,2,0,0,1,2.24,2,1.88,1.88,0,0,1-1.51,2l1.61,3.26c0,.07,0,.12-.05.12Zm-.16-5.34c0-.92-.59-1.45-1.65-1.45H126.7a.06.06,0,0,0-.07.07v2.77a.06.06,0,0,0,.07.07h1.88c1.06,0,1.65-.52,1.65-1.46"/><path class="cls-3" d="M134.59,66c0-.07.06-.12.12-.12h.39c.08,0,.11,0,.13.12l2.56,7.15a.08.08,0,0,1-.08.11h-.42c-.08,0-.12,0-.14-.11l-.65-1.81h-3.21l-.65,1.81c0,.09-.07.11-.14.11h-.43a.08.08,0,0,1-.07-.11Zm1.7,4.75-1.37-3.87h0l-1.38,3.87Z"/><path class="cls-3" d="M139.14,66a.1.1,0,0,1,.11-.11h2.31a2.18,2.18,0,0,1,2.35,1.49,6.52,6.52,0,0,1,.21,2.19,6.48,6.48,0,0,1-.21,2.19,2.2,2.2,0,0,1-2.35,1.5h-2.31a.11.11,0,0,1-.11-.11Zm.69,6.67h1.65a1.69,1.69,0,0,0,1.84-1.11,6.44,6.44,0,0,0,.17-2,6.35,6.35,0,0,0-.17-2,1.69,1.69,0,0,0-1.84-1.12h-1.65s-.06,0-.06.07v6.07a.05.05,0,0,0,.06.06"/><path class="cls-3" d="M145.87,66c0-.08,0-.11.1-.11h.41c.06,0,.1,0,.1.11v7.15a.1.1,0,0,1-.1.11H146a.1.1,0,0,1-.1-.11Z"/><path class="cls-3" d="M150.15,73.22a.1.1,0,0,1-.11-.11V66.5a.06.06,0,0,0-.07-.07h-2.12a.1.1,0,0,1-.11-.11V66a.1.1,0,0,1,.11-.11h5A.1.1,0,0,1,153,66v.36a.1.1,0,0,1-.11.11h-2.12c-.05,0-.06,0-.06.07v6.61a.12.12,0,0,1-.11.11Z"/><path class="cls-3" d="M154.21,66a.1.1,0,0,1,.11-.11h.4a.1.1,0,0,1,.11.11v7.15a.11.11,0,0,1-.11.11h-.4a.1.1,0,0,1-.11-.11Z"/><path class="cls-3" d="M156.77,71.67a6.45,6.45,0,0,1-.22-2.14,6.37,6.37,0,0,1,.22-2.13,2.54,2.54,0,0,1,4.76,0,6.48,6.48,0,0,1,.21,2.13,6.56,6.56,0,0,1-.21,2.14,2.54,2.54,0,0,1-4.76,0m4.16-4.1a1.9,1.9,0,0,0-3.57,0,6.33,6.33,0,0,0-.18,2,6.37,6.37,0,0,0,.18,2,1.9,1.9,0,0,0,3.57,0,6.37,6.37,0,0,0,.18-2,6.33,6.33,0,0,0-.18-2"/><path class="cls-3" d="M163.47,66a.1.1,0,0,1,.11-.11h.4a.16.16,0,0,1,.18.11L167.84,72h0V66a.1.1,0,0,1,.11-.11h.4a.1.1,0,0,1,.11.11v7.15a.1.1,0,0,1-.11.11H168a.2.2,0,0,1-.18-.11L164.13,67h0v6.07a.1.1,0,0,1-.11.11h-.4a.1.1,0,0,1-.11-.11Z"/><path class="cls-3" d="M172.88,72.47s-.06-.11,0-.15l.27-.33a.09.09,0,0,1,.15,0,3.61,3.61,0,0,0,2.11.75c1.18,0,1.91-.59,1.91-1.51,0-.72-.41-1.25-1.77-1.42l-.33,0c-1.44-.18-2.13-.88-2.13-2a2.06,2.06,0,0,1,2.32-2.07,3.74,3.74,0,0,1,2.11.62c.06,0,.06.09,0,.15l-.22.34a.11.11,0,0,1-.15,0,3.34,3.34,0,0,0-1.79-.54c-1.05,0-1.67.58-1.67,1.43s.48,1.24,1.74,1.4l.34,0c1.48.21,2.15.89,2.15,2,0,1.25-.89,2.14-2.6,2.14a4,4,0,0,1-2.44-.86"/><path class="cls-3" d="M179.66,66c0-.08,0-.11.1-.11h.41c.06,0,.1,0,.1.11v7.15a.1.1,0,0,1-.1.11h-.41a.1.1,0,0,1-.1-.11Z"/><path class="cls-3" d="M182.31,66a.1.1,0,0,1,.11-.11h.4A.16.16,0,0,1,183,66L186.68,72h0V66a.1.1,0,0,1,.11-.11h.4a.1.1,0,0,1,.11.11v7.15a.11.11,0,0,1-.11.11h-.42a.22.22,0,0,1-.19-.11L183,67h0v6.07a.1.1,0,0,1-.11.11h-.4a.1.1,0,0,1-.11-.11Z"/><path class="cls-3" d="M189.06,69.53a7,7,0,0,1,.19-2.15,2.25,2.25,0,0,1,2.33-1.64,2.33,2.33,0,0,1,2.23,1.36.1.1,0,0,1,0,.14l-.36.17s-.1,0-.14,0a1.79,1.79,0,0,0-1.69-1.06,1.66,1.66,0,0,0-1.73,1.23,6.22,6.22,0,0,0-.16,2,6.35,6.35,0,0,0,.16,2,1.67,1.67,0,0,0,1.73,1.22,1.8,1.8,0,0,0,1.69-1s.09-.08.14,0l.36.18a.1.1,0,0,1,0,.14,2.33,2.33,0,0,1-2.23,1.37,2.25,2.25,0,0,1-2.33-1.65,7,7,0,0,1-.19-2.15"/><path class="cls-3" d="M195.4,66a.1.1,0,0,1,.11-.11h4.21a.1.1,0,0,1,.11.11v.36a.1.1,0,0,1-.11.11h-3.64a.06.06,0,0,0-.07.07v2.62a.07.07,0,0,0,.07.07h3.13a.1.1,0,0,1,.11.1v.37a.1.1,0,0,1-.11.11h-3.13a.07.07,0,0,0-.07.06v2.74a.07.07,0,0,0,.07.06h3.64a.1.1,0,0,1,.11.11v.37a.1.1,0,0,1-.11.11h-4.21a.1.1,0,0,1-.11-.11Z"/><path class="cls-3" d="M205.86,66.64h0l-1.33.94a.07.07,0,0,1-.12-.06v-.46a.18.18,0,0,1,.08-.16l1.37-1a.19.19,0,0,1,.16-.06h.34a.1.1,0,0,1,.11.11v7.15a.1.1,0,0,1-.11.11H206a.1.1,0,0,1-.1-.11Z"/><path class="cls-3" d="M213.18,66.44v0H210.5a.05.05,0,0,0-.06.06v1a.1.1,0,0,1-.11.11H210a.1.1,0,0,1-.11-.11V66a.11.11,0,0,1,.11-.12h3.73c.06,0,.1,0,.1.12v.4a.52.52,0,0,1,0,.11l-2.64,6.66a.12.12,0,0,1-.14.09h-.4c-.07,0-.1,0-.06-.12Z"/><path class="cls-3" d="M219,66.44v0h-2.67c-.05,0-.07,0-.07.06v1a.1.1,0,0,1-.11.11h-.36a.1.1,0,0,1-.11-.11V66a.11.11,0,0,1,.11-.12h3.73c.06,0,.1,0,.1.12v.4a.52.52,0,0,1,0,.11l-2.65,6.66c0,.07-.05.09-.14.09h-.39c-.07,0-.09,0-.06-.12Z"/><path class="cls-3" d="M221,71.63v-.32a.43.43,0,0,1,0-.12l2.4-5.26a.13.13,0,0,1,.14-.08h.4c.08,0,.1,0,.08.09l-2.37,5.23h2.27s.06,0,.06-.07v-2a.11.11,0,0,1,.12-.11h.36a.1.1,0,0,1,.11.11v2a.06.06,0,0,0,.07.07h.81a.1.1,0,0,1,.11.11v.34a.1.1,0,0,1-.11.11h-.81c-.05,0-.07,0-.07.07v1.3a.1.1,0,0,1-.11.1h-.36c-.07,0-.12,0-.12-.1v-1.3s0-.07-.06-.07H221.1a.1.1,0,0,1-.11-.11"/><path class="cls-3" d="M21.44,66a.1.1,0,0,1,.11-.11H22a.16.16,0,0,1,.17.11l2.39,5.28h.05L26.91,66a.15.15,0,0,1,.15-.11h.43a.1.1,0,0,1,.1.11v7.15a.1.1,0,0,1-.1.11h-.4a.1.1,0,0,1-.11-.11V67.34h0L24.82,72a.19.19,0,0,1-.2.12h-.21a.18.18,0,0,1-.19-.12L22.1,67.34h0v5.77a.1.1,0,0,1-.11.11h-.4a.1.1,0,0,1-.11-.11Z"/></svg>