<svg id="Layer_1" data-name="Layer 1" xmlns="http://www.w3.org/2000/svg" viewBox="0 0 250 100"><defs><style>.cls-1{fill:#010101;}</style></defs><rect class="cls-1" x="130.51" y="42.94" width="2.5" height="13.9"/><polygon class="cls-1" points="143.68 45.09 143.68 56.85 141.18 56.85 141.18 45.09 137.79 45.09 137.79 42.95 147.09 42.95 147.09 45.09 143.68 45.09"/><path class="cls-1" d="M77.21,56.55a6,6,0,0,1-2.53.53A6,6,0,0,1,72,56.53,5,5,0,0,1,70.13,55a6.29,6.29,0,0,1-1.07-2.29,11.37,11.37,0,0,1-.34-2.88,10.6,10.6,0,0,1,.35-2.74,6.74,6.74,0,0,1,1.09-2.27A5.19,5.19,0,0,1,72,43.29a5.93,5.93,0,0,1,2.69-.58,5.56,5.56,0,0,1,2.43.51,8,8,0,0,1,2.12,1.61l-1.59,1.59a6.54,6.54,0,0,0-.63-.65,3.89,3.89,0,0,0-.68-.51A2.71,2.71,0,0,0,75.6,45a3.24,3.24,0,0,0-.85-.11,3.13,3.13,0,0,0-1.5.34,2.89,2.89,0,0,0-1.07,1,4.76,4.76,0,0,0-.65,1.58,9.6,9.6,0,0,0-.21,2.11,10.49,10.49,0,0,0,.17,1.87,5.15,5.15,0,0,0,.56,1.63,3.15,3.15,0,0,0,1.06,1.17,2.9,2.9,0,0,0,1.64.44,3.36,3.36,0,0,0,1.69-.42,5.13,5.13,0,0,0,1.42-1.13l1.52,1.52a7.08,7.08,0,0,1-2.17,1.61"/><polygon class="cls-1" points="99.16 56.85 99.16 42.95 101.67 42.95 101.67 54.72 106.66 54.72 106.66 56.85 99.16 56.85"/><polygon class="cls-1" points="111.42 56.85 111.42 42.95 113.92 42.95 113.92 54.72 118.91 54.72 118.91 56.85 111.42 56.85"/><path class="cls-1" d="M92,56.85h2.7L90,42.9H87.08l-4.56,14h2.62l.92-3.17h5ZM86.67,51.6l1.85-6.33h.07l1.85,6.33Z"/><path class="cls-1" d="M166.47,52.85a4.74,4.74,0,0,1-.35,1.9,3.47,3.47,0,0,1-1,1.3,3.93,3.93,0,0,1-1.48.76,7.27,7.27,0,0,1-1.85.23,8.43,8.43,0,0,1-2.49-.33,8.26,8.26,0,0,1-2.52-1.29l1.58-1.59a8.25,8.25,0,0,0,1.37.78,4.5,4.5,0,0,0,1.93.42,4,4,0,0,0,.86-.1,2.16,2.16,0,0,0,.74-.32,1.59,1.59,0,0,0,.53-.59,2,2,0,0,0,.19-.92,1.65,1.65,0,0,0-.2-.85,2.21,2.21,0,0,0-.55-.64,4.68,4.68,0,0,0-.8-.47q-.45-.21-1-.39c-.46-.18-.92-.37-1.39-.58a5.62,5.62,0,0,1-1.27-.78,3.78,3.78,0,0,1-.93-1.16,3.67,3.67,0,0,1-.36-1.71,3.59,3.59,0,0,1,.37-1.7,3.2,3.2,0,0,1,1-1.17,4.13,4.13,0,0,1,1.42-.67,5.88,5.88,0,0,1,1.63-.22,7.17,7.17,0,0,1,2.11.3,6,6,0,0,1,2.28,1.14l-1.5,1.5a5.38,5.38,0,0,0-1.06-.55,4.07,4.07,0,0,0-1.64-.31,4.3,4.3,0,0,0-.82.08,2,2,0,0,0-.67.26,1.41,1.41,0,0,0-.47.5,1.54,1.54,0,0,0-.17.75,1.18,1.18,0,0,0,.22.72,2.29,2.29,0,0,0,.6.55,4.93,4.93,0,0,0,.86.44l1,.4a14.26,14.26,0,0,1,1.34.58,4.89,4.89,0,0,1,1.22.81,3.66,3.66,0,0,1,.88,1.19,3.92,3.92,0,0,1,.34,1.73"/><path class="cls-1" d="M178.7,47.29a4.34,4.34,0,0,0-.13-1.17,1.67,1.67,0,0,0-.43-.76,1.64,1.64,0,0,0-.78-.42,4.73,4.73,0,0,0-1.17-.13H174.3v5h1.94a5.7,5.7,0,0,0,1.07-.09,1.5,1.5,0,0,0,.77-.37,1.59,1.59,0,0,0,.47-.75,4.53,4.53,0,0,0,.15-1.28m2.55,0a4.74,4.74,0,0,1-1.1,3.36,4.5,4.5,0,0,1-3.48,1.18H174.3v5.06h-2.51v-14h4.32a10.08,10.08,0,0,1,2,.17,4.26,4.26,0,0,1,1.63.73,3.34,3.34,0,0,1,1.07,1.37,5.08,5.08,0,0,1,.39,2.12"/><path class="cls-1" d="M193.08,47.09a2.21,2.21,0,0,0-.62-1.76,3,3,0,0,0-1.9-.53h-1.87v4.53h2.09a4.07,4.07,0,0,0,1-.11,1.64,1.64,0,0,0,.72-.37,1.63,1.63,0,0,0,.45-.69,3.24,3.24,0,0,0,.15-1.07m.17,9.76L191.55,52a1.37,1.37,0,0,0-.25-.49.68.68,0,0,0-.5-.15h-2.11v5.52h-2.5v-14h4.35a8.36,8.36,0,0,1,2,.16,4.56,4.56,0,0,1,1.62.69,3.31,3.31,0,0,1,1.1,1.27,4.34,4.34,0,0,1,.4,2,4.47,4.47,0,0,1-.53,2.3,3.45,3.45,0,0,1-1.67,1.38v0a.59.59,0,0,1,.3.32c.08.17.15.33.2.47l2,5.39Z"/><rect class="cls-1" x="201.6" y="42.95" width="2.5" height="13.89"/><polygon class="cls-1" points="218.42 42.95 218.42 52.17 218.39 52.17 212.56 42.95 210.12 42.95 210.12 56.85 212.51 56.85 212.51 47.54 212.56 47.54 218.42 56.85 220.82 56.85 220.82 42.95 218.42 42.95"/><path class="cls-1" d="M236.81,53.25a5.54,5.54,0,0,1-.88,2,4.19,4.19,0,0,1-1.62,1.34,5.89,5.89,0,0,1-2.48.48,5.76,5.76,0,0,1-2.6-.56A5.11,5.11,0,0,1,227.39,55a6.79,6.79,0,0,1-1.12-2.27,10.57,10.57,0,0,1-.37-2.82,10.28,10.28,0,0,1,.38-2.82,7,7,0,0,1,1.13-2.28,5.49,5.49,0,0,1,1.87-1.54,5.83,5.83,0,0,1,2.61-.56,5.69,5.69,0,0,1,1.35.15,5.48,5.48,0,0,1,1.16.4,6.21,6.21,0,0,1,1,.6,9,9,0,0,1,1,.8l-1.57,1.57a5.82,5.82,0,0,0-.62-.54,3.76,3.76,0,0,0-.68-.47,3.58,3.58,0,0,0-.73-.29,3.47,3.47,0,0,0-.81-.09,2.92,2.92,0,0,0-1.68.44,3.17,3.17,0,0,0-1,1.16,5.14,5.14,0,0,0-.55,1.63,10.09,10.09,0,0,0-.16,1.82,12.79,12.79,0,0,0,.13,1.85,5.63,5.63,0,0,0,.52,1.67,3.26,3.26,0,0,0,1,1.2,2.87,2.87,0,0,0,1.7.47,2.94,2.94,0,0,0,1.39-.3,2.26,2.26,0,0,0,.88-.8,3.38,3.38,0,0,0,.46-1.2,8.55,8.55,0,0,0,.13-1.47h-2.82V49.25h5.14v1.44a12.13,12.13,0,0,1-.26,2.56"/><path class="cls-1" d="M35.9,27l-23,23,23,23,23-23Zm0,3.25,10,10L37.5,48.7l-2.45-2.42.93-.93a3.65,3.65,0,1,0-5.15,0l1,.94L22.13,56l-5.95-6Zm1.61,21.66,2,2a2.86,2.86,0,0,1-2,4.88,2.86,2.86,0,0,1-2-4.88Zm-3.15-8.22-1,1-1-1a1.35,1.35,0,0,1,.95-2.3,1.35,1.35,0,0,1,1,2.3M23.75,57.58l9.67-9.67,2.46,2.42-2,2a5.15,5.15,0,1,0,7.28,7.29,5.17,5.17,0,0,0,0-7.3l-2-2,8.4-8.4L55.62,50,35.9,69.72Z"/></svg>