<svg xmlns="http://www.w3.org/2000/svg" xmlns:xlink="http://www.w3.org/1999/xlink" id="Layer_1" x="0px" y="0px" viewBox="0 0 250 100" style="enable-background:new 0 0 250 100;" xml:space="preserve"><style type="text/css">	.st0{clip-path:url(#SVGID_00000169544168422965959200000006042957354867100348_);}	.st1{fill:#010101;}	.st2{fill-rule:evenodd;clip-rule:evenodd;fill:#010101;}</style><g>	<defs>		<rect id="SVGID_1_" y="2.2" width="250" height="95.7"></rect>	</defs>	<clipPath id="SVGID_00000170240825023270177970000005366651405887723168_">		<use xlink:href="#SVGID_1_" style="overflow:visible;"></use>	</clipPath>	<g style="clip-path:url(#SVGID_00000170240825023270177970000005366651405887723168_);">		<path class="st1" d="M57.5,39v-0.1c0-12.5,9.4-22.7,22.9-22.7c8.3,0,13.2,2.8,17.3,6.8l-6.1,7c-3.4-3.1-6.8-5-11.2-5   c-7.4,0-12.7,6.1-12.7,13.7v0.1c0,7.5,5.2,13.8,12.7,13.8c5,0,8.1-2,11.5-5.1l6.2,6.2c-4.5,4.8-9.5,7.8-18,7.8   C67.8,61.8,57.7,52,57.5,39.8C57.5,39.5,57.5,39.3,57.5,39"></path>		<path class="st1" d="M104.8,39v-0.1c0-12.5,9.4-22.7,22.9-22.7c8.3,0,13.2,2.8,17.3,6.8l-6.1,7c-3.4-3.1-6.8-5-11.2-5   c-7.4,0-12.7,6.1-12.7,13.7v0.1c0,7.5,5.2,13.8,12.7,13.8c5,0,8.1-2,11.5-5.1l6.1,6.2c-4.5,4.8-9.5,7.8-18,7.8   c-12.2,0.2-22.3-9.6-22.5-21.8C104.8,39.5,104.8,39.2,104.8,39"></path>		<path class="st1" d="M152.1,39v-0.1c0-12.5,9.4-22.7,22.9-22.7c8.3,0,13.2,2.8,17.3,6.8l-6.1,7c-3.4-3.1-6.8-5-11.2-5   c-7.4,0-12.7,6.1-12.7,13.7v0.1c0,7.5,5.2,13.8,12.7,13.8c5,0,8.1-2,11.5-5.1l6.1,6.2c-4.5,4.8-9.5,7.8-18,7.8   c-12.2,0.2-22.3-9.6-22.5-21.8C152.1,39.5,152.1,39.2,152.1,39"></path>		<path class="st2" d="M66.3,75.4c-0.4-0.3-0.8-0.6-1.3-0.8c-0.5-0.2-0.9-0.3-1.4-0.3c-0.4,0-0.8,0.1-1.2,0.2   c-0.3,0.1-0.6,0.3-0.9,0.6c-0.3,0.2-0.5,0.5-0.6,0.9c-0.2,0.3-0.2,0.7-0.2,1.1c0,0.4,0.1,0.7,0.2,1.1c0.2,0.3,0.4,0.6,0.7,0.8   c0.4,0.3,0.9,0.5,1.3,0.7c0.3,0.1,0.6,0.2,0.8,0.3c0.1,0.1,0.3,0.1,0.4,0.2c0.2,0.1,0.3,0.3,0.4,0.4c0.1,0.2,0.1,0.3,0.1,0.5   c0,0.2-0.1,0.5-0.2,0.7c-0.1,0.2-0.3,0.3-0.5,0.4c-0.2,0.1-0.5,0.2-0.7,0.2c-0.4,0-0.8-0.1-1.1-0.3c-0.4-0.2-0.6-0.5-0.8-0.9   l-1.2,1.1c0.3,0.5,0.8,1,1.4,1.3c0.5,0.3,1.2,0.4,1.8,0.4c0.4,0,0.9-0.1,1.3-0.2c0.4-0.1,0.7-0.3,1-0.6c0.3-0.3,0.5-0.6,0.7-1   c0.2-0.4,0.2-0.8,0.2-1.2c0-0.4-0.1-0.7-0.2-1.1c-0.1-0.3-0.4-0.6-0.6-0.8c-0.1-0.1-0.2-0.2-0.3-0.2c-0.1-0.1-0.2-0.2-0.4-0.2   l-0.5-0.2L64,78.1c-0.3-0.1-0.6-0.2-0.8-0.4c-0.2-0.1-0.3-0.2-0.4-0.3c-0.1-0.1-0.1-0.3-0.1-0.4c0-0.2,0.1-0.4,0.2-0.5   c0.1-0.2,0.3-0.3,0.5-0.4c0.2-0.1,0.4-0.1,0.7-0.1c0.2,0,0.4,0,0.5,0.1c0.2,0.1,0.3,0.1,0.5,0.2c0.2,0.1,0.3,0.3,0.5,0.4   L66.3,75.4z M74.2,78.1v-3.6h-1.8v9.2h1.8v-4.1H78v4.1h1.8v-9.2H78v3.6L74.2,78.1z M90.5,74.3c-0.5,0-1.1,0.1-1.6,0.2   c-0.5,0.2-0.9,0.4-1.4,0.7c-0.4,0.3-0.8,0.6-1.1,1c-0.3,0.4-0.5,0.8-0.7,1.3c-0.2,0.5-0.3,1-0.2,1.5c0,0.7,0.1,1.3,0.4,1.9   c0.2,0.6,0.6,1.1,1,1.6c0.4,0.4,1,0.8,1.6,1c0.6,0.2,1.3,0.4,1.9,0.4c0.5,0,1.1,0,1.6-0.2c0.5-0.1,1-0.4,1.4-0.7   c0.4-0.3,0.8-0.6,1.1-1c0.3-0.4,0.5-0.8,0.7-1.3c0.2-0.5,0.3-1,0.3-1.5c0-0.5-0.1-1-0.2-1.5c-0.2-0.5-0.4-0.9-0.7-1.3   c-0.3-0.4-0.6-0.7-1-1c-0.4-0.3-0.9-0.5-1.3-0.7C91.6,74.5,91.1,74.4,90.5,74.3 M90.5,76c0.4,0,0.8,0.1,1.2,0.2   c0.4,0.2,0.7,0.4,1,0.7c0.3,0.3,0.5,0.6,0.7,1c0.2,0.4,0.2,0.8,0.2,1.2c0,0.4-0.1,0.8-0.2,1.2c-0.1,0.4-0.4,0.7-0.7,1   c-0.3,0.3-0.6,0.5-1,0.7c-0.4,0.2-0.8,0.3-1.2,0.2c-0.4,0-0.8-0.1-1.2-0.2c-0.4-0.2-0.7-0.4-1-0.7c-0.3-0.3-0.5-0.6-0.7-1   c-0.2-0.4-0.2-0.8-0.2-1.3c0-0.8,0.3-1.6,0.9-2.2c0.3-0.3,0.6-0.5,1-0.7C89.7,76.1,90.1,76,90.5,76 M106.3,76.1v-1.6h-5.1v9.2h5.1   v-1.6H103v-2.5h3.2v-1.6H103v-2.1L106.3,76.1z M117.6,75.4c-0.4-0.3-0.8-0.6-1.3-0.8c-0.5-0.2-1-0.3-1.4-0.3   c-0.4,0-0.8,0.1-1.2,0.2c-0.3,0.1-0.6,0.3-0.9,0.6c-0.3,0.2-0.5,0.5-0.6,0.8c-0.2,0.3-0.2,0.7-0.2,1.1c0,0.4,0.1,0.7,0.2,1.1   c0.2,0.3,0.4,0.6,0.7,0.8c0.4,0.3,0.9,0.5,1.3,0.7l0.8,0.3l0.4,0.2c0.2,0.1,0.3,0.3,0.4,0.4c0.1,0.2,0.1,0.3,0.1,0.5   c0,0.2-0.1,0.5-0.2,0.7c-0.1,0.2-0.3,0.3-0.5,0.4c-0.2,0.1-0.5,0.2-0.7,0.2c-0.4,0-0.8-0.1-1.1-0.3c-0.3-0.2-0.6-0.5-0.8-0.9   l-1.2,1.1c0.3,0.5,0.8,1,1.4,1.3c0.5,0.3,1.2,0.4,1.8,0.4c0.4,0,0.9-0.1,1.3-0.2c0.4-0.1,0.7-0.3,1-0.6c0.3-0.3,0.5-0.6,0.7-1   c0.2-0.4,0.2-0.8,0.2-1.2c0-0.4-0.1-0.8-0.2-1.1c-0.1-0.3-0.3-0.6-0.6-0.8c-0.1-0.1-0.2-0.2-0.3-0.2c-0.1-0.1-0.2-0.2-0.4-0.2   l-0.5-0.2c-0.2-0.1-0.4-0.2-0.7-0.2c-0.3-0.1-0.6-0.2-0.8-0.4c-0.2-0.1-0.3-0.2-0.4-0.3c-0.1-0.1-0.1-0.3-0.1-0.4   c0-0.2,0.1-0.4,0.2-0.5c0.1-0.2,0.3-0.3,0.5-0.4c0.2-0.1,0.4-0.1,0.7-0.1c0.2,0,0.4,0,0.5,0.1c0.2,0,0.3,0.1,0.5,0.2   c0.2,0.1,0.3,0.3,0.5,0.4L117.6,75.4z M130,84c0.4,0,0.7,0,1.1-0.1c0.3-0.1,0.6-0.2,0.9-0.3c0.2-0.1,0.5-0.2,0.7-0.4   c0.2-0.1,0.4-0.3,0.5-0.4l0.3-0.3l0.8,0.6c0.2,0.1,0.4,0.3,0.6,0.4c0.2,0.1,0.3,0.2,0.5,0.2c0.2,0,0.3,0.1,0.5,0.1   c0.2,0,0.4,0,0.5,0h1.4c0.1,0,0.1,0,0.2,0c0,0,0.1,0,0.1-0.1c0,0,0-0.1-0.1-0.1c0,0-0.1,0-0.1,0c-0.2,0-0.4,0-0.6-0.1   c-0.2-0.1-0.4-0.1-0.6-0.2c-0.2-0.1-0.4-0.2-0.5-0.2l-0.5-0.3c-0.2-0.1-0.4-0.3-0.6-0.4c-0.2-0.2-0.5-0.4-0.8-0.6   c0.2-0.2,0.3-0.4,0.5-0.7c0.2-0.3,0.3-0.5,0.4-0.8c0.1-0.3,0.2-0.6,0.3-0.9c0.1-0.3,0.1-0.6,0.1-0.9c0-0.1,0-0.1-0.1-0.2   c-0.1-0.1-0.1-0.1-0.2-0.1l-1-0.1c-0.3,0-0.5,0-0.7,0h-0.1c0,0-0.1,0-0.1,0.1c0,0,0,0,0,0.1c0,0,0.1,0,0.1,0h0.2l0.2,0.1   c0.1,0,0.1,0.1,0.2,0.1c0.1,0.1,0.2,0.2,0.2,0.3c0,0.1,0.1,0.2,0.1,0.3c0,0.3,0,0.6-0.1,0.8c-0.1,0.3-0.1,0.5-0.2,0.8   c-0.1,0.2-0.2,0.4-0.4,0.6l-0.4-0.3l-0.6-0.5l-0.6-0.6l-0.6-0.6c-0.2-0.2-0.3-0.3-0.4-0.4c-0.4-0.4-0.7-0.8-0.9-1.1   c-0.2-0.3-0.5-0.6-0.7-0.9c-0.2-0.2-0.3-0.5-0.4-0.8c-0.2-0.5-0.2-1.1,0-1.6c0.1-0.2,0.2-0.4,0.4-0.6c0.2-0.1,0.4-0.2,0.6-0.3   c0.2-0.1,0.4-0.1,0.6-0.1c0.2,0,0.4,0,0.6,0.1c0.2,0.1,0.3,0.1,0.5,0.2c0.1,0.1,0.2,0.2,0.4,0.3c0.1,0.1,0.2,0.3,0.3,0.4   c0.1,0.1,0.1,0.3,0.1,0.4c0,0.1,0,0.3,0,0.4c0,0.1,0,0.1,0,0.2c0,0,0,0,0.1,0s0.1,0,0.1,0c0-0.1,0-0.1,0.1-0.2c0-0.1,0-0.2,0-0.3   c0-0.1,0-0.3,0-0.4s0-0.3,0-0.5s0-0.3,0-0.4c0-0.1,0-0.1,0-0.2c0-0.1-0.1-0.1-0.1-0.1c-0.2-0.1-0.5-0.2-0.7-0.2   c-0.3-0.1-0.7-0.1-1-0.1c-0.3,0-0.7,0.1-1,0.2c-0.3,0.1-0.6,0.2-0.8,0.4c-0.2,0.2-0.4,0.4-0.6,0.6c-0.2,0.2-0.3,0.4-0.4,0.7   c-0.1,0.2-0.1,0.5-0.1,0.7c0,0.2,0,0.4,0.1,0.6c0,0.2,0.1,0.4,0.2,0.6c0.1,0.2,0.2,0.5,0.4,0.7c-0.3,0.2-0.5,0.3-0.8,0.6   c-0.2,0.2-0.5,0.5-0.7,0.7c-0.2,0.3-0.4,0.6-0.5,0.9c-0.1,0.4-0.2,0.7-0.2,1.1c0,0.3,0,0.5,0.1,0.8c0.1,0.3,0.2,0.6,0.4,0.8   c0.2,0.3,0.4,0.5,0.7,0.7c0.3,0.2,0.6,0.4,1,0.5C129,83.9,129.5,84,130,84 M130.5,83.3c-0.4,0-0.7-0.1-1.1-0.2   c-0.3-0.1-0.6-0.4-0.9-0.6c-0.3-0.3-0.5-0.6-0.6-0.9c-0.1-0.4-0.2-0.8-0.2-1.2c0-0.3,0-0.7,0.2-1c0.1-0.3,0.2-0.5,0.4-0.8   c0.2-0.2,0.4-0.4,0.7-0.5l0.4,0.5l0.5,0.5l0.4,0.5l0.4,0.4l0.3,0.3l0.5,0.5c0.2,0.2,0.4,0.4,0.6,0.6l0.6,0.5l0.5,0.4   c-0.2,0.2-0.4,0.3-0.6,0.5c-0.3,0.2-0.6,0.3-0.9,0.4C131.3,83.2,130.9,83.3,130.5,83.3 M145.4,83.8h2.1c0.3,0,0.6,0,0.8,0   c0.2,0,0.4-0.1,0.6-0.1c0.2-0.1,0.4-0.1,0.5-0.2c0.2-0.1,0.3-0.2,0.4-0.3c0.3-0.2,0.5-0.5,0.7-0.9c0.2-0.3,0.2-0.7,0.2-1.1   c0-0.3-0.1-0.7-0.2-1c-0.1-0.3-0.3-0.6-0.6-0.8c-0.2-0.2-0.5-0.4-0.8-0.5c0.2-0.2,0.4-0.5,0.6-0.8c0.1-0.3,0.2-0.6,0.2-0.9   c0-0.3,0-0.6-0.1-0.8c-0.1-0.3-0.2-0.5-0.4-0.7c-0.2-0.2-0.3-0.4-0.6-0.6c-0.2-0.1-0.3-0.2-0.5-0.3c-0.2-0.1-0.5-0.1-0.7-0.2   c-0.3,0-0.7,0-1,0h-1.4L145.4,83.8z M146.7,78.5v-2.7h0.5c0.2,0,0.4,0,0.6,0.1c0.2,0,0.3,0.1,0.4,0.2c0.1,0.1,0.2,0.3,0.3,0.4   c0.1,0.2,0.1,0.4,0.1,0.6c0,0.1,0,0.3,0,0.4c0,0.1-0.1,0.2-0.1,0.4c-0.1,0.1-0.1,0.2-0.2,0.3c-0.1,0.1-0.3,0.2-0.4,0.2   c-0.2,0.1-0.5,0.1-0.7,0.1L146.7,78.5z M146.7,82.5v-2.9h0.7c0.2,0,0.4,0,0.6,0c0.2,0,0.3,0,0.5,0.1c0.1,0,0.2,0.1,0.4,0.2   c0.1,0.1,0.2,0.2,0.3,0.3c0.1,0.1,0.1,0.2,0.2,0.4c0,0.1,0.1,0.3,0.1,0.4c0,0.1,0,0.3-0.1,0.4c0,0.1-0.1,0.3-0.2,0.4   c-0.1,0.1-0.2,0.2-0.3,0.3c-0.2,0.1-0.3,0.2-0.5,0.2c-0.2,0.1-0.5,0.1-0.8,0.1L146.7,82.5z M162,81.5l1,2.2h1.5l-4.4-9.8l-4.6,9.8   h1.4l1-2.2H162z M161.4,80.2h-2.8l1.4-3.1L161.4,80.2z M174.1,79v1.3h2.3c0,0.3-0.1,0.6-0.3,0.9c-0.2,0.3-0.4,0.5-0.6,0.8   c-0.3,0.2-0.5,0.4-0.9,0.5c-0.3,0.1-0.7,0.2-1,0.2c-0.4,0-0.7-0.1-1.1-0.2c-0.4-0.2-0.7-0.4-1-0.6c-0.4-0.3-0.7-0.7-0.9-1.2   c-0.2-0.5-0.3-1-0.3-1.5c0-0.5,0.1-0.9,0.3-1.4c0.2-0.4,0.4-0.8,0.7-1.1c0.3-0.3,0.7-0.6,1.1-0.7c0.4-0.2,0.9-0.3,1.4-0.3   c0.3,0,0.7,0.1,1,0.2c0.3,0.1,0.6,0.3,0.9,0.5c0.3,0.3,0.6,0.5,0.8,0.9l1-1l-0.4-0.4l-0.3-0.3c-0.1-0.1-0.2-0.2-0.3-0.2   c-0.4-0.3-0.8-0.5-1.3-0.7c-0.5-0.2-1-0.2-1.5-0.2c-1,0-2,0.3-2.9,0.9c-0.4,0.3-0.7,0.6-1,1c-0.3,0.4-0.5,0.9-0.7,1.3   c-0.3,1-0.3,2,0,3c0.1,0.5,0.4,0.9,0.7,1.3c0.3,0.4,0.6,0.7,1,1c0.4,0.3,0.8,0.5,1.3,0.7c0.5,0.2,1,0.2,1.5,0.2   c0.5,0,0.9-0.1,1.3-0.2c0.4-0.1,0.8-0.3,1.2-0.6c0.4-0.3,0.7-0.6,1-0.9c0.2-0.2,0.3-0.5,0.5-0.8c0.1-0.3,0.2-0.6,0.3-0.9   c0.1-0.4,0.1-0.7,0.1-1.1V79H174.1z M188.9,76c-0.2-0.3-0.4-0.6-0.7-0.9c-0.2-0.2-0.5-0.4-0.8-0.5c-0.3-0.1-0.7-0.2-1-0.2   c-0.4,0-0.7,0.1-1.1,0.2c-0.3,0.1-0.6,0.3-0.9,0.5c-0.2,0.2-0.4,0.5-0.6,0.8c-0.1,0.3-0.2,0.7-0.2,1c0,0.5,0.2,1,0.5,1.3   c0.4,0.4,0.9,0.8,1.4,1l0.6,0.3c0.1,0.1,0.3,0.1,0.4,0.2c0.1,0,0.2,0.1,0.2,0.1l0.2,0.1l0.2,0.1c0.2,0.1,0.4,0.3,0.5,0.5   c0.1,0.2,0.2,0.5,0.2,0.7c0,0.3-0.1,0.5-0.2,0.8c-0.1,0.2-0.3,0.4-0.5,0.5c-0.2,0.1-0.5,0.2-0.8,0.2c-0.2,0-0.4,0-0.5-0.1   c-0.2-0.1-0.3-0.1-0.5-0.2c-0.1-0.1-0.2-0.2-0.3-0.4c0-0.1-0.1-0.2-0.1-0.2c0-0.1-0.1-0.2-0.1-0.3c0-0.1,0-0.3-0.1-0.4l-1.4,0.3   c0,0.2,0.1,0.4,0.1,0.6c0,0.2,0.1,0.3,0.2,0.5c0.1,0.1,0.2,0.3,0.2,0.4c0.3,0.4,0.6,0.7,1,0.9c0.4,0.2,0.9,0.3,1.4,0.3   c0.4,0,0.8-0.1,1.2-0.2c0.3-0.1,0.7-0.3,0.9-0.6c0.3-0.3,0.5-0.6,0.6-0.9c0.2-0.4,0.2-0.8,0.2-1.2c0-0.4-0.1-0.8-0.2-1.1   c-0.2-0.3-0.4-0.7-0.7-0.9c-0.4-0.3-0.8-0.5-1.2-0.7l-0.6-0.4l-0.4-0.2c-0.1,0-0.2-0.1-0.2-0.1l-0.1-0.1l-0.1-0.1   c-0.1-0.1-0.2-0.2-0.3-0.3c-0.1-0.1-0.1-0.3-0.1-0.4c0-0.2,0.1-0.4,0.2-0.6c0.1-0.2,0.3-0.3,0.5-0.4c0.2-0.1,0.5-0.2,0.7-0.2   c0.2,0,0.4,0,0.6,0.1c0.2,0.1,0.3,0.2,0.4,0.3c0.2,0.2,0.3,0.3,0.4,0.6L188.9,76z"></path>	</g></g></svg>