<svg id="Layer_1" data-name="Layer 1" xmlns="http://www.w3.org/2000/svg" viewBox="0 0 250 100"><defs><style>.cls-1{fill:#010101;}</style></defs><path class="cls-1" d="M24,44.08v2.48A5.84,5.84,0,0,0,20.23,45a4.79,4.79,0,0,0-3.62,1.54,5.2,5.2,0,0,0-1.48,3.76A5.06,5.06,0,0,0,16.61,54a4.88,4.88,0,0,0,3.62,1.51,4.27,4.27,0,0,0,1.89-.37,5,5,0,0,0,.9-.48A9.34,9.34,0,0,0,24,54V56.5a7.6,7.6,0,0,1-3.79,1,7,7,0,0,1-5.1-2.09A6.9,6.9,0,0,1,13,50.36a7.16,7.16,0,0,1,1.76-4.74,7,7,0,0,1,5.61-2.56,7.13,7.13,0,0,1,3.63,1"/><polygon class="cls-1" points="33.59 48.78 39.6 48.78 39.6 43.33 41.7 43.33 41.7 57.27 39.6 57.27 39.6 50.76 33.59 50.76 33.59 57.27 31.48 57.27 31.48 43.33 33.59 43.33 33.59 48.78"/><path class="cls-1" d="M57.67,53.88h-6l-1.55,3.39H47.88l6.9-14.81,6.66,14.81H59.13Zm-.86-2-2.06-4.74-2.17,4.74Z"/><path class="cls-1" d="M72.34,51.33l4.32,5.94H74.08l-4-5.7h-.38v5.7h-2.1V43.33h2.46a6.17,6.17,0,0,1,4,1,3.83,3.83,0,0,1,1.36,3.05A4,4,0,0,1,74.58,50a3.79,3.79,0,0,1-2.24,1.36m-2.62-1.6h.67c2,0,3-.76,3-2.28s-1-2.14-2.91-2.14h-.75Z"/><polygon class="cls-1" points="85.29 43.33 85.29 55.29 89.39 55.29 89.39 57.27 83.19 57.27 83.19 43.33 85.29 43.33"/><polygon class="cls-1" points="103.52 45.31 97.93 45.31 97.93 48.66 103.35 48.66 103.35 50.63 97.93 50.63 97.93 55.29 103.52 55.29 103.52 57.27 95.82 57.27 95.82 43.33 103.52 43.33 103.52 45.31"/><path class="cls-1" d="M118.6,45.4l-1.71,1a2.87,2.87,0,0,0-.91-1.08,2.07,2.07,0,0,0-1.17-.29,2.16,2.16,0,0,0-1.45.5,1.54,1.54,0,0,0-.58,1.22c0,.68.51,1.23,1.52,1.65l1.39.57a5.86,5.86,0,0,1,2.48,1.67,3.77,3.77,0,0,1,.79,2.43,4.25,4.25,0,0,1-1.28,3.18,4.41,4.41,0,0,1-3.21,1.26,4.3,4.3,0,0,1-3-1.07,5,5,0,0,1-1.46-3l2.13-.47a3.66,3.66,0,0,0,.51,1.69,2.17,2.17,0,0,0,1.9.91,2.19,2.19,0,0,0,1.63-.66,2.3,2.3,0,0,0,.65-1.67,2.45,2.45,0,0,0-.11-.74,2.1,2.1,0,0,0-.36-.63,2.94,2.94,0,0,0-.61-.53,7,7,0,0,0-.91-.47l-1.34-.56q-2.87-1.22-2.86-3.54a3.35,3.35,0,0,1,1.2-2.63,4.38,4.38,0,0,1,3-1.06,4.18,4.18,0,0,1,3.77,2.34"/><path class="cls-1" d="M144.15,49.51l2.51,3,.08-.09c.27-.29.53-.58.77-.87s.47-.57.69-.86l1.38,1.41a10.57,10.57,0,0,1-.67.84c-.27.32-.6.69-1,1.11l2.58,3.18h-2.62l-1.38-1.7a5.61,5.61,0,0,1-4,2,4.48,4.48,0,0,1-3.15-1.18,3.87,3.87,0,0,1-1.26-2.94,4.09,4.09,0,0,1,2-3.47l.92-.62.06,0,.12-.1a4.28,4.28,0,0,1-1.37-2.89,3,3,0,0,1,.91-2.3,3.73,3.73,0,0,1,4.8,0,2.8,2.8,0,0,1,.94,2.17,2.89,2.89,0,0,1-.51,1.64,8.74,8.74,0,0,1-1.84,1.74m-1.67,1.19-.12.08a9.8,9.8,0,0,0-1.76,1.44,1.72,1.72,0,0,0-.46,1.14,2.25,2.25,0,0,0,.69,1.59,2.3,2.3,0,0,0,1.6.7,4.38,4.38,0,0,0,2.8-1.6Zm.45-2.66.18-.13c.29-.22.53-.42.72-.58a3.26,3.26,0,0,0,.42-.42,1.26,1.26,0,0,0,.27-.82,1.2,1.2,0,0,0-.37-.9,1.55,1.55,0,0,0-2,0,1.08,1.08,0,0,0-.39.86,1.94,1.94,0,0,0,.49,1.21l.52.63a.79.79,0,0,0,.11.14"/><polygon class="cls-1" points="174.05 48.89 179.48 43.33 182.28 43.33 175.98 49.64 182.32 57.27 179.5 57.27 174.48 51.07 174.05 51.5 174.05 57.27 171.95 57.27 171.95 43.33 174.05 43.33 174.05 48.89"/><polygon class="cls-1" points="196.33 45.31 190.74 45.31 190.74 48.66 196.16 48.66 196.16 50.63 190.74 50.63 190.74 55.29 196.33 55.29 196.33 57.27 188.63 57.27 188.63 43.33 196.33 43.33 196.33 45.31"/><rect class="cls-1" x="203.53" y="43.33" width="2.1" height="13.94"/><polygon class="cls-1" points="217.27 45.31 217.27 57.27 215.16 57.27 215.16 45.31 211.96 45.31 211.96 43.33 220.46 43.33 220.46 45.31 217.27 45.31"/><polygon class="cls-1" points="228.88 48.78 234.9 48.78 234.9 43.33 237 43.33 237 57.27 234.9 57.27 234.9 50.76 228.88 50.76 228.88 57.27 226.78 57.27 226.78 43.33 228.88 43.33 228.88 48.78"/></svg>