<svg id="Layer_1" data-name="Layer 1" xmlns="http://www.w3.org/2000/svg" viewBox="0 0 250 100"><defs><style>.cls-1{fill:#89bd28;}</style></defs><path class="cls-1" d="M161.41,41.86A7.92,7.92,0,0,1,167.65,45l.1.15c.05.07.11.14.16.22h0a4.84,4.84,0,0,0,8.62-3,4.75,4.75,0,0,0-1.27-3.25c-3.33-4.11-7.3-6.46-13.85-6.46-10.42,0-18.25,7.2-18.25,17.3,0,10.26,7.83,17.46,18.25,17.46,6.65,0,10.57-2.35,13.86-6h0a4.74,4.74,0,1,0-7.14-6.24,8.74,8.74,0,0,1-6.71,3.11c-4.78,0-7.45-3.45-7.45-8.3s2.67-8.06,7.45-8.06m37.06,4c-4.54-1-6.66-1.26-6.66-3.14,0-1.33,1.18-2,3.6-2a10.27,10.27,0,0,1,6.42,2.5h0a4.08,4.08,0,0,0,2.81,1.13,4.12,4.12,0,0,0,2.76-7.2c-2.74-2.78-6.64-4.56-12.08-4.56-7.12,0-12.92,3.05-12.92,10.56,0,7,5.09,9.48,9.63,10.66,5.41,1.4,7.52,1.4,7.52,3.21,0,1.41-1.09,2-4.54,2a11.67,11.67,0,0,1-7.31-2.67l.1.09h0a4.2,4.2,0,0,0-6.54,5.08l.09.17c.08.13.16.25.25.37s.14.17.21.26.14.18.23.27.15.1.22.17c2.91,2.61,7.1,4.56,13.46,4.56,10.5,0,13.71-5,13.71-11.11,0-7.05-6.11-9.32-11-10.42m-148-4A7.92,7.92,0,0,1,56.74,45l.1.14.16.23h0a4.84,4.84,0,0,0,8.62-3,4.79,4.79,0,0,0-1.27-3.25C61,35,57.05,32.62,50.5,32.62c-10.42,0-18.25,7.2-18.25,17.3,0,10.26,7.83,17.46,18.25,17.46,6.65,0,10.57-2.35,13.85-6h0a4.74,4.74,0,1,0-7.14-6.24,8.74,8.74,0,0,1-6.71,3.11c-4.78,0-7.45-3.45-7.45-8.3s2.67-8.06,7.45-8.06m68.72,16.6c-4.7,0-7.6-3.45-7.6-8.39s2.9-8.37,7.6-8.37,7.52,3.36,7.52,8.37-2.82,8.39-7.52,8.39m0-25.84c-10.34,0-18.41,7.28-18.41,17.45s8.07,17.31,18.41,17.31,18.33-7.2,18.33-17.31-8-17.45-18.33-17.45M95.58,34.77a8,8,0,0,0-5.21-.84A13.9,13.9,0,0,0,82,38.12v.23c0-.07,0-.14,0-.21h0v0a5.41,5.41,0,0,0-10.8.28V62A5.41,5.41,0,0,0,82,61.94V55.51c0-8.77,5.07-11,7.91-11,.75,0,2.68.72,4.19.45a5.41,5.41,0,0,0,1.47-10.15"/><path class="cls-1" d="M211.57,37.29v3.17h-1V37.29h-1.12v-.76h3.21v.76Zm5.27,3.17V37.67h0l-1,2.79h-.66l-1-2.79h0v2.79h-.92V36.53h1.3l1,2.58,1-2.58h1.28v3.93Z"/></svg>