<svg id="Layer_1" data-name="Layer 1" xmlns="http://www.w3.org/2000/svg" viewBox="0 0 250 100"><defs><style>.cls-1,.cls-2{fill:#010101;}.cls-1{fill-rule:evenodd;}</style></defs><path class="cls-1" d="M57.11,29.57H53.94v25h3.17a12.5,12.5,0,1,0,0-25m-18.34,25A2.59,2.59,0,0,0,41.34,52V32.16a2.59,2.59,0,0,0-2.58-2.59H34.82V25h32.1a17,17,0,1,1,0,34.09H34.82V54.57Z"/><path class="cls-2" d="M124.29,53.11A1.85,1.85,0,0,0,126.14,55h3v4.15H113.61V55.88c-2,2.42-5.76,4.07-10.1,4.07-5.4,0-10-2.54-11.21-6A8.59,8.59,0,0,1,92,52c0-.68,0-10.92,0-10.92a1.85,1.85,0,0,0-1.85-1.86H87.37V35.05H103V51c0,2.38,2.27,4.36,5.09,4.36s5.08-1.9,5.08-4.26v-10a1.86,1.86,0,0,0-1.86-1.86h-3.47V35.05h16.41Z"/><path class="cls-2" d="M152.66,59.12H132.33V55h3a1.84,1.84,0,0,0,1.82-1.87V41.05a1.85,1.85,0,0,0-1.85-1.85h-3V35h15.52v3.24c2-2.43,5.75-4.06,10.1-4.06,5.4,0,9.95,2.54,11.21,6a8.19,8.19,0,0,1,.34,2c0,.69,0,10.92,0,10.92A1.85,1.85,0,0,0,171.36,55h3.36v4.15H154.86V55h1.72a1.85,1.85,0,0,0,1.84-1.87V43.19c0-2.39-2.26-4.36-5.07-4.36s-5.09,1.9-5.09,4.27v10A1.85,1.85,0,0,0,150.11,55h2.54Z"/><path class="cls-1" d="M198.27,44.1V42.64c0-2.39-2.31-4.33-5.14-4.33S188,40.25,188,42.64V44.1Zm11,7c-2.23,5.16-8.64,8.89-16.2,8.89-9.43,0-17.06-5.79-17.06-12.92s7.63-12.93,17.06-12.93,17,5.79,17,12.93a8.84,8.84,0,0,1-.08,1.25H188a4.17,4.17,0,0,0,0,.5A6.84,6.84,0,0,0,201.27,51Z"/><polygon class="cls-2" points="82.95 67.59 83.97 67.59 83.97 73.8 87.18 73.8 87.18 74.72 82.95 74.72 82.95 67.59"/><path class="cls-2" d="M87.35,74.9H82.79V67.44h1.34v6.19h3.22Zm-4.24-.33H87V74H83.8v-6.2h-.69Z"/><path class="cls-2" d="M98.9,67.49a3.86,3.86,0,0,1,2.76,1.05,3.49,3.49,0,0,1,1.09,2.63,3.39,3.39,0,0,1-1.1,2.61,4,4,0,0,1-2.8,1,3.7,3.7,0,0,1-2.69-1,3.42,3.42,0,0,1-1.08-2.6,3.54,3.54,0,0,1,1.08-2.64,3.8,3.8,0,0,1,2.74-1.05m0,1a2.79,2.79,0,0,0-2,.77,2.6,2.6,0,0,0-.79,2,2.57,2.57,0,0,0,.79,1.93,2.75,2.75,0,0,0,2,.77,2.72,2.72,0,0,0,2-.78,2.62,2.62,0,0,0,.82-1.95,2.55,2.55,0,0,0-.82-1.91,2.63,2.63,0,0,0-2-.78"/><path class="cls-2" d="M98.85,75a3.85,3.85,0,0,1-2.8-1.08,3.58,3.58,0,0,1-1.13-2.71,3.75,3.75,0,0,1,1.13-2.76,4.26,4.26,0,0,1,5.71,0,3.65,3.65,0,0,1,1.16,2.75,3.57,3.57,0,0,1-1.16,2.72A4.09,4.09,0,0,1,98.85,75m.05-7.32a3.61,3.61,0,0,0-2.62,1,3.52,3.52,0,0,0,0,5,3.59,3.59,0,0,0,2.58,1,3.81,3.81,0,0,0,2.69-1,3.49,3.49,0,0,0,0-5,3.64,3.64,0,0,0-2.64-1m0,6.39a3,3,0,0,1-2.11-.81,2.95,2.95,0,0,1,0-4.12,3,3,0,0,1,2.13-.81,2.87,2.87,0,0,1,2.08.82,2.74,2.74,0,0,1,.84,2,2.77,2.77,0,0,1-.84,2,2.88,2.88,0,0,1-2.1.84m0-5.41a2.64,2.64,0,0,0-1.9.72,2.47,2.47,0,0,0-.74,1.83A2.41,2.41,0,0,0,97,73a2.6,2.6,0,0,0,1.88.72,2.54,2.54,0,0,0,1.86-.74,2.54,2.54,0,0,0,0-3.62,2.48,2.48,0,0,0-1.84-.72"/><polygon class="cls-2" points="117.01 67.59 117.97 67.59 117.97 74.72 117.09 74.72 112.33 69.24 112.33 74.72 111.38 74.72 111.38 67.59 112.19 67.59 117.01 73.14 117.01 67.59"/><path class="cls-2" d="M118.15,74.9H117l-4.54-5.23V74.9h-1.28V67.44h1.06l4.58,5.26V67.44h1.3Zm-1-.33h.63V67.76h-.63v5.81l-5.06-5.81h-.58v6.81h.63V68.8Z"/><path class="cls-2" d="M127.26,74.72V67.59h2.41A5,5,0,0,1,132,68a3.27,3.27,0,0,1,1.34,1.27,3.53,3.53,0,0,1,.51,1.85,3.35,3.35,0,0,1-.27,1.37,4,4,0,0,1-.79,1.16,3.44,3.44,0,0,1-1.22.76,3,3,0,0,1-.74.22,11.1,11.1,0,0,1-1.28,0Zm2.3-6.22h-1.28v5.3h1.32a5.31,5.31,0,0,0,1.18-.09,2.93,2.93,0,0,0,.7-.27A2.25,2.25,0,0,0,132,73a2.62,2.62,0,0,0,.77-1.94,2.42,2.42,0,0,0-.78-1.86,2.49,2.49,0,0,0-.66-.45,2.34,2.34,0,0,0-.7-.22,5.49,5.49,0,0,0-1.07-.07"/><path class="cls-2" d="M129.52,74.89H127.1V67.43h2.57a5.2,5.2,0,0,1,2.38.46,3.65,3.65,0,0,1,1.42,1.34,3.83,3.83,0,0,1,.51,1.94,3.69,3.69,0,0,1-.29,1.43,3.49,3.49,0,0,1-.81,1.2,3.87,3.87,0,0,1-1.27.81,4.42,4.42,0,0,1-.78.22,11.27,11.27,0,0,1-1.31.06m-2.1-.32h2.1a8.08,8.08,0,0,0,1.26-.07,2.82,2.82,0,0,0,.7-.19,3.2,3.2,0,0,0,1.16-.74,3.17,3.17,0,0,0,.75-1.1,3.39,3.39,0,0,0,.26-1.3,3.28,3.28,0,0,0-.47-1.77,3,3,0,0,0-1.28-1.22,4.92,4.92,0,0,0-2.23-.42h-2.25ZM129.6,74h-1.48V68.35h1.45a7.1,7.1,0,0,1,1.08.05,2.64,2.64,0,0,1,.75.25,2.27,2.27,0,0,1,.7.47,2.6,2.6,0,0,1,.83,2,2.8,2.8,0,0,1-.81,2.06,2.51,2.51,0,0,1-.55.42,3.09,3.09,0,0,1-.75.29,5.45,5.45,0,0,1-1.22.11m-1.16-.33h1.16a5.61,5.61,0,0,0,1.15-.1,2.76,2.76,0,0,0,.66-.25,2.46,2.46,0,0,0,.48-.37,2.5,2.5,0,0,0,.71-1.83,2.25,2.25,0,0,0-.74-1.75,1.83,1.83,0,0,0-.6-.41,2.84,2.84,0,0,0-.66-.22,6.52,6.52,0,0,0-1,0h-1.13Z"/><path class="cls-2" d="M145.92,67.49a3.86,3.86,0,0,1,2.76,1.05,3.49,3.49,0,0,1,1.09,2.63,3.39,3.39,0,0,1-1.1,2.61,3.94,3.94,0,0,1-2.8,1,3.7,3.7,0,0,1-2.69-1,3.42,3.42,0,0,1-1.08-2.6,3.52,3.52,0,0,1,1.09-2.64,3.77,3.77,0,0,1,2.73-1.05m0,1a2.79,2.79,0,0,0-2,.77,2.64,2.64,0,0,0-.79,2,2.61,2.61,0,0,0,.79,1.93,2.77,2.77,0,0,0,2,.77,2.84,2.84,0,0,0,2-.78,2.63,2.63,0,0,0,.79-1.95,2.56,2.56,0,0,0-.79-1.91,2.75,2.75,0,0,0-2-.78"/><path class="cls-2" d="M145.87,75a3.86,3.86,0,0,1-2.8-1.08,3.58,3.58,0,0,1-1.13-2.71,3.68,3.68,0,0,1,1.14-2.76,3.94,3.94,0,0,1,2.84-1.1,4.09,4.09,0,0,1,2.88,1.1,3.71,3.71,0,0,1,1.14,2.75,3.55,3.55,0,0,1-1.17,2.72,4.05,4.05,0,0,1-2.9,1.08m0-7.32a3.57,3.57,0,0,0-2.61,1,3.51,3.51,0,0,0,0,5,3.58,3.58,0,0,0,2.58,1,3.77,3.77,0,0,0,2.68-1,3.21,3.21,0,0,0,1.07-2.49,3.27,3.27,0,0,0-1.05-2.5,3.68,3.68,0,0,0-2.65-1m0,6.39a2.91,2.91,0,0,1-2.1-.81,2.95,2.95,0,0,1,0-4.12A2.9,2.9,0,0,1,146,68.3a2.87,2.87,0,0,1,2.08.82,2.74,2.74,0,0,1,.84,2,2.77,2.77,0,0,1-.84,2,2.87,2.87,0,0,1-2.1.84m0-5.41a2.64,2.64,0,0,0-1.9.72,2.63,2.63,0,0,0,0,3.64,2.77,2.77,0,0,0,3.75,0,2.56,2.56,0,0,0,0-3.62,2.6,2.6,0,0,0-1.85-.72"/><polygon class="cls-2" points="164.03 67.59 165 67.59 165 74.72 164.12 74.72 159.35 69.24 159.35 74.72 158.39 74.72 158.39 67.59 159.22 67.59 164.03 73.14 164.03 67.59"/><path class="cls-2" d="M165.17,74.9H164l-4.52-5.23V74.9h-1.3V67.44h1.08l4.57,5.26V67.44h1.3Zm-1-.33h.65V67.76h-.65v5.81l-5.05-5.81h-.58v6.81h.63V68.8Z"/></svg>