<svg id="Layer_1" data-name="Layer 1" xmlns="http://www.w3.org/2000/svg" viewBox="0 0 250 100"><defs><style>.cls-1{fill:#010101;}</style></defs><path class="cls-1" d="M33.34,63.62V62.56c2.45-.27,2.77-.46,2.77-3V41.14c0-2.62-.23-2.69-2.69-2.93v-1a33.52,33.52,0,0,0,6.18-1.33V59.52c0,2.58.32,2.81,2.82,3v1.06Z"/><path class="cls-1" d="M51.93,54.25c-.83.43-2.5,1.17-3.33,1.57-1.47.69-2.3,1.39-2.3,2.84a2.81,2.81,0,0,0,2.74,3,4.87,4.87,0,0,0,2.89-1.25Zm3,9.84A3.07,3.07,0,0,1,53,63.31a4,4,0,0,1-1-1.68c-1.55,1.06-3.45,2.46-4.56,2.46a4.86,4.86,0,0,1-4.88-4.81c0-1.91,1-3.08,3.18-3.82,2.37-.81,5.27-1.83,6.18-2.57v-.75c0-2.77-1.27-4.33-3.17-4.33a2.21,2.21,0,0,0-1.71.74,6.51,6.51,0,0,0-1.15,2.62,1.19,1.19,0,0,1-1.27,1,2,2,0,0,1-1.86-1.71c0-.59.48-1.06,1.31-1.64a19,19,0,0,1,6-2.73,5.55,5.55,0,0,1,3.38,1C54.9,48.28,55.3,49.92,55.3,52v7.1c0,1.76.67,2.3,1.38,2.3A2.86,2.86,0,0,0,58.07,61l.4,1Z"/><path class="cls-1" d="M84.16,39.38c-2.7.31-3.25.67-4.75,4.22C78.29,46.26,74.21,56,71.2,64.05H69.8c-2.65-7.15-6-15.77-8.16-21.15-1.15-2.93-1.78-3.29-4.16-3.52V38.25H67.55v1.13c-2.81.31-2.93.67-2.3,2.34,1,2.86,4,10.46,6.42,16.63h.08c2.06-5,4.8-12.09,6-15.89.79-2.34.59-2.69-2.62-3.08V38.25h9Z"/><path class="cls-1" d="M80.13,63.62l.61-1.06c2.46-.23,2.13-.42,2.13-3.12v-8c0-2.42-.16-2.61-2.42-3l.6-.94A25.67,25.67,0,0,0,86.35,46V59.44c0,2.66.24,2.89,2.78,3.12v1.06Z"/><path class="cls-1" d="M92.78,52.34c2.09,0,4.2,0,6.38-.12.67,0,.91-.19.91-.78,0-2-1.23-3.9-3.33-3.9-1.74,0-3.41,1.68-4,4.8m10.74,7.88c-2.45,3.12-5.23,3.87-6.58,3.87-4.92,0-7.77-3.91-7.77-8.32a10,10,0,0,1,2.65-6.87,8.42,8.42,0,0,1,5.84-2.84h0a6.13,6.13,0,0,1,6,6c0,.81-.2,1.17-1,1.29s-5.6.5-10.2.66c.09,5.11,3.06,7.29,5.83,7.29a6.61,6.61,0,0,0,4.53-1.91Z"/><path class="cls-1" d="M113.31,52.34c2.1,0,4.2,0,6.38-.12.68,0,.91-.19.91-.78.05-2-1.23-3.9-3.33-3.9-1.74,0-3.41,1.68-4,4.8m10.74,7.88c-2.45,3.12-5.23,3.87-6.57,3.87-4.93,0-7.78-3.91-7.78-8.32a10,10,0,0,1,2.66-6.87,8.4,8.4,0,0,1,5.83-2.84h0a6.13,6.13,0,0,1,6,6c0,.81-.2,1.17-1,1.29s-5.59.5-10.19.66c.08,5.11,3.06,7.29,5.83,7.29a6.59,6.59,0,0,0,4.52-1.91Z"/><path class="cls-1" d="M135.71,63.62V62.56c2.22-.23,2.45-.51,2.45-3.24V52.81c0-2.69-1-4.29-3.41-4.29a6.62,6.62,0,0,0-4.08,1.83v9.21c0,2.61.24,2.77,2.42,3v1.06h-8.76V62.56c2.66-.27,2.85-.46,2.85-3v-8c0-2.5-.23-2.61-2.34-3v-.94a27.81,27.81,0,0,0,5.83-1.6V49c.79-.54,1.63-1.17,2.62-1.79a5.74,5.74,0,0,1,3.25-1.18c3.17,0,5.11,2.23,5.11,6v7.49c0,2.61.24,2.73,2.46,3v1.06Z"/><path class="cls-1" d="M158.32,51.25a6.59,6.59,0,0,0,4.24-1.09,5.73,5.73,0,0,0,2.1-4.85c0-4.21-2.73-5.77-5.59-5.77a3.91,3.91,0,0,0-2.1.39c-.28.23-.4.66-.4,1.68v9.64ZM173,63.93c-.44,0-.92,0-1.35,0-3.37-.2-5-1.09-6.74-3.59-1.34-1.87-2.69-4.26-3.84-6.16-.72-1.14-1.35-1.6-3.29-1.6h-1.16v6.12c0,3.31.36,3.6,3.5,3.82v1.14H149.4V62.48c3.17-.22,3.53-.51,3.53-3.82V43.09c0-3.28-.32-3.48-3.37-3.71V38.25h10c3,0,4.95.35,6.46,1.33a5.83,5.83,0,0,1,2.66,5.12c0,3.39-2.14,5.42-5,6.66.67,1.22,2.3,3.83,3.49,5.59a30.27,30.27,0,0,0,3.17,4.13,6,6,0,0,0,2.78,1.79Z"/><path class="cls-1" d="M174.8,54.18c0,4.91,2,8.58,5.19,8.58,2.27,0,4.21-1.64,4.21-7.07,0-4.71-1.79-8.31-5.12-8.31-2.26,0-4.28,2.35-4.28,6.8m13.44.62c0,6.28-4.64,9.29-8.68,9.29a8.53,8.53,0,0,1-8.81-8.63,9,9,0,0,1,8.88-9.4,8.56,8.56,0,0,1,8.61,8.74"/><path class="cls-1" d="M199.42,51.25c-.8-2.34-2.15-3.91-4.09-3.91a2.46,2.46,0,0,0-2.5,2.58c0,1.64,1.47,2.58,3.3,3.32,3.05,1.25,5.07,2.65,5.07,5.42,0,3.63-3.41,5.43-6.66,5.43a8.5,8.5,0,0,1-4.6-1.29,18.3,18.3,0,0,1-.68-4.76l1.08-.16c.75,2.58,2.53,4.92,4.91,4.92A2.63,2.63,0,0,0,198,60.15c0-1.61-1-2.54-3.12-3.48-2.3-1.05-5-2.41-5-5.46,0-2.81,2.42-5.15,6.15-5.15a8.86,8.86,0,0,1,3.6.69,31.11,31.11,0,0,1,.88,4.23Z"/><path class="cls-1" d="M205.71,52.34c2.11,0,4.21,0,6.39-.12.67,0,.91-.19.91-.78,0-2-1.23-3.9-3.33-3.9-1.74,0-3.41,1.68-4,4.8m10.75,7.88c-2.45,3.12-5.23,3.87-6.58,3.87-4.91,0-7.78-3.91-7.78-8.32a10,10,0,0,1,2.67-6.87,8.38,8.38,0,0,1,5.83-2.84h0a6.13,6.13,0,0,1,6,6c0,.81-.2,1.17-.95,1.29s-5.59.5-10.19.66c.08,5.11,3,7.29,5.82,7.29a6.61,6.61,0,0,0,4.53-1.91Z"/></svg>