<svg id="Layer_1" data-name="Layer 1" xmlns="http://www.w3.org/2000/svg" viewBox="0 0 250 100"><defs><style>.cls-1{fill:#18407f;}</style></defs><path class="cls-1" d="M120.85,23.94l-7.63,26.63h-8.14L99.61,30.06,94.15,50.57H86.69l-8.4-26.63H85.2L90.69,43.6l5.1-19.66h7.75l5.39,19.66,5.24-19.66Zm21.8,20.71c.06,2,.41,3.84.57,5.92h-6.29l0-.23,0-12.16-3.58.09c-3.09,0-7.69.52-7.69,4.62,0,2.28,1.91,3.27,4.39,3.27a5.83,5.83,0,0,0,4.85-2.39,4.87,4.87,0,0,0,.32-.47v5.12a9.89,9.89,0,0,1-6.87,2.83c-4.7,0-9.29-2.86-9.29-8a7.84,7.84,0,0,1,4.54-7.62c2.63-1.31,6-1.57,8.93-1.57h3.82c0-4.3-1.91-5.76-6-5.76a20.75,20.75,0,0,0-10.13,3.4l1.72-6.46a23.75,23.75,0,0,1,9.24-2c8.1,0,11.46,3.38,11.46,11.27V38c0,2.7,0,4.72.09,6.69m2.89-20.71h7V50.57h-7Zm10.35,0h7V34.7l8.41-10.76h8.21l-10,12,11,14.63h-8.83l-8.75-12.8-.1,12.79h-7Zm25.87,0h7V50.57h-7Zm10.07,0h7V34.7l8.41-10.76h8.2l-10,12,11,14.63h-8.83l-8.75-12.8-.1,12.79h-7Zm26.19,0H225V50.57H218Zm-192.62,0h7.05V44.52H44v6.09H25.4Zm46,6.49A12,12,0,0,1,71.74,32l-6.69-.1a7.55,7.55,0,0,0-.64-1.24,5.06,5.06,0,0,0-.68-.86A7,7,0,0,0,58.54,28,6.79,6.79,0,0,0,53,30.5a10.7,10.7,0,0,0-2,7c0,3,.72,5.25,2.14,6.74a7.17,7.17,0,0,0,5.42,2.24,6.68,6.68,0,0,0,5.14-1.92,5.4,5.4,0,0,0,1.45-2.57l6.54-.09a10.32,10.32,0,0,1-4.15,6.67,13.92,13.92,0,0,1-8.88,2.74q-6.69,0-10.52-3.7T44.29,37.37q0-7,4.36-10.79a14.19,14.19,0,0,1,9.65-3.31q7.83,0,11.46,4.43a10.37,10.37,0,0,1,1.63,2.73"/><path class="cls-1" d="M171,65.28a3.18,3.18,0,0,0,1.89-.65,1.39,1.39,0,0,1,.63-.38c.47,0,.72.16.72.48a3,3,0,0,1-.72,1.14,11.55,11.55,0,0,0-1.05,1.44,4.43,4.43,0,0,0-.85,2c0,.22.13.33.37.33a3,3,0,0,0,1.77-.75,11.31,11.31,0,0,0,1.65-1.49,11.16,11.16,0,0,0,1.42-1.85l0,0a.4.4,0,0,1,.3-.15c.16,0,.23.09.23.27a.77.77,0,0,1-.07.28,10,10,0,0,1-1.53,2.15A8.32,8.32,0,0,1,173.4,70a3.93,3.93,0,0,1-1.65.43c-.8,0-1.2-.28-1.2-.85s.59-1.87,1.78-3.77l-.73.2a6.92,6.92,0,0,1-.94.21.72.72,0,0,1-.57-.34.88.88,0,0,1-.16-.59c0-.52.26-.81.7-.8s.47.15.47.45a.85.85,0,0,1-.07.33"/><path class="cls-1" d="M40.41,65.1a12.88,12.88,0,0,1-4.68,4.62,12.26,12.26,0,0,1-6.34,1.87c-2,0-3.33-.69-4-2A2.76,2.76,0,0,1,25,68.29q0-3.87,5.44-7.49a1,1,0,0,1-.13-.52,2.44,2.44,0,0,1,.53-1.42,5.86,5.86,0,0,1,2.64-2,8.27,8.27,0,0,1,3.24-.7c1.64,0,2.47.69,2.47,2a2.6,2.6,0,0,1-.15.82q-.18.6-.45.6a.5.5,0,0,1-.55-.57,3.14,3.14,0,0,1,0-.43,2.87,2.87,0,0,0,.05-.42c0-.71-.46-1.07-1.37-1.07a7.73,7.73,0,0,0-2.22.35,5.59,5.59,0,0,0-2,1,2.57,2.57,0,0,0-1.2,1.85v.12a6.77,6.77,0,0,1,2.42-.57,1.52,1.52,0,0,1,.68.17.74.74,0,0,1,.4.6c0,.33-.3.62-.9.85a3.74,3.74,0,0,1-1.37.3,4.53,4.53,0,0,1-1.38-.18A10.84,10.84,0,0,0,28,64.28a6.47,6.47,0,0,0-1.64,3.85A2.11,2.11,0,0,0,27.4,70a4.36,4.36,0,0,0,2.27.52,10.34,10.34,0,0,0,4.69-1.2,15.22,15.22,0,0,0,4.44-3.49l.94-1.05a.63.63,0,0,1,.43-.25.29.29,0,0,1,.32.33.24.24,0,0,1-.08.2m-6.68-4.41H33.6a3.7,3.7,0,0,0-1,.28c.83,0,1.25-.12,1.25-.27l-.08,0"/><path class="cls-1" d="M50.78,66.21A11.8,11.8,0,0,1,47.7,69a6.94,6.94,0,0,1-3.76,1.44,1.29,1.29,0,0,1-.82-.34,1,1,0,0,1-.35-.8,7.08,7.08,0,0,1,1.4-3.14c1-1.49,1.84-2.22,2.53-2.19a1,1,0,0,1,.8.44,1.4,1.4,0,0,1,.3.9A2.09,2.09,0,0,1,46.58,67a6.3,6.3,0,0,1-2.19.76,5.77,5.77,0,0,0-.63,1.6c0,.11.05.18.17.18a7.5,7.5,0,0,0,3.55-1.36,11.3,11.3,0,0,0,3-2.54c.15-.18.27-.26.35-.26s.2.09.19.26a1.13,1.13,0,0,1-.22.59m-3.86-1.35c-.45,0-1.17.7-2,1.94a4.21,4.21,0,0,0,1.3-.7A1.92,1.92,0,0,0,47,65c0-.07,0-.11-.08-.11"/><path class="cls-1" d="M50.86,65.23a3.08,3.08,0,0,0,1.94-.49,1.43,1.43,0,0,1,.65-.32q.72.06.69.54A3.07,3.07,0,0,1,53.32,66a9.7,9.7,0,0,0-1.16,1.36,4.36,4.36,0,0,0-1,2c0,.21.1.33.34.35a3,3,0,0,0,1.83-.59,12.36,12.36,0,0,0,1.76-1.36A10.21,10.21,0,0,0,56.64,66l.06,0a.35.35,0,0,1,.31-.13c.15,0,.21.11.2.3a.61.61,0,0,1-.1.26,9.35,9.35,0,0,1-1.69,2,8.15,8.15,0,0,1-2.58,1.73,3.82,3.82,0,0,1-1.68.29c-.8-.06-1.17-.38-1.13-.94s.74-1.82,2.08-3.61l-.74.14a8.56,8.56,0,0,1-.95.13.78.78,0,0,1-.55-.38,1,1,0,0,1-.11-.61c.07-.52.33-.79.76-.74s.47.19.44.49a.75.75,0,0,1-.1.31"/><path class="cls-1" d="M115.78,65.28a3.18,3.18,0,0,0,1.89-.65,1.43,1.43,0,0,1,.62-.38c.49,0,.73.16.73.48a3,3,0,0,1-.73,1.14,11.13,11.13,0,0,0-1,1.44,4.43,4.43,0,0,0-.85,2c0,.22.13.33.38.33a3,3,0,0,0,1.76-.75,11.31,11.31,0,0,0,1.65-1.49,11.73,11.73,0,0,0,1.42-1.85l0,0a.36.36,0,0,1,.29-.15c.15,0,.23.09.23.27a.63.63,0,0,1-.08.28,9.76,9.76,0,0,1-1.51,2.15A8.47,8.47,0,0,1,118.15,70a3.93,3.93,0,0,1-1.65.43c-.8,0-1.19-.28-1.19-.85s.58-1.87,1.76-3.77l-.72.2a6.92,6.92,0,0,1-.94.21.72.72,0,0,1-.57-.34.83.83,0,0,1-.16-.59c0-.52.26-.81.7-.8s.47.15.47.45a.85.85,0,0,1-.07.33"/><path class="cls-1" d="M60.1,69.84a30.52,30.52,0,0,1-1.76,4.23c-1,1.82-2,2.71-3.1,2.67-.69,0-1-.36-1-1,0-.86.64-2.11,2.06-3.75a18.73,18.73,0,0,1,2.95-2.58c.25-.78.39-1.39.57-2.2-1.8,2.24-3.2,3.26-4.24,3.21-.42,0-.73-.27-.66-.9a8.8,8.8,0,0,1,.85-2.65c.22-.46.57-1.19,1.22-2.33a.45.45,0,0,1,.44-.23c.35,0,.51.19.5.52a20.45,20.45,0,0,1-1,2,7.57,7.57,0,0,0-1,2.39c0,.1,0,.15.1.16.53,0,1.86-1,4.17-3.76.08-.39.36-.82.71-.8s.61.22.59.6a25,25,0,0,1-1,3.3c1.13-.75,1.82-1.21,2.06-1.39a20.19,20.19,0,0,0,2-1.51.46.46,0,0,1,.31-.14c.13,0,.19.07.19.21q0,.7-4.91,3.93m-3.31,3a6.34,6.34,0,0,0-1.71,2.92c0,.17.08.25.26.26.93,0,2.16-1.76,3.51-5.22a16.49,16.49,0,0,0-2.06,2"/><path class="cls-1" d="M71.09,66.31a3.91,3.91,0,0,1-1.63,1.45,5,5,0,0,1-2.19.61,9,9,0,0,1-1.08,1.22,2.87,2.87,0,0,1-2.16.89,1.17,1.17,0,0,1-.87-.52,1.32,1.32,0,0,1-.21-.87,8.3,8.3,0,0,1,1.51-4c.21-.33.44-.5.69-.46s.33.11.24.37a13.49,13.49,0,0,0-.72,1.57A8.91,8.91,0,0,0,64,68.94a.46.46,0,0,0,.36.52,1.15,1.15,0,0,0,.87-.24,2.77,2.77,0,0,0,.62-.52,2.54,2.54,0,0,0,.45-.56,1.57,1.57,0,0,1-1-1.76,2.44,2.44,0,0,1,.45-1.21,1.2,1.2,0,0,1,1.1-.66,1.08,1.08,0,0,1,.93.6A2,2,0,0,1,68,66.26a4.15,4.15,0,0,1-.33,1.3c.53,0,1.65-.58,3.35-1.78.12,0,.17.09.16.24a.63.63,0,0,1-.1.29m-4.35-1c-.15,0-.31.17-.43.51a2.07,2.07,0,0,0-.14.69.88.88,0,0,0,.53.9A3.78,3.78,0,0,0,67,66.32c.05-.66,0-1-.22-1"/><path class="cls-1" d="M78.75,66.73a13.75,13.75,0,0,1-2,2.43,4.36,4.36,0,0,1-2.59,1.59,1.25,1.25,0,0,1-1-.57,1.83,1.83,0,0,1-.2-1,11.58,11.58,0,0,1,1-3.34c-.81,1-1.74,2.08-2.3,2.71a10.1,10.1,0,0,1-2,2,1.13,1.13,0,0,1-.32,0c-.45,0-.68-.19-.68-.55a16,16,0,0,1,1-2.35C70.48,66.1,70.91,65.2,71,65a.43.43,0,0,1,.4-.32c.35,0,.53.23.53.67a15.91,15.91,0,0,1-1.75,3.57c.47-.52,1.44-1.7,2.1-2.42l1-1.19c.54-.63.88-1,1-1h0a1.19,1.19,0,0,1,.62.19c.25.14.37.3.37.48a.69.69,0,0,1,0,.2c-.26.64-.53,1.29-.82,1.94a6.07,6.07,0,0,0-.42,2c0,.36.12.54.35.54a3,3,0,0,0,1.83-1,25,25,0,0,0,1.66-2c.55-.71.89-1.07,1-1.07s.2.09.2.25a1.92,1.92,0,0,1-.32.82"/><path class="cls-1" d="M94.47,65.07l.92-2.19a13.39,13.39,0,0,1,.78-1.65c.34-.67.81-1.47,1.39-2.39a6.73,6.73,0,0,1,1.67-2.1,1.13,1.13,0,0,1,.5-.13.82.82,0,0,1,.65.3,1,1,0,0,1,.25.67c0,.57-.69,1.84-2.07,3.83-1.15,1.64-2.3,3.15-3.47,4.51a10.77,10.77,0,0,0-.79,3c0,.18.12.27.37.27q1.67,0,4.39-3.84c.2-.29.37-.43.52-.43s.23.1.23.28a1.23,1.23,0,0,1-.16.47,11.54,11.54,0,0,1-2.14,2.8,4.79,4.79,0,0,1-3,1.67c-.82,0-1.23-.36-1.23-1.07a6.79,6.79,0,0,1,.28-1.6,18.75,18.75,0,0,1-3.75,2.89,1.86,1.86,0,0,1-.62.13c-.54,0-.82-.21-.82-.63a7.22,7.22,0,0,1,1.28-3.29,8.67,8.67,0,0,1,2.19-2.7,2.23,2.23,0,0,1,1.2-.42c.88,0,1.35.56,1.42,1.67m-.9.8v-.62c0-.52-.17-.77-.52-.77s-.81.31-1.43.94a12.5,12.5,0,0,0-1.34,2,5.63,5.63,0,0,0-.87,2,1.51,1.51,0,0,0,.73-.33,17.46,17.46,0,0,0,3.43-2.94Zm2.52-2.47c.34-.42.67-.86,1-1.33s.89-1.31,1.46-2.23a7.53,7.53,0,0,0,1.14-2.23.12.12,0,0,1,.11.08c-.37,0-1.2,1.09-2.48,3.28a22.74,22.74,0,0,0-1.24,2.43"/><path class="cls-1" d="M110.3,65.8a6.58,6.58,0,0,1-3.79,3.51A2.84,2.84,0,0,1,104,70.48c-.8,0-1.2-.2-1.2-.62a.42.42,0,0,1,.11-.31,4.09,4.09,0,0,1,1.34-.49l1.62-.34a1.47,1.47,0,0,0,.22-.7c0-.82-.61-1.6-1.82-2.35A1.27,1.27,0,0,1,104,65a.55.55,0,0,1,.27-.48.86.86,0,0,1,.53-.19c.33,0,.5.16.5.47a1.4,1.4,0,0,1-.08.41l1.13,1.19a2.33,2.33,0,0,1,.6,1.5v.47a4.58,4.58,0,0,0,2.16-2q.15-.27.51-.81c.25-.35.45-.53.62-.53s.2.07.2.22a1.2,1.2,0,0,1-.18.48m-5.73,3.92a2.57,2.57,0,0,0-.4.07h.1a1.5,1.5,0,0,0,.62-.13Z"/><path class="cls-1" d="M125.86,64.79a3.38,3.38,0,0,1-.6,1.6,12.18,12.18,0,0,1-1.1,1.33l-1.43,1.53a4.32,4.32,0,0,1-1.6,1.16h-.35c-.55,0-.81-.29-.79-.81a11.16,11.16,0,0,1,.75-2.49c.12-.54.34-1.37.63-2.47a.55.55,0,0,1,.57-.45c.33,0,.51.32.46.89A29.22,29.22,0,0,1,121,69.44a11.3,11.3,0,0,0,2.36-2.06,4.77,4.77,0,0,0,1.44-2.29,1.71,1.71,0,0,0-.06-.49,2.12,2.12,0,0,1-.07-.46c0-.33.15-.5.42-.48a.66.66,0,0,1,.59.37,1.42,1.42,0,0,1,.14.76"/><path class="cls-1" d="M44,64.72a3.33,3.33,0,0,1-.59,1.6,12.69,12.69,0,0,1-1.1,1.33c-.71.77-1.19,1.28-1.44,1.54a4.44,4.44,0,0,1-1.59,1.16h-.35c-.55,0-.82-.3-.79-.81a10.35,10.35,0,0,1,.75-2.49c.12-.55.33-1.37.63-2.47a.55.55,0,0,1,.56-.46c.34,0,.52.32.47.9a30.59,30.59,0,0,1-1.36,4.35,11.88,11.88,0,0,0,2.36-2.06A4.86,4.86,0,0,0,43,65a2.88,2.88,0,0,0-.06-.49,1.64,1.64,0,0,1-.07-.46c0-.34.15-.5.41-.49a.67.67,0,0,1,.59.38,1.3,1.3,0,0,1,.14.75"/><path class="cls-1" d="M138.14,65.8a6.63,6.63,0,0,1-3.8,3.51,2.84,2.84,0,0,1-2.49,1.17c-.8,0-1.2-.2-1.2-.62a.51.51,0,0,1,.12-.31,3.65,3.65,0,0,1,1.33-.49l1.62-.34a1.47,1.47,0,0,0,.22-.7c0-.82-.6-1.6-1.81-2.35a1.21,1.21,0,0,1-.26-.65.55.55,0,0,1,.27-.48.86.86,0,0,1,.53-.19c.33,0,.5.16.5.47a1.35,1.35,0,0,1-.07.41l1.12,1.19a2.28,2.28,0,0,1,.6,1.5v.47a4.63,4.63,0,0,0,2.16-2c.1-.18.27-.45.52-.81s.45-.53.61-.53.2.07.2.22a1.31,1.31,0,0,1-.17.48m-5.74,3.92a2.57,2.57,0,0,0-.4.07h.1a1.5,1.5,0,0,0,.62-.13Z"/><path class="cls-1" d="M153.06,59.83a6.52,6.52,0,0,0-1.52.23l-1.54.38c-.52.13-1.26.3-2.37.54h-.06c-.53.89-1.21,2.08-1.75,3.09a22.54,22.54,0,0,0-1,2.22,7,7,0,0,0-.6,2.39c0,.3.12.45.35.45.55,0,1.35-.51,2.42-1.52a21.16,21.16,0,0,0,2.14-2.32l0-.08a.51.51,0,0,1,.35-.2c.16,0,.23.09.23.28a.89.89,0,0,1-.15.42,11.68,11.68,0,0,1-2.22,2.7,4.82,4.82,0,0,1-2.95,1.65c-.79,0-1.19-.47-1.19-1.4a10,10,0,0,1,1-3.8c.18-.46.84-1.68,1.8-3.59a18.72,18.72,0,0,1-2.57.22c-1,0-1.55-.25-1.55-.77,0-.22.13-.33.4-.33s.46,0,.82.07a8.19,8.19,0,0,0,.82.06,17.15,17.15,0,0,0,2.56-.23l1.06-2.24a.54.54,0,0,1,.49-.35c.37,0,.56.21.56.63a8,8,0,0,1-.6,1.71c.74-.19,1.92-.45,3.41-.77a10.15,10.15,0,0,1,1.8-.2c.3,0,.45.12.45.35s-.21.4-.63.4"/><path class="cls-1" d="M155.83,65.67a3.8,3.8,0,0,1-1.51,1.57,4.78,4.78,0,0,1-2.11.8,6,6,0,0,1-1,1.22,3.18,3.18,0,0,1-2.11,1.23,1.06,1.06,0,0,1-.9-.45,1.43,1.43,0,0,1-.3-.92,8.3,8.3,0,0,1,1.17-4.07c.19-.35.4-.52.65-.52s.28.11.28.34c0,0-.17.61-.5,1.69a8.77,8.77,0,0,0-.5,2.38c0,.28.11.42.32.42a1.6,1.6,0,0,0,.82-.36,4.69,4.69,0,0,0,.64-.6c.43-.45.35-.51.36-.51a1.56,1.56,0,0,1-1.14-1.67A2.47,2.47,0,0,1,150.4,65a1.22,1.22,0,0,1,1-.75,1.1,1.1,0,0,1,1,.53,1.94,1.94,0,0,1,.36,1.12,4.27,4.27,0,0,1-.23,1.32c.53,0,1.59-.71,3.19-2,.12,0,.18.08.18.22a.67.67,0,0,1-.08.3M151.42,65c-.15,0-.28.18-.38.53a3.27,3.27,0,0,0-.1.72.87.87,0,0,0,.6.85,3.52,3.52,0,0,0,.18-1.1c0-.66-.1-1-.3-1"/><path class="cls-1" d="M166,65.07q.36-.82.93-2.19a13.25,13.25,0,0,1,.77-1.65c.35-.67.81-1.47,1.39-2.39a6.85,6.85,0,0,1,1.68-2.1,1.13,1.13,0,0,1,.5-.13.79.79,0,0,1,.64.3,1,1,0,0,1,.25.67c0,.57-.69,1.84-2.07,3.83-1.15,1.64-2.3,3.15-3.46,4.51a10.92,10.92,0,0,0-.8,3c0,.18.13.27.37.27,1.12,0,2.34-.94,4.15-3.5.2-.29.38-.43.53-.43s.22.09.22.28A1.13,1.13,0,0,1,171,66a9,9,0,0,1-1.9,2.46,4.79,4.79,0,0,1-3,1.67c-.81,0-1.22-.36-1.22-1.07a6.3,6.3,0,0,1,.28-1.6,18.75,18.75,0,0,1-3.75,2.89,1.86,1.86,0,0,1-.62.13c-.55,0-.82-.21-.82-.63a7.17,7.17,0,0,1,1.27-3.29,8.66,8.66,0,0,1,2.2-2.7,2.23,2.23,0,0,1,1.19-.42c.88,0,1.36.56,1.42,1.67m-.89.8v-.62c0-.52-.18-.77-.53-.77s-.8.31-1.42.94a11.83,11.83,0,0,0-1.34,2,6.37,6.37,0,0,0-.93,2.1,2,2,0,0,0,.79-.38,18.06,18.06,0,0,0,3.43-2.94Zm2.51-2.47c.34-.42.68-.86,1-1.33s.89-1.31,1.46-2.23a7.53,7.53,0,0,0,1.14-2.23.11.11,0,0,1,.1.08c-.37,0-1.2,1.09-2.48,3.28a22.74,22.74,0,0,0-1.24,2.43"/><path class="cls-1" d="M188.17,65.8a6.61,6.61,0,0,1-3.79,3.51,2.87,2.87,0,0,1-2.49,1.17c-.8,0-1.2-.2-1.2-.62a.68.68,0,0,1,.11-.31,3.46,3.46,0,0,1,1.33-.49l1.63-.34A1.47,1.47,0,0,0,184,68c0-.82-.61-1.6-1.82-2.35a1.27,1.27,0,0,1-.25-.65.56.56,0,0,1,.26-.48.91.91,0,0,1,.54-.19c.33,0,.5.16.5.47a1.4,1.4,0,0,1-.08.41c.37.39.74.79,1.13,1.19a2.27,2.27,0,0,1,.59,1.5v.47a4.65,4.65,0,0,0,2.17-2q.15-.27.51-.81c.25-.35.46-.53.62-.53s.19.07.19.22a1.14,1.14,0,0,1-.17.48m-5.73,3.92a2.57,2.57,0,0,0-.4.07h.09a1.51,1.51,0,0,0,.63-.13Z"/><path class="cls-1" d="M193.53,65.8a6.61,6.61,0,0,1-3.79,3.51,2.86,2.86,0,0,1-2.49,1.17c-.8,0-1.2-.2-1.2-.62a.61.61,0,0,1,.12-.31,3.37,3.37,0,0,1,1.33-.49l1.62-.34a1.47,1.47,0,0,0,.22-.7c0-.82-.6-1.6-1.82-2.35a1.27,1.27,0,0,1-.25-.65.55.55,0,0,1,.27-.48.86.86,0,0,1,.53-.19c.33,0,.5.16.5.47a1.76,1.76,0,0,1-.07.41l1.12,1.19a2.28,2.28,0,0,1,.6,1.5v.47a4.58,4.58,0,0,0,2.16-2c.1-.18.27-.45.52-.81s.45-.53.61-.53.19.07.19.22a1.14,1.14,0,0,1-.17.48m-5.73,3.92a2.57,2.57,0,0,0-.4.07h.1a1.5,1.5,0,0,0,.62-.13Z"/><path class="cls-1" d="M204.2,70a.8.8,0,0,1-.3.06,1.28,1.28,0,0,1-1-.63,1,1,0,0,1-.1-.55,7.79,7.79,0,0,1,.17-1.5q-2.94,3-3.26,3a1,1,0,0,1-.85-.4,1.51,1.51,0,0,1-.3-.92,7.73,7.73,0,0,1,.22-1.63,9.52,9.52,0,0,1,.75-2c.48-1,.9-1.47,1.24-1.47a.47.47,0,0,1,.39.23.84.84,0,0,1,.17.46,1.85,1.85,0,0,1-.27.65c-.5.83-.81,1.38-.94,1.66a4.27,4.27,0,0,0-.46,1.85c0,.17,0,.26.07.26.25,0,.89-.52,1.91-1.59a23.05,23.05,0,0,0,1.81-2l.57-.72a1,1,0,0,1,.75-.45.54.54,0,0,1,.6.62.59.59,0,0,1-.32.5A5.65,5.65,0,0,0,204,68.57c0,.13,0,.26,0,.37a4.77,4.77,0,0,0,2.5-2.26,4.45,4.45,0,0,0,.75-2.55,1,1,0,0,0-.07-.34,1.29,1.29,0,0,1-.06-.33c0-.34.21-.5.63-.5s.67.39.67,1.19A6,6,0,0,1,207,67.57,6.58,6.58,0,0,1,204.2,70"/><path class="cls-1" d="M220.14,66A12.54,12.54,0,0,1,218,68.62c-1.2,1.2-2.1,1.79-2.7,1.79-.91,0-1.37-.62-1.37-1.87a16.3,16.3,0,0,1,1.4-5.84,19.85,19.85,0,0,1,1.57-3.07c.93-1.51,1.69-2.27,2.29-2.27.36,0,.53.27.53.82a9.71,9.71,0,0,1-1.65,4.57,21.65,21.65,0,0,1-3,4,7.93,7.93,0,0,0-.23,1.65c0,.7.19,1,.55,1q1.11,0,4.29-4l.05,0a.38.38,0,0,1,.28-.15c.16,0,.25.1.25.3a1.12,1.12,0,0,1-.1.4m-4.54-1.15A23.88,23.88,0,0,0,217,62.73c.35-.59.73-1.32,1.15-2.2a6.92,6.92,0,0,0,.77-2.25v0l.05,0s0,.05-.05.08a14.84,14.84,0,0,0-2.44,4.1,22.09,22.09,0,0,0-.9,2.34"/><path class="cls-1" d="M224.8,66a12.54,12.54,0,0,1-2.12,2.65c-1.2,1.2-2.09,1.79-2.69,1.79-.92,0-1.38-.62-1.38-1.87A16.3,16.3,0,0,1,220,62.7a20.77,20.77,0,0,1,1.57-3.07c.93-1.51,1.7-2.27,2.3-2.27.35,0,.52.27.52.82a9.71,9.71,0,0,1-1.65,4.57,21.65,21.65,0,0,1-3,4,8.53,8.53,0,0,0-.22,1.65c0,.7.18,1,.55,1q1.1,0,4.29-4l0,0a.34.34,0,0,1,.27-.15c.17,0,.25.1.25.3a1.12,1.12,0,0,1-.1.4m-4.54-1.15a21.85,21.85,0,0,0,1.42-2.09c.35-.59.73-1.32,1.15-2.2a6.92,6.92,0,0,0,.77-2.25v0l.05,0s0,.05-.05.08a14.84,14.84,0,0,0-2.44,4.1,24.5,24.5,0,0,0-.9,2.34"/><path class="cls-1" d="M84.53,65.35q-.12,0-.36.27a11.29,11.29,0,0,1-3,2.55,7.58,7.58,0,0,1-3.55,1.35c-.12,0-.17-.07-.17-.18a5.77,5.77,0,0,1,.63-1.6A6.37,6.37,0,0,0,80.3,67a2.07,2.07,0,0,0,1.22-1.72,1.41,1.41,0,0,0-.3-.9,1.07,1.07,0,0,0-.8-.45c-.69,0-1.54.71-2.53,2.2a7,7,0,0,0-1.4,3.14.94.94,0,0,0,.35.8,1.34,1.34,0,0,0,.82.35A7.05,7.05,0,0,0,81.42,69,11.47,11.47,0,0,0,84.5,66.2a1.06,1.06,0,0,0,.23-.58c0-.17-.07-.26-.2-.27m-4-.43s.07,0,.07.11c0,.31-.27.68-.78,1.12a3.8,3.8,0,0,1-1.3.71c.84-1.24,1.56-2,2-1.94"/><path class="cls-1" d="M104.76,65.36c-.08,0-.2.08-.36.26a11.09,11.09,0,0,1-3,2.54,7.5,7.5,0,0,1-3.55,1.36c-.12,0-.17-.07-.17-.18a5.18,5.18,0,0,1,.63-1.6,6.44,6.44,0,0,0,2.19-.76,2.1,2.1,0,0,0,1.22-1.72,1.4,1.4,0,0,0-.3-.9,1,1,0,0,0-.8-.44c-.69,0-1.54.7-2.53,2.19a7,7,0,0,0-1.4,3.14,1,1,0,0,0,.35.8,1.29,1.29,0,0,0,.82.34A6.94,6.94,0,0,0,101.65,69a11.8,11.8,0,0,0,3.08-2.74,1.13,1.13,0,0,0,.22-.59c0-.17-.06-.26-.19-.26m-3.86-.51s.08,0,.08.11c0,.31-.27.68-.78,1.13a4.21,4.21,0,0,1-1.3.7c.83-1.24,1.55-2,2-1.94"/><path class="cls-1" d="M115.53,65.36c-.09,0-.2.08-.36.26a11.62,11.62,0,0,1-3,2.6,7.29,7.29,0,0,1-3.52,1.3.15.15,0,0,1-.16-.18,5.18,5.18,0,0,1,.63-1.6,6.33,6.33,0,0,0,2.18-.76,2.08,2.08,0,0,0,1.22-1.72,1.33,1.33,0,0,0-.29-.9,1,1,0,0,0-.8-.44c-.7,0-1.54.7-2.54,2.19a7.08,7.08,0,0,0-1.4,3.14,1,1,0,0,0,.36.8,1.25,1.25,0,0,0,.82.34A6.89,6.89,0,0,0,112.41,69a11.7,11.7,0,0,0,3.09-2.74,1.23,1.23,0,0,0,.22-.59c0-.17-.06-.26-.19-.26m-3.83-.51s.08,0,.07.11c0,.31-.27.68-.77,1.13a4.16,4.16,0,0,1-1.31.7c.83-1.24,1.56-2,2-1.94"/><path class="cls-1" d="M132.5,65.36c-.09,0-.2.08-.36.26a11.3,11.3,0,0,1-3,2.54,7.47,7.47,0,0,1-3.54,1.36.16.16,0,0,1-.18-.18,5.57,5.57,0,0,1,.64-1.6,6.33,6.33,0,0,0,2.18-.76,2.08,2.08,0,0,0,1.22-1.72,1.34,1.34,0,0,0-.3-.9,1,1,0,0,0-.79-.44c-.7,0-1.54.7-2.53,2.19a7,7,0,0,0-1.41,3.14,1,1,0,0,0,.36.8,1.25,1.25,0,0,0,.82.34A6.89,6.89,0,0,0,129.38,69a11.64,11.64,0,0,0,3.08-2.74,1.07,1.07,0,0,0,.23-.59c0-.17-.06-.26-.19-.26m-3.92-.51c.06,0,.08,0,.08.11a1.92,1.92,0,0,1-.78,1.13,4.21,4.21,0,0,1-1.3.7c.83-1.24,1.55-2,2-1.94"/><path class="cls-1" d="M182.8,65.36c-.09,0-.2.08-.36.26a11.3,11.3,0,0,1-3,2.54,7.5,7.5,0,0,1-3.55,1.36.15.15,0,0,1-.16-.18,5.18,5.18,0,0,1,.63-1.6,6.44,6.44,0,0,0,2.19-.76,2.09,2.09,0,0,0,1.21-1.72,1.29,1.29,0,0,0-.3-.9,1,1,0,0,0-.79-.44c-.7,0-1.54.7-2.54,2.19a7.08,7.08,0,0,0-1.4,3.14,1,1,0,0,0,.35.8,1.3,1.3,0,0,0,.83.34A6.89,6.89,0,0,0,179.68,69a11.86,11.86,0,0,0,3.09-2.74,1.23,1.23,0,0,0,.22-.59c0-.17-.06-.26-.19-.26m-3.9-.51c.06,0,.08,0,.08.11a1.92,1.92,0,0,1-.78,1.13,4.16,4.16,0,0,1-1.31.7c.84-1.24,1.56-2,2-1.94"/><path class="cls-1" d="M215.24,65.36c-.09,0-.21.08-.36.26a11.3,11.3,0,0,1-3,2.54,7.5,7.5,0,0,1-3.55,1.36.16.16,0,0,1-.17-.18,5.57,5.57,0,0,1,.64-1.6A6.33,6.33,0,0,0,211,67a2.08,2.08,0,0,0,1.22-1.72,1.4,1.4,0,0,0-.3-.9,1,1,0,0,0-.79-.44c-.7,0-1.54.7-2.54,2.19a7.08,7.08,0,0,0-1.4,3.14,1,1,0,0,0,.36.8,1.25,1.25,0,0,0,.82.34A6.89,6.89,0,0,0,212.12,69a11.8,11.8,0,0,0,3.08-2.74,1.15,1.15,0,0,0,.23-.59c0-.17-.06-.26-.19-.26m-3.87-.51s.08,0,.08.11a1.92,1.92,0,0,1-.78,1.13,4.16,4.16,0,0,1-1.31.7c.84-1.24,1.56-2,2-1.94"/></svg>