<svg id="Layer_1" data-name="Layer 1" xmlns="http://www.w3.org/2000/svg" viewBox="0 0 250 100"><defs><style>.cls-1{fill:#ac1924;}</style></defs><path class="cls-1" d="M187.32,20.62a3,3,0,0,1-.93,2.42,4.06,4.06,0,0,1-2.29.91l3.5,5.41h-2l-3.33-5.27h-2v5.27h-1.9V18.69h-3.41a8.57,8.57,0,0,0-.49,1,9.16,9.16,0,0,0-.66,3.5,9.52,9.52,0,0,0,.66,3.57,8.75,8.75,0,0,0,1.82,2.84,8.42,8.42,0,0,0,6.17,2.57,8.35,8.35,0,0,0,3.39-.68,8.46,8.46,0,0,0,4.54-4.73A9.34,9.34,0,0,0,191,23.2a9,9,0,0,0-.67-3.5,8.51,8.51,0,0,0-.48-1h-3a3.75,3.75,0,0,1,.46,1.93"/><path class="cls-1" d="M102.44,39.63a4,4,0,0,0-4.09,4.19h8.53c0-2.5-1.58-4.19-4.44-4.19"/><path class="cls-1" d="M191.85,18.69c.07.13.14.26.2.39a10.07,10.07,0,0,1,.84,4.11,10.4,10.4,0,0,1-.84,4.2,10.54,10.54,0,0,1-2.27,3.32,10.18,10.18,0,0,1-3.33,2.2,10.85,10.85,0,0,1-8.13,0,10.31,10.31,0,0,1-3.36-2.2,10.3,10.3,0,0,1-3.13-7.52,10.24,10.24,0,0,1,.84-4.11c.06-.13.13-.26.2-.39H48.6L63.3,81.31c30.84-19.83,60.49-.77,61.68,0h0c1.19-.73,30.84-19.79,61.69,0L201.4,18.69ZM89,56.71H68.9V35.79h9V51H89ZM116,48H98.37c0,2.72,2.3,4.77,5.37,4.77a5.4,5.4,0,0,0,4.67-2.23h7c-2.29,5.28-6.75,6.78-12.82,6.78-7.9,0-13.48-4.28-13.48-11.06,0-7.23,5.5-11,13.48-11C111.54,35.24,116,41,116,46.6A9.87,9.87,0,0,1,116,48m16.34,8.71h-7.6l-11.36-21h10.25l6.51,12.75.18.38.17-.38,6.1-12.75h6.15Zm20.07,0h-8.71v-21h8.71Zm6.54-18.34-2.62,2.86h-1.1l1.21-3.11H154V34h4.91ZM170.37,57.3c-9.31,0-11-5.38-11-6.71h6.74c0,.78,1.06,1.72,2,2.1a5.78,5.78,0,0,0,2.32.38c1.9,0,3.45-.46,3.45-1.57,0-1.33-1.59-1.63-3.35-1.88-4.79-.69-11.49-1.5-11.49-6.85,0-5,5.45-7.53,11.24-7.53,9.26,0,11.72,5.13,11.72,6.62h-6.85a2.25,2.25,0,0,0-1.27-1.79,6.18,6.18,0,0,0-2.7-.65c-2.56,0-4,.53-4,1.7,0,1,1.3,1.44,3.16,1.75,4.87.84,12.34,1.13,12.34,7.05,0,3-2.61,7.38-12.27,7.38"/><path class="cls-1" d="M180.2,22.55h2c.43,0,.84,0,1.22,0a3.18,3.18,0,0,0,1-.24,1.54,1.54,0,0,0,.71-.6,2,2,0,0,0,.28-1.13,1.84,1.84,0,0,0-.24-1,1.59,1.59,0,0,0-.62-.56,2.78,2.78,0,0,0-.87-.27l-.41,0H180.2Z"/></svg>