<svg id="Layer_1" data-name="Layer 1" xmlns="http://www.w3.org/2000/svg" viewBox="0 0 250 100"><defs><style>.cls-1{fill:#010101;}</style></defs><path class="cls-1" d="M97,12l2.45-1.63L113.15,24.5s0-10.18-.34-13.53c0,0,1.31-.05,1.77-.05H115s-.23,6.57-.23,10.84a48.15,48.15,0,0,0,.31,7l-1.81.5c-2.16-2.87-11.87-12.41-13.22-14.08V16c0,5.85.1,9.8.4,13L98.26,29c.12-5.68.17-10.59.23-15.56A8.64,8.64,0,0,0,97,12"/><path class="cls-1" d="M136.48,10.85c2.69.05,10.86.08,14.39.08.66,0,1.39,0,2,0l-1.28,2a35.35,35.35,0,0,0-6.24-.32s0,.88,0,1.31c0,8.29.15,13.41.18,15-1,0-2.34.08-3.19.15l.18-16.49c-6.26,0-7.25.3-7.25.3Z"/><path class="cls-1" d="M131.42,71.21c0,1.79,0,3.6,0,5.39,0,4.94,0,9.21.1,12.74-.83,0-2.06,0-3.07.12-.1-9.23,0-14.8-.13-16.52-1,0-2.74,0-3.85,0S122,73,121.33,73l.63-1.89Z"/><path class="cls-1" d="M114.71,89.34c0-2,0-4.24,0-6.41,0-3.88,0-7.82,0-11.72,1-.08,2.09,0,3.12-.11-.1,3.79-.15,7.72-.15,11.83,0,2.07,0,4.21,0,6.33Z"/><path class="cls-1" d="M152.19,33.46c0,.89.08,1.75.18,3-1.59,0-3.2-.06-4.79-.06-5,0-7.87,0-8.63.18C137,37,136,38.94,136,41.22a4.36,4.36,0,0,0,1,2.85,15.63,15.63,0,0,0,4.81.53c1.44,0,4.92-.06,10.42-.12,0,1.07.07,1.9.12,3-3.15-.06-6.35-.09-9.5-.09-4.75,0-7.64,0-8.57.18,0-1.1-.06-1.94-.11-3.06.73,0,1.39.06,1.74.06h.36a7.18,7.18,0,0,1-2.41-5.27c0-4.12,2.41-5.84,5.91-5.84Z"/><path class="cls-1" d="M143.54,55.17l1.57,2.91a3.35,3.35,0,0,0-.94,2.12,3.11,3.11,0,0,0,3,1.82c2.09,0,3.94-1.22,3.94-5.26,0-.39,0-.88,0-1.23,0,0-14.07.06-16.77.12,0-1.1-.08-2-.18-3h4.22c5.47,0,8.54-.06,14-.15.07,2.9.22,5.19.22,6.37,0,3.94-1.56,6.25-4.21,6.25s-4.08-2-5.12-5.62c-4.89,4.25-7.49,6.76-7.74,7l-1.51-3,9.11-8Z"/><path class="cls-1" d="M106.32,44.81l-1.56-2.91a3.34,3.34,0,0,0,.93-2.13,3.11,3.11,0,0,0-3-1.81c-2.09,0-3.93,1.21-3.93,5.26,0,.39,0,.87,0,1.23,0,0,14.07-.06,16.77-.12,0,1.1.08,2,.18,3h-4.21c-5.47,0-8.55.06-14,.15-.08-2.9-.23-5.2-.23-6.38,0-3.93,1.56-6.24,4.21-6.24s4.08,2,5.12,5.62c4.89-4.26,7.49-6.76,7.74-7l1.51,3-9.1,8Z"/><path class="cls-1" d="M101,86.31s7.54-12.39,9-15.13c-.86,0-1.56,0-2.42,0-3.63,0-6.63-.06-8.9-.13l-.58,2.86,8.14.07s-7.54,12.38-9,15.13c.86,0,1.56,0,2.42,0,3.63,0,6.83,0,9.1.13l.58-2.86Z"/><path class="cls-1" d="M124.22,11c1.21-.23,3.14-.73,3.14-.73,2.93,6.73,6.29,13,8.87,18.36-.93.15-1.73.15-3,.45l-3.08-6.32h-7.46l-2.72,6.08-2,.13c1.41-3.09,3.37-6.86,5.14-11,.75-1.79,1.56-3.53,2.09-5.27Zm2,3.69-2.8,6.46h6Z"/><path class="cls-1" d="M146.67,89c-1.22.23-3.14.73-3.14.73-2.94-6.73-6.3-13-8.87-18.36.93-.15,1.72-.15,3-.45l3.08,6.32h7.46L151,71.12l2-.13c-1.41,3.1-3.36,6.87-5.13,11-.75,1.79-1.56,3.53-2.1,5.27Zm-2-3.7,2.81-6.45h-6Z"/><path class="cls-1" d="M115.59,53.48c0,2.36-.08,6.67-.08,11.59-4-.14-8.29-.17-12.93-.17-1.67,0-3.33,0-5,.06V52.58l1.85,1.2-.21,8,6.28.13V53.15l1.84,1.13c-.05,1.07-.11,2.26-.11,3.32,0,1.26,0,3.33,0,4.32a7.39,7.39,0,0,0,.93,0c1.39,0,3.3-.14,5.65-.17.07-1.49,0-4.19,0-5.62,0-1.16-.15-2.46-.23-3.78Z"/></svg>