<svg id="Layer_1" data-name="Layer 1" xmlns="http://www.w3.org/2000/svg" viewBox="0 0 250 100"><defs><style>.cls-1{fill:#e20e17;}.cls-2{fill:#2c2522;fill-rule:evenodd;}</style></defs><path class="cls-1" d="M114.13,51.23h-2.91V40.06h2.91Zm1.44-15.74-5.79.39L107,38.5V51.84l2.89,3h5.59l2.73-3.06V38Z"/><path class="cls-1" d="M126.94,42.82h-2.45V38.5h2.45Zm4.31-6.23-2.14-2.17-9.09.86v5.59l0,14h4.45V47h2.45v7.89h4.31V46l-1.41-1.56,1.41-1.65Z"/><path class="cls-1" d="M168.56,37.39V31.55l3.62-1v6.37Zm-5.78,17.45h5.78V43.38l3.62-.2V54.84h6.15V42.38l-2.05-2.82,1.89-3v-9.8l-2.61-3L162.78,28V54.84Z"/><polygon class="cls-1" points="23.68 22.3 31.71 25.59 41.04 41.42 41.04 28.49 47.66 30.17 47.66 54.85 41.6 54.85 30.67 36.6 30.67 54.85 23.68 54.85 23.68 22.3"/><polygon class="cls-1" points="50.54 30.85 50.54 54.85 65.97 54.85 65.97 49.22 57.62 49.22 57.62 45.44 64.37 45.52 64.37 41.18 57.62 40.62 57.62 37.56 64.53 38.29 64.53 33.14 50.54 30.85"/><polygon class="cls-1" points="66.11 33.39 70.86 54.85 76.8 54.85 80.82 43.51 83.71 54.85 89.54 54.85 94.72 36.36 89.07 36.04 86.45 45.44 83.88 35.48 78.33 34.99 74.71 45.53 72.5 34.31 66.11 33.39"/><polygon class="cls-1" points="100.92 54.85 104.79 54.85 104.79 36.68 116.68 19.24 108.08 19.24 100.92 31.09 93.77 19.24 85.18 19.24 97.07 36.68 97.07 54.85 100.92 54.85"/><polygon class="cls-1" points="133.49 33.7 133.49 54.84 138.87 54.84 138.87 46.11 143.21 54.84 148.84 54.84 142.75 42.48 148.1 31.36 142.47 32.37 138.87 39.57 138.87 32.97 133.49 33.7"/><polygon class="cls-1" points="149.17 31.21 160.42 28.6 160.42 33.58 155.28 34.83 155.28 38.44 160.38 37.8 160.38 43.58 155.28 43.98 155.28 49.05 160.7 49.05 160.7 54.84 149.17 54.84 149.17 31.21"/><path class="cls-2" d="M76.19,75.11a2.29,2.29,0,0,1-.83.6,3.54,3.54,0,0,1-1.37.42,1.79,1.79,0,0,1-1.49-.49.77.77,0,0,1,.13-1.26c.37-.21.81-.21,1.76,0a7.05,7.05,0,0,1,1.21.42l.32.16Zm.79-.86-.46-.11a8.91,8.91,0,0,0-2.62-.4,7.62,7.62,0,0,0-1.14.16,2.1,2.1,0,0,0-1.22.63c-.43.45-.26,1.11.42,1.47a3.87,3.87,0,0,0,1.67.42,5,5,0,0,0,2.15-.24,10.8,10.8,0,0,0,1.7-.6,5.1,5.1,0,0,0,.55.19,10.34,10.34,0,0,0,4.93.47,7.13,7.13,0,0,0,3.38-1.47,6.29,6.29,0,0,0,1-9.6c-1.59-1.7-4-2.55-7.18-2a9,9,0,0,0-3.15,1,9.72,9.72,0,0,0-2.24,1.67,4.45,4.45,0,0,0-1.43,3.42,2.41,2.41,0,0,0,3.23,2.27,3.7,3.7,0,0,0,1.42-.8l.62-.64c.3-.29.34-.39.3-.47a.11.11,0,0,0-.13,0h0l-.31.26a2.76,2.76,0,0,1-1.21.55,1.8,1.8,0,0,1-2.31-1.67,3.9,3.9,0,0,1,.67-2.42,5.82,5.82,0,0,1,1.78-1.7,7,7,0,0,1,3-1.08c.26-.05.55-.1.82-.13,3.71-.4,6.14,2.2,5.83,6.53a8.73,8.73,0,0,1-.67,2.46,4.88,4.88,0,0,1-.51,1.05c-1.51,2.52-3.13,2.94-6.13,1.84a1.75,1.75,0,0,1-.42-.19L79,75l-.27-.14.25-.27.65-.62.13-.15a9.51,9.51,0,0,0,1.32-2,23.37,23.37,0,0,0,1.32-3.07,15,15,0,0,1,1-2.31c.54-.84.85-1.12,1-1.2l.21-.08.07-.08a.13.13,0,0,0-.12-.13.34.34,0,0,0-.25,0L84,65l-.1,0a6.11,6.11,0,0,0-1.25.61A5.87,5.87,0,0,0,81,67.22c-.13.16-.25.33-.38.5a9.81,9.81,0,0,0-.74,1.15c-.17.37-.34.73-.53,1.1a37,37,0,0,1-2,3.75l-.15.21Z"/><path class="cls-2" d="M92.31,70.68a5.28,5.28,0,0,0-1.1,1C90,73.4,89.71,74,89.69,74.85a1.52,1.52,0,0,0,1.94,1.49c.51-.1.93-.39,1.85-1.52a7.15,7.15,0,0,0,.77-1c.14-.23.31-.44.45-.68l.08-.21.28-.5.06-.1,0-.1c0-.06,0-.08,0-.11S95.07,72,95,72s-.09,0-.55.94a6.16,6.16,0,0,1-1,1.29l-.06.11-.39.39a.81.81,0,0,1-.31.24c-.36.23-.74,0-.86-.47s-.09-.74.65-2.39c.25-.53.62-1.19,1-1.89l.28-.45.29-.42-.26.11-.52.16a2.79,2.79,0,0,1-2.81-.22,7.12,7.12,0,0,1-.76,2.18v0l-.25.53a.28.28,0,0,0,0,.29.14.14,0,0,0,.15,0s.06-.11.08-.16l.15-.31.28-.58.1-.19.22-.36a2,2,0,0,0,1.52-.08,2,2,0,0,0,.26-.1"/><path class="cls-2" d="M96.83,73a5.69,5.69,0,0,1,.32-.71,5.33,5.33,0,0,1,.66-1c.93-1.2,1.22-1.41,1.66-1.49a.44.44,0,0,1,.55.37.9.9,0,0,1-.13.68,2.16,2.16,0,0,1-.39.68,3.88,3.88,0,0,1-2.31,1.44l-.36.08m-.08.29A8.15,8.15,0,0,0,99,72.62c1.26-.58,1.8-1.07,2-1.49a1.13,1.13,0,0,0-.84-1.66,4.36,4.36,0,0,0-2.21.13,5,5,0,0,0-1.76,1,5.07,5.07,0,0,0-1.89,2.8,2.31,2.31,0,0,0,1.83,3.07,6.05,6.05,0,0,0,1,0c1.54-.15,2.4-.7,3.75-2.73a6.89,6.89,0,0,0,.38-.62l.32-.66.07-.16,0-.07a.13.13,0,0,0,0-.08.22.22,0,0,0-.15-.11c-.09,0-.13.08-.53.92a2.9,2.9,0,0,1-.29.52c-1.22,1.79-2.12,2.39-3.2,2.47-.74.06-1.18-.44-1.06-1.29a6.8,6.8,0,0,1,.21-.92l.08-.26Z"/><path class="cls-2" d="M102.74,70.1a7.38,7.38,0,0,1,.19.78,7.1,7.1,0,0,1-.06,3,3.75,3.75,0,0,1-.93,1.92c-.56.41-.81.41-1.07.12s-.22-.26-.2-.31a1.33,1.33,0,0,0,.06-.57c0-.13-.07-.19-.15-.19a.87.87,0,0,0-.43.26c-.07,0-.1.14-.15.19a.69.69,0,0,0,.47.94,3.88,3.88,0,0,0,2.6-.06,2.74,2.74,0,0,0,1.86-1.62,3.33,3.33,0,0,0,.18-2.08l-.17-1v-.16a6.23,6.23,0,0,1,0-1.56c0-.16,0-.29,0-.42a5.11,5.11,0,0,1-.64.18,5.59,5.59,0,0,1-1.78.18,2.59,2.59,0,0,1-.14.42,10.1,10.1,0,0,1-.55,1.13l-.5,1,.1.1.06-.06.09,0,.48-.86.34-.68,0-.1.14-.24Z"/><path class="cls-2" d="M107.86,70.1a7.38,7.38,0,0,1,.19.78,7.1,7.1,0,0,1-.06,3,3.75,3.75,0,0,1-.93,1.92c-.56.41-.81.41-1.07.12s-.21-.26-.2-.31a1.65,1.65,0,0,0,.07-.57c0-.13-.08-.19-.15-.19a.86.86,0,0,0-.44.26,1.15,1.15,0,0,0-.14.19.68.68,0,0,0,.46.94,3.88,3.88,0,0,0,2.6-.06,2.74,2.74,0,0,0,1.86-1.62,3.33,3.33,0,0,0,.18-2.08l-.18-1v-.16a6.23,6.23,0,0,1,0-1.56c0-.16,0-.29,0-.42a4.67,4.67,0,0,1-.64.18,5.59,5.59,0,0,1-1.78.18,2.58,2.58,0,0,1-.13.42,9.72,9.72,0,0,1-.56,1.13c-.42.65-2.71,3.93-2.69,4.06v0l0,.13.06-.06.07,0,.07-.07,0-.05c.1-.11,2.42-3.42,2.63-3.81l.35-.68,0-.1.14-.24Z"/><path class="cls-2" d="M120.11,69.94l-.53,1.13-.13.29L117.83,75a19.45,19.45,0,0,1-2.07,4c-.91,1.18-1.82,1.57-2.37,1.52s-.84-.29-.92-.63a.49.49,0,0,1,.15-.53l.13-.12a.41.41,0,0,0-.14-.41.71.71,0,0,0-.74-.12.91.91,0,0,0-.27.15.82.82,0,0,0,.13,1.34,2.78,2.78,0,0,0,1.62.55c2.28.29,4.54-1.31,7.11-6.11a5.29,5.29,0,0,0,.32-.68l.29-.68.54-1.23c.24-.55.51-1.21.93-2.08h2l.12-.34h-2l.27-.62a24.19,24.19,0,0,1,1.6-3.08c.77-1.17,1.2-1.59,1.55-1.75.56-.21.88-.07,1,.28a.6.6,0,0,1,.06.37l0,.21,0,.06c0,.16,0,.18.08.18a1,1,0,0,0,.41-.1.68.68,0,0,0,.35-.29.65.65,0,0,0-.38-1,2.5,2.5,0,0,0-1.4-.08c-2,.33-3.71,1.74-5.39,4.86-.18.31-.33.65-.5,1h-1.41l-.17.34Z"/><path class="cls-2" d="M124.73,75.71c-.14-.21-.16-.49,0-1.33a5.14,5.14,0,0,1,.22-.82,9.38,9.38,0,0,1,.94-1.89,9.62,9.62,0,0,1,.59-.81c.67-.84,1.1-1.07,1.62-1.13s.76.27.73.77a6.71,6.71,0,0,1-.25,1.15,10.82,10.82,0,0,1-1.28,2.81c-.08.13-.18.26-.26.39-1,1.47-1.92,1.41-2.3.86m-2.07-1.31c.26,1.24,1.2,2,3,2.07a4.16,4.16,0,0,0,2.52-.91,4.28,4.28,0,0,0,1.17-1.29,3.92,3.92,0,0,0,.78-2.18,2.4,2.4,0,0,0-2.67-2.75A5,5,0,0,0,124,70.91a4.61,4.61,0,0,0-.94,1.34,3.54,3.54,0,0,0-.4,2.15"/><path class="cls-2" d="M134,70.68a5.89,5.89,0,0,0-1.11,1c-1.23,1.67-1.48,2.28-1.51,3.12a1.52,1.52,0,0,0,1.94,1.49c.51-.1.94-.39,1.86-1.52a5.19,5.19,0,0,0,.58-.84c.14-.24-.16-.18-.57.29l0,.11-.4.39a.81.81,0,0,1-.31.24c-.36.23-.74,0-.86-.47s-.09-.74.65-2.39c.25-.53.62-1.19,1-1.89l.28-.45.29-.42-.26.11-.52.16a2.79,2.79,0,0,1-2.81-.22,7.12,7.12,0,0,1-.76,2.18v0l-.25.53a.28.28,0,0,0,0,.29.14.14,0,0,0,.15,0s.06-.11.08-.16l.15-.31.29-.58.09-.19.22-.36a2.05,2.05,0,0,0,1.53-.08,2.6,2.6,0,0,0,.25-.1"/><path class="cls-2" d="M145.68,76.21H148l1.67-3.4a4.11,4.11,0,0,1,.71-1.06,5,5,0,0,1,1.77-1.55c.28-.12.4-.15.53-.12a.39.39,0,0,1,.31.44,1.46,1.46,0,0,1-.09.5c-1.39,2.18-1.74,2.94-1.88,3.7a1.41,1.41,0,0,0,1.33,1.73,3,3,0,0,0,1.74-.68,6.18,6.18,0,0,0,1.31-1.31c.11-.11.19-.25.27-.34l.1-.16.89-1.37a.72.72,0,0,0,.16-.36.13.13,0,0,0-.14-.13c-.09,0-.13.07-.64,1a5.81,5.81,0,0,1-.59.86l-.34.39-.21.26c-.1.11-.19.19-.27.29-.31.29-.42.37-.55.48-.3.15-.44.2-.57.18a.44.44,0,0,1-.43-.37,1.17,1.17,0,0,1,.18-.6C154.76,72,154.88,71.75,155,71a1.39,1.39,0,0,0-1.11-1.6,2.48,2.48,0,0,0-1.46.24,4.25,4.25,0,0,0-1.5,1.07l-.28.27-.21.22,2.73-5.57c.38-.76.38-.88.22-1.27h-2.35c.15.34.14.48-.12,1.05Z"/><path class="cls-2" d="M167.63,76.21H170l2.2-4.48c0-.06.09-.11.36-.42l.26-.26.2-.17a4.32,4.32,0,0,1,.78-.56,1.44,1.44,0,0,1,.71-.22.53.53,0,0,1,.46.69l-.12.26-.22.46-2.3,4.7h2.36l1.87-3.86a5.75,5.75,0,0,1,.64-.88,4,4,0,0,1,.5-.51,2.37,2.37,0,0,1,.66-.52c.45-.26.57-.31.74-.31a.47.47,0,0,1,.44.45.86.86,0,0,1-.11.55,13,13,0,0,0-1.83,3.8,1.31,1.31,0,0,0,1.25,1.54,3,3,0,0,0,1.75-.57,7.7,7.7,0,0,0,2.1-2.34c.71-1.1.76-1.18.75-1.28s-.07-.16-.14-.13a.12.12,0,0,0-.08,0l0,0-.09.16a2.13,2.13,0,0,1-.3.53,9.17,9.17,0,0,1-2,2.46c-.36.24-.5.29-.67.29a.41.41,0,0,1-.41-.39,1.51,1.51,0,0,1,.2-.65c2.15-4.17,1.69-3.31,1.72-3.86A1.43,1.43,0,0,0,180,69.44a3.84,3.84,0,0,0-2.48,1.31,4.06,4.06,0,0,0-.71.85,3.26,3.26,0,0,0,.08-.64,1.42,1.42,0,0,0-1.83-1.52A4.67,4.67,0,0,0,172.6,71a3.53,3.53,0,0,1-.25.28l.46-.91a.7.7,0,0,0,0-.77h-2.31a1.1,1.1,0,0,1-.13,1Z"/><path class="cls-2" d="M184.59,75.71c-.14-.21-.16-.49,0-1.33a5.14,5.14,0,0,1,.22-.82,9.27,9.27,0,0,1,.93-1.89,9.52,9.52,0,0,1,.6-.81c.66-.84,1.1-1.07,1.61-1.13s.76.27.74.77a6.71,6.71,0,0,1-.25,1.15,10.55,10.55,0,0,1-1.29,2.81c-.07.13-.18.26-.26.39-1,1.47-1.92,1.41-2.29.86m-2.07-1.31c.26,1.24,1.19,2,3,2.07a4.11,4.11,0,0,0,2.51-.91,4,4,0,0,0,1.17-1.29,3.94,3.94,0,0,0,.79-2.18,2.4,2.4,0,0,0-2.68-2.75,5,5,0,0,0-3.51,1.57,4.81,4.81,0,0,0-.94,1.34,3.52,3.52,0,0,0-.39,2.15"/><path class="cls-2" d="M158.44,73a5.69,5.69,0,0,1,.32-.71,5.84,5.84,0,0,1,.66-1c.93-1.2,1.22-1.41,1.66-1.49a.44.44,0,0,1,.55.37.93.93,0,0,1-.12.68,2.47,2.47,0,0,1-.4.68,3.85,3.85,0,0,1-2.31,1.44Zm-.08.29a8.15,8.15,0,0,0,2.25-.68c1.26-.58,1.81-1.07,2-1.49a1.13,1.13,0,0,0-.85-1.66,4.37,4.37,0,0,0-2.21.13,5.13,5.13,0,0,0-1.76,1,5.07,5.07,0,0,0-1.89,2.8,2.32,2.32,0,0,0,1.83,3.07,6.05,6.05,0,0,0,.95,0c1.41-.13,1.84-.17,3.29-2.17.15-.2-.22-.16-.32,0-1.29,1.69-2.14,1.61-2.58,1.65-.74.06-1.18-.44-1.06-1.29a6.8,6.8,0,0,1,.21-.92l.08-.26Z"/><path class="cls-2" d="M189.55,76.21h2.35l2.2-4.48c0-.06.08-.11.36-.42l.26-.26.2-.17a4.32,4.32,0,0,1,.78-.56,1.44,1.44,0,0,1,.71-.22.53.53,0,0,1,.46.69l-.12.26-.22.46-2.29,4.7h2.36l1.87-3.86a5.51,5.51,0,0,1,.63-.88,4,4,0,0,1,.5-.51,2.37,2.37,0,0,1,.66-.52c.46-.26.57-.31.75-.31a.47.47,0,0,1,.44.45.92.92,0,0,1-.12.55,13,13,0,0,0-1.83,3.8,1.31,1.31,0,0,0,1.25,1.54,3,3,0,0,0,1.75-.57,7.7,7.7,0,0,0,2.1-2.34c.71-1.1.77-1.18.75-1.28a.11.11,0,0,0-.14-.13.08.08,0,0,0-.07,0l0,0-.1.16a2.13,2.13,0,0,1-.3.53,9.17,9.17,0,0,1-2,2.46c-.36.24-.5.29-.67.29a.41.41,0,0,1-.41-.39,1.51,1.51,0,0,1,.2-.65c2.15-4.17,1.69-3.31,1.73-3.86A1.44,1.44,0,0,0,202,69.44a3.82,3.82,0,0,0-2.48,1.31,4.11,4.11,0,0,0-.72.85,3.26,3.26,0,0,0,.08-.64A1.42,1.42,0,0,0,197,69.44,4.71,4.71,0,0,0,194.51,71a3.53,3.53,0,0,1-.25.28l.46-.91a.7.7,0,0,0,0-.77h-2.31a1.1,1.1,0,0,1-.13,1Z"/><path class="cls-2" d="M209.55,76.21h2.38l2-4.14,0,0,.38-.44a4.63,4.63,0,0,1,1.42-1.26,1.31,1.31,0,0,1,.69-.21.46.46,0,0,1,.43.42.94.94,0,0,1-.15.6c-1.64,2.78-1.78,3-1.9,3.85a1.35,1.35,0,0,0,1.36,1.45,2.76,2.76,0,0,0,1.71-.65,7.14,7.14,0,0,0,1.05-1l.29-.31.08-.13.9-1.31c.41-.58.46-.72.46-.88s-.07-.09-.14-.12-.19.08-.54.84a5.88,5.88,0,0,1-1,1.44l-.33.37-.31.28a1.85,1.85,0,0,1-.29.24,1.42,1.42,0,0,1-.64.34.42.42,0,0,1-.42-.34.8.8,0,0,1,.15-.63c1.46-2.62,1.59-2.94,1.77-3.7a1.39,1.39,0,0,0-1.19-1.49,2.7,2.7,0,0,0-2,.55,5,5,0,0,0-.95.78l-.35.35-.19.21.5-1a.68.68,0,0,0,.09-.58.33.33,0,0,0,0-.16h-2.33a.85.85,0,0,1-.06.74Z"/><path class="cls-2" d="M219.75,73.51l-.24.5a4,4,0,0,0-.24.6,1.79,1.79,0,0,0,1.69,2c.63.08,1.17-.13,2.17-1.08a4.85,4.85,0,0,0,.67-.69c.49-.56.26-.76-.25-.18l-.7.66c-.44.35-.58.43-.78.45a.58.58,0,0,1-.62-.52,1.42,1.42,0,0,1,.12-.66l.31-.61,2-4h2l.15-.35h-1.94l.95-1.94c.28-.58.28-.7.16-1h-2.35c.12.29.11.42-.12.89l-1,2.07h-1.38l-.1.35h1.29Z"/><path class="cls-2" d="M224.11,76a.93.93,0,0,0,1.49.26,1.7,1.7,0,0,0,.58-.73,1.25,1.25,0,0,0,.14-.66.83.83,0,0,0-.94-.84,1.33,1.33,0,0,0-.67.24,1.6,1.6,0,0,0-.6,1.73"/><path class="cls-2" d="M207.21,73a7.6,7.6,0,0,1,.31-.71,6.45,6.45,0,0,1,.66-1c.94-1.2,1.23-1.41,1.66-1.49a.44.44,0,0,1,.56.37,1,1,0,0,1-.13.68,2.16,2.16,0,0,1-.39.68,3.91,3.91,0,0,1-2.31,1.44Zm-.08.29a8.15,8.15,0,0,0,2.25-.68c1.25-.58,1.8-1.07,2-1.49a1.13,1.13,0,0,0-.84-1.66,4.41,4.41,0,0,0-2.22.13,5.13,5.13,0,0,0-1.76,1,5,5,0,0,0-1.88,2.8,2.31,2.31,0,0,0,1.83,3.07,6.05,6.05,0,0,0,.95,0c1.41-.13,1.84-.17,3.29-2.17.15-.2-.22-.16-.33,0-1.28,1.69-2.13,1.61-2.57,1.65-.74.06-1.18-.44-1.07-1.29a8.44,8.44,0,0,1,.22-.92l.08-.26Z"/><path class="cls-2" d="M142.2,73.51,142,74a3.92,3.92,0,0,0-.23.6,1.77,1.77,0,0,0,1.68,2c.63.08,1.17-.13,2.17-1.08a11.67,11.67,0,0,0,1-1c.48-.55.25-.76-.25-.19l-1.06,1c-.45.35-.59.43-.79.45a.6.6,0,0,1-.62-.52,1.42,1.42,0,0,1,.12-.66l.31-.61,2-4h2l.14-.35h-1.93l.95-1.94c.28-.58.29-.7.17-1h-2.36c.12.29.11.42-.11.89l-1,2.07h-1.39l-.1.35h1.3Z"/></svg>