<?xml version="1.0" encoding="utf-8"?>
<!-- Generator: Adobe Illustrator 26.0.2, SVG Export Plug-In . SVG Version: 6.00 Build 0)  -->
<svg version="1.1" id="Layer_1" xmlns="http://www.w3.org/2000/svg" xmlns:xlink="http://www.w3.org/1999/xlink" x="0px" y="0px"
	 viewBox="0 0 250 100" style="enable-background:new 0 0 250 100;" xml:space="preserve">
<style type="text/css">
	.st0{fill:#010101;}
</style>
<polygon class="st0" points="44.7,66.5 41.3,66.5 22.6,41.1 22.6,66.5 18.8,66.5 18.8,33.5 22,33.5 41,59 41,33.5 44.7,33.5 "/>
<rect x="51.3" y="33.5" class="st0" width="4" height="32.9"/>
<polygon class="st0" points="87.8,66.5 84.4,66.5 65.7,41.1 65.7,66.5 61.9,66.5 61.9,33.5 65.1,33.5 84.1,59 84.1,33.5 87.8,33.5 
	"/>
<polygon class="st0" points="110.3,37.8 98.4,37.8 98.4,47.7 109.9,47.7 109.9,52 98.4,52 98.4,62.2 110.6,62.2 110.6,66.5 
	94.4,66.5 94.4,33.5 110.3,33.5 "/>
<polygon class="st0" points="155.2,66.7 154.4,66.7 145.2,39.8 136,66.7 135.2,66.7 123.9,33.5 127.9,33.5 135.6,56.2 143.3,33.5 
	147.2,33.5 155,56.2 162.6,33.5 166.6,33.5 "/>
<polygon class="st0" points="186,37.8 174.1,37.8 174.1,47.7 185.6,47.7 185.6,52 174.1,52 174.1,62.2 186.3,62.2 186.3,66.5 
	170.1,66.5 170.1,33.5 186,33.5 "/>
<path class="st0" d="M204.3,40.8c-2.4-2.7-4.7-3.4-6.6-3.4c-2.6,0-4.4,1.6-4.4,3.9c0,6.3,12.1,6.2,12.1,16.7c0,5.2-3.3,8.9-7.8,8.9
	c-2.9,0.1-5.7-1-7.8-3v-6c2.1,3.1,4.6,4.8,7.4,4.8c2.3,0.2,4.4-1.6,4.5-3.9c0-0.1,0-0.1,0-0.2c0-6.8-12.1-7.6-12.1-16.6
	c0-5.3,3.4-8.8,8.5-8.8c2.3,0,4.5,0.9,6.2,2.3L204.3,40.8L204.3,40.8z"/>
<polygon class="st0" points="231.2,37.8 221.5,37.8 221.5,66.5 217.5,66.5 217.5,37.8 207.8,37.8 207.8,33.5 231.2,33.5 "/>
</svg>
