<svg id="Layer_1" data-name="Layer 1" xmlns="http://www.w3.org/2000/svg" viewBox="0 0 250 100"><defs><style>.cls-1{fill:#026eb4;}</style></defs><polygon class="cls-1" points="53.65 74.71 54.84 74.71 54.84 80.22 58.21 80.22 58.21 81.25 53.65 81.25 53.65 74.71"/><polygon class="cls-1" points="53.65 74.71 54.84 74.71 54.84 80.22 58.21 80.22 58.21 81.25 53.65 81.25 53.65 74.71"/><path class="cls-1" d="M62.25,78a3.47,3.47,0,1,1,3.47,3.36A3.32,3.32,0,0,1,62.25,78M68,78a2.26,2.26,0,1,0-2.26,2.3A2.2,2.2,0,0,0,68,78"/><path class="cls-1" d="M62.25,78a3.47,3.47,0,1,1,3.47,3.36A3.32,3.32,0,0,1,62.25,78M68,78a2.26,2.26,0,1,0-2.26,2.3A2.2,2.2,0,0,0,68,78"/><polygon class="cls-1" points="79.82 74.71 77.01 81.25 75.83 81.25 73.02 74.71 74.32 74.71 76.46 79.76 78.62 74.71 79.82 74.71"/><polygon class="cls-1" points="79.82 74.71 77.01 81.25 75.83 81.25 73.02 74.71 74.32 74.71 76.46 79.76 78.62 74.71 79.82 74.71"/><path class="cls-1" d="M136,58.43a26.65,26.65,0,0,1-15.42,4.85c-13.24,0-20.44-4.32-20.44-13.06,0-3.5,1.84-7.31,6.1-11.19a11.59,11.59,0,0,1-2.93-7.24c0-9.11,7.12-13.13,17.41-13.13a42.56,42.56,0,0,1,12.63,1.79v7.68a32,32,0,0,0-12.19-2.39c-6.1,0-9.48,2-9.48,5.45,0,3.66,5.15,8.06,22.12,18a10,10,0,0,0,1.69-5.52A17.12,17.12,0,0,0,135,40h7.5a23.1,23.1,0,0,1,.66,4.84,15.73,15.73,0,0,1-2.5,8.59l2.87,1.79v7.39ZM111.3,43.88h0c-1.83,2-2.79,3.58-2.79,5.15,0,3.81,4,7.24,12.12,7.24a15.86,15.86,0,0,0,7.79-2.09c-6.25-3.51-11.6-6-17.12-10.3"/><path class="cls-1" d="M188.05,39.18a7.89,7.89,0,0,0,4.63-7.1c0-9.62-5.81-11.93-15.21-11.93H150.28V61.8h29.1c11.9,0,17-3.59,17-12.48,0-5.15-3.75-9.55-8.3-10.14M179.38,54.7H158.66V27.31h18.81c3.75,0,6.39,1.05,6.39,4.77,0,3.44-2.71,4.78-6.39,4.78H163.21l3.61,7.1h12.56c5.29,0,8.08,1.26,8.08,5.36s-3.08,5.38-8.08,5.38"/><path class="cls-1" d="M87.89,46.35a13.31,13.31,0,0,0,9-12.55c0-6.42-4.63-13.65-15.21-13.65h-27V61.8h8.37V27.31H79.73c6.18,0,8.46,3.06,8.46,6.49s-2.28,6.57-8.46,6.57H67.61l3.63,7.09h7.68l9,14.34h9.62Z"/><polygon class="cls-1" points="89 80.23 89 81.25 84.17 81.25 84.17 74.71 88.87 74.71 88.87 75.73 85.37 75.73 85.37 77.43 88.48 77.43 88.48 78.43 85.37 78.43 85.37 80.23 89 80.23"/><polygon class="cls-1" points="89 80.23 89 81.25 84.17 81.25 84.17 74.71 88.87 74.71 88.87 75.73 85.37 75.73 85.37 77.43 88.48 77.43 88.48 78.43 85.37 78.43 85.37 80.23 89 80.23"/><rect class="cls-1" x="100.23" y="74.71" width="1.19" height="6.54"/><rect class="cls-1" x="100.23" y="74.71" width="1.19" height="6.54"/><polygon class="cls-1" points="108.14 75.74 106.01 75.74 106.01 74.71 111.47 74.71 111.47 75.74 109.34 75.74 109.34 81.25 108.14 81.25 108.14 75.74"/><polygon class="cls-1" points="108.14 75.74 106.01 75.74 106.01 74.71 111.47 74.71 111.47 75.74 109.34 75.74 109.34 81.25 108.14 81.25 108.14 75.74"/><path class="cls-1" d="M115.26,80.54a.74.74,0,0,1,.75-.77.74.74,0,0,1,.76.77.76.76,0,0,1-.76.78.76.76,0,0,1-.75-.78"/><path class="cls-1" d="M115.26,80.54a.74.74,0,0,1,.75-.77.74.74,0,0,1,.76.77.76.76,0,0,1-.76.78.76.76,0,0,1-.75-.78"/><polygon class="cls-1" points="137.3 74.71 135.16 81.25 133.9 81.25 132.31 76.42 130.69 81.25 129.41 81.25 127.28 74.71 128.52 74.71 130.12 79.68 131.78 74.71 132.88 74.71 134.51 79.71 136.16 74.71 137.3 74.71"/><polygon class="cls-1" points="137.3 74.71 135.16 81.25 133.9 81.25 132.31 76.42 130.69 81.25 129.41 81.25 127.28 74.71 128.52 74.71 130.12 79.68 131.78 74.71 132.88 74.71 134.51 79.71 136.16 74.71 137.3 74.71"/><polygon class="cls-1" points="146.78 80.23 146.78 81.25 141.95 81.25 141.95 74.71 146.65 74.71 146.65 75.73 143.15 75.73 143.15 77.43 146.26 77.43 146.26 78.43 143.15 78.43 143.15 80.23 146.78 80.23"/><polygon class="cls-1" points="146.78 80.23 146.78 81.25 141.95 81.25 141.95 74.71 146.65 74.71 146.65 75.73 143.15 75.73 143.15 77.43 146.26 77.43 146.26 78.43 143.15 78.43 143.15 80.23 146.78 80.23"/><path class="cls-1" d="M156,79.74h-3.21l-.64,1.51h-1.23l2.89-6.54H155l2.91,6.54h-1.25Zm-.39-1-1.22-2.85-1.2,2.85Z"/><path class="cls-1" d="M156,79.74h-3.21l-.64,1.51h-1.23l2.89-6.54H155l2.91,6.54h-1.25Zm-.39-1-1.22-2.85-1.2,2.85Z"/><path class="cls-1" d="M166.57,81.25l-1.32-1.91h-1.7v1.91h-1.19V74.71H165c1.69,0,2.74.88,2.74,2.33a2.08,2.08,0,0,1-1.37,2.06l1.48,2.15ZM165,75.74h-1.4v2.61H165c1,0,1.59-.49,1.59-1.31s-.55-1.3-1.59-1.3"/><path class="cls-1" d="M166.57,81.25l-1.32-1.91h-1.7v1.91h-1.19V74.71H165c1.69,0,2.74.88,2.74,2.33a2.08,2.08,0,0,1-1.37,2.06l1.48,2.15ZM165,75.74h-1.4v2.61H165c1,0,1.59-.49,1.59-1.31s-.55-1.3-1.59-1.3"/><rect class="cls-1" x="178.97" y="74.71" width="1.2" height="6.54"/><rect class="cls-1" x="178.97" y="74.71" width="1.2" height="6.54"/><polygon class="cls-1" points="186.88 75.74 184.75 75.74 184.75 74.71 190.21 74.71 190.21 75.74 188.08 75.74 188.08 81.25 186.88 81.25 186.88 75.74"/><polygon class="cls-1" points="186.88 75.74 184.75 75.74 184.75 74.71 190.21 74.71 190.21 75.74 188.08 75.74 188.08 81.25 186.88 81.25 186.88 75.74"/><path class="cls-1" d="M194,80.54a.76.76,0,1,1,1.51,0,.76.76,0,1,1-1.51,0"/><path class="cls-1" d="M194,80.54a.76.76,0,1,1,1.51,0,.76.76,0,1,1-1.51,0"/></svg>