<svg id="Layer_1" data-name="Layer 1" xmlns="http://www.w3.org/2000/svg" viewBox="0 0 250 100"><defs><style>.cls-1{fill:#026eb4;}</style></defs><path class="cls-1" d="M170.08,53h-5.81l-5.94-8.86a8.17,8.17,0,0,1-.55-1.12h-.07V53h-4.59V32.57h4.59v9.65h.07q.18-.4.57-1.14L164,32.57h5.47l-7.11,9.73Z"/><path class="cls-1" d="M173.86,36.1a2.61,2.61,0,0,1-1.86-.68,2.15,2.15,0,0,1-.73-1.65,2.06,2.06,0,0,1,.73-1.65,3,3,0,0,1,3.73,0,2.09,2.09,0,0,1,.72,1.65,2.14,2.14,0,0,1-.72,1.67A2.65,2.65,0,0,1,173.86,36.1ZM176.08,53h-4.5V38.4h4.5Z"/><path class="cls-1" d="M194.12,53h-4.5V51h-.05a5.06,5.06,0,0,1-4.51,2.36,5.52,5.52,0,0,1-4.4-1.93A8,8,0,0,1,179,46a8.7,8.7,0,0,1,1.83-5.79,6,6,0,0,1,4.81-2.18,4.09,4.09,0,0,1,3.93,2h.05V31.4h4.5Zm-4.41-7.08v-1.1a3.45,3.45,0,0,0-.83-2.36,2.92,2.92,0,0,0-4.48.23,5.48,5.48,0,0,0-.84,3.23,4.74,4.74,0,0,0,.81,3,2.88,2.88,0,0,0,4.48-.06A4.59,4.59,0,0,0,189.71,45.89Z"/><path class="cls-1" d="M197,52.59V49a10,10,0,0,0,2.21,1,7.31,7.31,0,0,0,2.09.33,4.43,4.43,0,0,0,1.88-.33,1.06,1.06,0,0,0,.69-1,.92.92,0,0,0-.31-.72,3.11,3.11,0,0,0-.81-.49,8.29,8.29,0,0,0-1.07-.39c-.39-.11-.76-.24-1.12-.38a10,10,0,0,1-1.53-.71,4.46,4.46,0,0,1-1.11-.87,3.53,3.53,0,0,1-.69-1.15,4.82,4.82,0,0,1-.23-1.55,4.05,4.05,0,0,1,.53-2.11,4.28,4.28,0,0,1,1.43-1.44,6.47,6.47,0,0,1,2-.83,10.92,10.92,0,0,1,2.38-.26,13.27,13.27,0,0,1,2,.15,14.92,14.92,0,0,1,2,.43V42.1a7,7,0,0,0-1.83-.74,7.54,7.54,0,0,0-1.91-.25,3.65,3.65,0,0,0-.83.08,2.66,2.66,0,0,0-.69.22,1.22,1.22,0,0,0-.47.39.82.82,0,0,0-.17.53,1,1,0,0,0,.25.68,2.15,2.15,0,0,0,.67.49,5.51,5.51,0,0,0,.92.37l1,.34a12.34,12.34,0,0,1,1.62.68,5.33,5.33,0,0,1,1.25.87,3.36,3.36,0,0,1,.79,1.17,4,4,0,0,1,.28,1.59,4.19,4.19,0,0,1-.56,2.21,4.64,4.64,0,0,1-1.49,1.5,6.83,6.83,0,0,1-2.15.83,11.61,11.61,0,0,1-2.53.27A13.11,13.11,0,0,1,197,52.59Z"/><path class="cls-1" d="M107.49,41a16.31,16.31,0,0,0-.47-3.4h-5.35a12.63,12.63,0,0,1,.37,2.57,6.91,6.91,0,0,1-1.22,3.89C88.7,37.06,85,34,85,31.4s2.42-3.83,6.78-3.83a23,23,0,0,1,8.71,1.67v-5.4a31,31,0,0,0-9-1.26c-7.34,0-12.43,2.83-12.43,9.23a8.05,8.05,0,0,0,2.1,5.11c-3.05,2.72-4.36,5.39-4.36,7.86,0,6.15,5.14,9.18,14.59,9.18a19.34,19.34,0,0,0,11-3.41l5.35,2.94v-5.2l-2-1.25A11,11,0,0,0,107.49,41ZM84.76,40.3c3.94,3,7.77,4.79,12.24,7.26A11.44,11.44,0,0,1,91.43,49c-5.77,0-8.66-2.42-8.66-5.09C82.77,42.83,83.45,41.74,84.76,40.3Z"/><path class="cls-1" d="M139.58,37a5.56,5.56,0,0,0,3.32-5c0-6.77-4.15-8.39-10.87-8.39H112.61V52.91h20.78c8.5,0,12.13-2.51,12.13-8.76A7.17,7.17,0,0,0,139.58,37Zm-6.19,10.92h-14.8V28.66H132c2.67,0,4.56.75,4.56,3.36,0,2.41-1.94,3.36-4.56,3.36H121.84l2.58,5h9c3.78,0,5.77.91,5.77,3.79S137,47.93,133.39,47.93Z"/><path class="cls-1" d="M74.5,33.24c0-4.52-3.31-9.61-10.86-9.61H44.32V52.91h6V28.66H62.22c4.41,0,6,2.14,6,4.58s-1.62,4.6-6,4.6H53.56l2.59,5h5.49L68,52.91h6.88L68,42.05A9.35,9.35,0,0,0,74.5,33.24Z"/><path class="cls-1" d="M59.45,66.47V60.32H62v.74H60.28V62.9h1.54v.73H60.28v2.84Z"/><path class="cls-1" d="M62.73,66.47V60.32h2.46v.74H63.56v1.83h1.49v.73H63.56V65.7h1.63v.77Z"/><path class="cls-1" d="M66,66.47V60.32h2.46v.74H66.86v1.83h1.49v.73H66.86V65.7h1.63v.77Z"/><path class="cls-1" d="M69.37,66.47V60.32h1.09a2,2,0,0,1,1.76.69,4,4,0,0,1,.52,2.38,4.08,4.08,0,0,1-.52,2.39,2,2,0,0,1-1.76.69Zm.83-.8h.43a1,1,0,0,0,1-.5,5.83,5.83,0,0,0,0-3.57,1,1,0,0,0-1-.5H70.2Z"/><path class="cls-1" d="M73.63,66.47V60.32h.83v6.15Z"/><path class="cls-1" d="M75.56,66.47V60.32h.77L78,64.59V60.32h.78v6.15H78l-1.61-4.3v4.3Z"/><path class="cls-1" d="M83.17,63.17c0,.13,0,.25,0,.38s0,.24,0,.35a3.64,3.64,0,0,1-.44,2,1.52,1.52,0,0,1-1.35.64A1.46,1.46,0,0,1,80,65.81a5.11,5.11,0,0,1-.42-2.41A5.18,5.18,0,0,1,80,61a1.51,1.51,0,0,1,1.39-.73,1.72,1.72,0,0,1,1.1.33,1.6,1.6,0,0,1,.57,1l-.73.35a1.28,1.28,0,0,0-.32-.67.87.87,0,0,0-.61-.21.77.77,0,0,0-.76.51,5.24,5.24,0,0,0-.22,1.86,5.31,5.31,0,0,0,.22,1.86.83.83,0,0,0,1.48.12,2.29,2.29,0,0,0,.24-1.18V64a.37.37,0,0,0,0-.11h-.87v-.72Z"/><path class="cls-1" d="M90.32,66.47V60.32h1.14a1.92,1.92,0,0,1,1.3.37,1.56,1.56,0,0,1,.4,1.19,1.9,1.9,0,0,1-.19.95,1.12,1.12,0,0,1-.64.47,1.13,1.13,0,0,1,.71.45,1.75,1.75,0,0,1,.22,1A1.83,1.83,0,0,1,92.83,66a1.78,1.78,0,0,1-1.31.43ZM91.14,63h.31a.9.9,0,0,0,.68-.23,1,1,0,0,0,.22-.73,1.08,1.08,0,0,0-.2-.73,1,1,0,0,0-.7-.21h-.31Zm0,2.72h.28a.82.82,0,0,0,1-1,1.21,1.21,0,0,0-.23-.81,1,1,0,0,0-.76-.24h-.29Z"/><path class="cls-1" d="M93.63,66.47l1.44-6.15h.78l1.44,6.15h-.84l-.29-1.21h-1.4l-.29,1.21Zm1.83-4.56-.55,2.66H96Z"/><path class="cls-1" d="M98.35,66.47V61.09H97.21v-.77h3.11v.77H99.18v5.38Z"/><path class="cls-1" d="M101,66.47V60.32h.83v2.34h1.48V60.32h.83v6.15h-.83v-3h-1.48v3Z"/><path class="cls-1" d="M109.56,66.47l-.32-.52a2.07,2.07,0,0,1-.58.44,1.34,1.34,0,0,1-.62.14,1.23,1.23,0,0,1-1-.47,1.79,1.79,0,0,1-.39-1.19,1.91,1.91,0,0,1,.21-.86,3.51,3.51,0,0,1,.67-.89,3.81,3.81,0,0,1-.39-.82,2.54,2.54,0,0,1-.13-.78,1.25,1.25,0,0,1,.34-.93,1.2,1.2,0,0,1,.92-.35,1.25,1.25,0,0,1,.91.35,1.13,1.13,0,0,1,.37.87,1.61,1.61,0,0,1-.26.83,4.24,4.24,0,0,1-.8.93l.91,1.48.58-.79.57.4-.75,1,.69,1.13Zm-.7-1.17-1-1.54a2.34,2.34,0,0,0-.38.54,1.2,1.2,0,0,0-.13.55,1,1,0,0,0,.21.66.65.65,0,0,0,.52.26.63.63,0,0,0,.37-.12A1.3,1.3,0,0,0,108.86,65.3Zm-.75-2.7a3.67,3.67,0,0,0,.53-.63,1.07,1.07,0,0,0,.16-.54.53.53,0,0,0-.14-.39.5.5,0,0,0-.38-.15.5.5,0,0,0-.38.16.64.64,0,0,0-.14.45,1.33,1.33,0,0,0,.08.47A3.69,3.69,0,0,0,108.11,62.6Z"/><path class="cls-1" d="M112.85,66.47V60.32H114a2,2,0,0,1,1.31.37,1.6,1.6,0,0,1,.4,1.19,1.89,1.89,0,0,1-.2.95,1.07,1.07,0,0,1-.63.47,1.11,1.11,0,0,1,.7.45,1.67,1.67,0,0,1,.22,1,1.87,1.87,0,0,1-.42,1.34,1.79,1.79,0,0,1-1.31.43Zm.82-3.51h.3a.94.94,0,0,0,.69-.23,1.08,1.08,0,0,0,.22-.73,1,1,0,0,0-.21-.73.94.94,0,0,0-.7-.21h-.3Zm0,2.72H114a1.05,1.05,0,0,0,.78-.22,1.09,1.09,0,0,0,.22-.77,1.21,1.21,0,0,0-.23-.81,1,1,0,0,0-.76-.24h-.29Z"/><path class="cls-1" d="M116.62,66.47V60.32h2.46v.74h-1.63v1.83h1.49v.73h-1.49V65.7h1.63v.77Z"/><path class="cls-1" d="M120,66.47V60.32H121a2.06,2.06,0,0,1,1.77.69,4.14,4.14,0,0,1,.51,2.38,4.17,4.17,0,0,1-.51,2.39,2.06,2.06,0,0,1-1.77.69Zm.84-.8h.43a1,1,0,0,0,1-.5,5.83,5.83,0,0,0,0-3.57,1,1,0,0,0-1-.5h-.43Z"/><path class="cls-1" d="M124.22,66.47V60.32h1.09a2,2,0,0,1,1.76.69,4,4,0,0,1,.52,2.38,4.08,4.08,0,0,1-.52,2.39,2,2,0,0,1-1.76.69Zm.83-.8h.43a1,1,0,0,0,1-.5,3.94,3.94,0,0,0,.29-1.79,4.1,4.1,0,0,0-.28-1.78,1,1,0,0,0-1-.5h-.43Z"/><path class="cls-1" d="M128.48,66.47V60.32h.83v6.15Z"/><path class="cls-1" d="M130.41,66.47V60.32h.77l1.63,4.27V60.32h.78v6.15h-.78l-1.61-4.3v4.3Z"/><path class="cls-1" d="M138,63.17c0,.13,0,.25,0,.38s0,.24,0,.35a3.64,3.64,0,0,1-.44,2,1.52,1.52,0,0,1-1.35.64,1.46,1.46,0,0,1-1.37-.73,5.11,5.11,0,0,1-.42-2.41A5,5,0,0,1,134.9,61a1.48,1.48,0,0,1,1.38-.73,1.72,1.72,0,0,1,1.1.33,1.6,1.6,0,0,1,.57,1l-.73.35a1.28,1.28,0,0,0-.32-.67.87.87,0,0,0-.61-.21.77.77,0,0,0-.76.51,5.24,5.24,0,0,0-.22,1.86,5.31,5.31,0,0,0,.22,1.86.83.83,0,0,0,1.48.12,2.29,2.29,0,0,0,.24-1.18V64a.37.37,0,0,0,0-.11h-.87v-.72Z"/><path class="cls-1" d="M148.23,66.47V61.09h-1.14v-.77h3.12v.77h-1.14v5.38Z"/><path class="cls-1" d="M151.67,63.47v3h-.83V60.32h1a2.18,2.18,0,0,1,1.42.37,1.59,1.59,0,0,1,.42,1.24,1.69,1.69,0,0,1-.29,1.06,1.23,1.23,0,0,1-.86.45l1.46,3h-.89l-1.41-3Zm0-.48h.26a.91.91,0,0,0,.71-.23,1.27,1.27,0,0,0,.21-.83,1,1,0,0,0-.2-.69,1.09,1.09,0,0,0-.75-.19h-.23Z"/><path class="cls-1" d="M154.1,66.47l1.44-6.15h.78l1.44,6.15h-.84l-.29-1.21h-1.4l-.29,1.21Zm1.83-4.56-.55,2.66h1.11Z"/><path class="cls-1" d="M159.8,66.47h-.69l-1.35-6.15h.84l.86,4.17.86-4.17h.83Z"/><path class="cls-1" d="M161.77,66.47V60.32h2.46v.74H162.6v1.83h1.49v.73H162.6V65.7h1.63v.77Z"/><path class="cls-1" d="M165.1,66.47V60.32h.83V65.7h1.77v.77Z"/><path class="cls-1" d="M172.71,66.47l-.32-.52a2.07,2.07,0,0,1-.58.44,1.37,1.37,0,0,1-.62.14,1.23,1.23,0,0,1-1-.47,1.79,1.79,0,0,1-.39-1.19A1.91,1.91,0,0,1,170,64a3.51,3.51,0,0,1,.67-.89,3.81,3.81,0,0,1-.39-.82,2.54,2.54,0,0,1-.13-.78,1.25,1.25,0,0,1,.34-.93,1.19,1.19,0,0,1,.91-.35,1.26,1.26,0,0,1,.92.35,1.16,1.16,0,0,1,.37.87,1.61,1.61,0,0,1-.26.83,4.24,4.24,0,0,1-.8.93l.91,1.48.58-.79.57.4-.75,1,.69,1.13ZM172,65.3l-.95-1.54a2.34,2.34,0,0,0-.38.54,1.2,1.2,0,0,0-.13.55,1,1,0,0,0,.21.66.65.65,0,0,0,.52.26.63.63,0,0,0,.37-.12A1.3,1.3,0,0,0,172,65.3Zm-.75-2.7a3.67,3.67,0,0,0,.53-.63,1.18,1.18,0,0,0,.16-.54.53.53,0,0,0-.14-.39.5.5,0,0,0-.38-.15.5.5,0,0,0-.38.16.64.64,0,0,0-.14.45A1.33,1.33,0,0,0,171,62,3.69,3.69,0,0,0,171.26,62.6Z"/><path class="cls-1" d="M179.39,63.17c0,.13,0,.25,0,.38s0,.24,0,.35a3.64,3.64,0,0,1-.44,2,1.54,1.54,0,0,1-1.36.64,1.45,1.45,0,0,1-1.36-.73,5.11,5.11,0,0,1-.42-2.41,5.18,5.18,0,0,1,.42-2.43,1.5,1.5,0,0,1,1.39-.73,1.74,1.74,0,0,1,1.1.33,1.64,1.64,0,0,1,.57,1l-.73.35a1.28,1.28,0,0,0-.32-.67.89.89,0,0,0-.61-.21.77.77,0,0,0-.76.51,5.24,5.24,0,0,0-.22,1.86,5.31,5.31,0,0,0,.22,1.86.83.83,0,0,0,1.48.12,2.29,2.29,0,0,0,.24-1.18V64a.37.37,0,0,0,0-.11h-.88v-.72Z"/><path class="cls-1" d="M180.25,66.47V60.32h2.46v.74h-1.63v1.83h1.49v.73h-1.49V65.7h1.63v.77Z"/><path class="cls-1" d="M183.1,66.47l1.44-6.15h.78l1.44,6.15h-.84l-.3-1.21h-1.4l-.28,1.21Zm1.83-4.56-.55,2.66h1.1Z"/><path class="cls-1" d="M188.2,63.47v3h-.83V60.32h1a2.22,2.22,0,0,1,1.42.37,1.59,1.59,0,0,1,.42,1.24,1.76,1.76,0,0,1-.29,1.06,1.25,1.25,0,0,1-.87.45l1.46,3h-.89l-1.4-3Zm0-.48h.26a.89.89,0,0,0,.71-.23,1.27,1.27,0,0,0,.21-.83,1,1,0,0,0-.2-.69,1.08,1.08,0,0,0-.75-.19h-.23Z"/><polygon class="cls-1" points="142.67 61.87 143.03 62.98 144.19 62.98 143.25 63.66 143.61 64.77 142.67 64.08 141.73 64.77 142.09 63.66 141.15 62.98 142.31 62.98 142.67 61.87"/><polygon class="cls-1" points="55.17 61.87 55.53 62.98 56.69 62.98 55.75 63.66 56.11 64.77 55.17 64.08 54.23 64.77 54.59 63.66 53.65 62.98 54.81 62.98 55.17 61.87"/><polygon class="cls-1" points="86.61 61.87 86.97 62.98 88.13 62.98 87.19 63.66 87.55 64.77 86.61 64.08 85.67 64.77 86.03 63.66 85.08 62.98 86.25 62.98 86.61 61.87"/><polygon class="cls-1" points="194.05 61.87 194.41 62.98 195.57 62.98 194.63 63.66 194.99 64.77 194.05 64.08 193.11 64.77 193.47 63.66 192.53 62.98 193.69 62.98 194.05 61.87"/><path class="cls-1" d="M104.73,77.37V71.23h2.62v.83h-1.74v1.86h1.52v.83h-1.52v2.62Z"/><path class="cls-1" d="M107.09,77.37l1.37-6.14h.74l1.37,6.14h-.88l-.26-1.32h-1.2L108,77.37Zm2.18-2.15L108.83,73h0l-.43,2.22Z"/><path class="cls-1" d="M113.84,73H113v-.2a1,1,0,0,0-.14-.52.53.53,0,0,0-.48-.22.5.5,0,0,0-.29.07.42.42,0,0,0-.18.17.69.69,0,0,0-.1.25,1.51,1.51,0,0,0,0,.3,2.63,2.63,0,0,0,0,.3.79.79,0,0,0,.06.22.57.57,0,0,0,.15.16,1.45,1.45,0,0,0,.28.14l.67.27a1.6,1.6,0,0,1,.47.26,1.21,1.21,0,0,1,.29.35,2,2,0,0,1,.13.47,5.21,5.21,0,0,1,0,.6,3.38,3.38,0,0,1-.08.72,1.43,1.43,0,0,1-.25.56,1.26,1.26,0,0,1-.47.38,1.74,1.74,0,0,1-.72.14,1.45,1.45,0,0,1-.59-.12,1.37,1.37,0,0,1-.48-.31,1.49,1.49,0,0,1-.31-.46,1.32,1.32,0,0,1-.12-.57v-.33h.88v.28a.66.66,0,0,0,.15.43.54.54,0,0,0,.47.2.68.68,0,0,0,.35-.07.44.44,0,0,0,.2-.18A.82.82,0,0,0,113,76c0-.11,0-.24,0-.37a3.9,3.9,0,0,0,0-.4.5.5,0,0,0-.22-.41l-.27-.13-.63-.25a1.39,1.39,0,0,1-.76-.62,2.13,2.13,0,0,1-.19-1,2.39,2.39,0,0,1,.09-.66,1.6,1.6,0,0,1,.29-.53,1.27,1.27,0,0,1,.46-.36,1.5,1.5,0,0,1,.66-.13,1.46,1.46,0,0,1,.6.12,1.56,1.56,0,0,1,.47.32,1.3,1.3,0,0,1,.4.95Z"/><path class="cls-1" d="M114.49,77.37V71.23h.88v2.63h1.09V71.23h.88v6.14h-.88V74.63h-1.09v2.74Z"/><path class="cls-1" d="M118.19,77.37V71.23h.88v6.14Z"/><path class="cls-1" d="M119.87,72.68A1.53,1.53,0,0,1,120,72a1.5,1.5,0,0,1,.34-.47,1.72,1.72,0,0,1,.47-.28,1.69,1.69,0,0,1,.53-.09,1.6,1.6,0,0,1,.53.09,1.64,1.64,0,0,1,.48.28,1.5,1.5,0,0,1,.34.47,1.69,1.69,0,0,1,.13.66v3.24a1.62,1.62,0,0,1-.13.66,1.35,1.35,0,0,1-.34.46,1.44,1.44,0,0,1-.48.28,1.39,1.39,0,0,1-.53.1,1.46,1.46,0,0,1-.53-.1,1.5,1.5,0,0,1-.47-.28,1.35,1.35,0,0,1-.34-.46,1.47,1.47,0,0,1-.13-.66Zm.88,3.24a.58.58,0,0,0,.18.47.59.59,0,0,0,.41.15.64.64,0,0,0,.42-.15.58.58,0,0,0,.18-.47V72.68a.58.58,0,0,0-.18-.47.64.64,0,0,0-.42-.15.59.59,0,0,0-.41.15.58.58,0,0,0-.18.47Z"/><path class="cls-1" d="M123.56,77.37V71.23h.84l1.33,3.7h0v-3.7h.87v6.14h-.82l-1.35-3.69h0v3.69Z"/><path class="cls-1" d="M135.54,77.37V72.06h-1v-.83h2.91v.83h-1v5.31Z"/><path class="cls-1" d="M137.67,72.68a1.53,1.53,0,0,1,.13-.66,1.5,1.5,0,0,1,.34-.47,1.72,1.72,0,0,1,.47-.28,1.69,1.69,0,0,1,.53-.09,1.6,1.6,0,0,1,.53.09,1.64,1.64,0,0,1,.48.28,1.5,1.5,0,0,1,.34.47,1.69,1.69,0,0,1,.13.66v3.24a1.62,1.62,0,0,1-.13.66,1.35,1.35,0,0,1-.34.46,1.44,1.44,0,0,1-.48.28,1.39,1.39,0,0,1-.53.1,1.46,1.46,0,0,1-.53-.1,1.5,1.5,0,0,1-.47-.28,1.35,1.35,0,0,1-.34-.46,1.47,1.47,0,0,1-.13-.66Zm.88,3.24a.58.58,0,0,0,.18.47.59.59,0,0,0,.41.15.64.64,0,0,0,.42-.15.58.58,0,0,0,.18-.47V72.68a.58.58,0,0,0-.18-.47.64.64,0,0,0-.42-.15.59.59,0,0,0-.41.15.58.58,0,0,0-.18.47Z"/><path class="cls-1" d="M142.06,77.37v-2.6l-1.21-3.54h.93l.71,2.44h0l.71-2.44h.93l-1.21,3.54v2.6Z"/><path class="cls-1" d="M147.42,73h-.88v-.2a.88.88,0,0,0-.14-.52.51.51,0,0,0-.48-.22.52.52,0,0,0-.29.07.58.58,0,0,0-.18.17.54.54,0,0,0-.09.25,1.53,1.53,0,0,0,0,.3,2.63,2.63,0,0,0,0,.3.57.57,0,0,0,.07.22.38.38,0,0,0,.15.16,1.1,1.1,0,0,0,.27.14l.67.27a1.67,1.67,0,0,1,.48.26,1.17,1.17,0,0,1,.28.35,1.62,1.62,0,0,1,.13.47,5.21,5.21,0,0,1,0,.6,3.38,3.38,0,0,1-.07.72,1.8,1.8,0,0,1-.25.56,1.21,1.21,0,0,1-.48.38,1.66,1.66,0,0,1-.71.14,1.5,1.5,0,0,1-.6-.12,1.25,1.25,0,0,1-.47-.31,1.52,1.52,0,0,1-.32-.46,1.48,1.48,0,0,1-.11-.57v-.33h.88v.28a.65.65,0,0,0,.14.43.55.55,0,0,0,.48.2.7.7,0,0,0,.35-.07.47.47,0,0,0,.19-.18.66.66,0,0,0,.08-.29c0-.11,0-.24,0-.37s0-.3,0-.4a.75.75,0,0,0-.07-.25.61.61,0,0,0-.16-.16l-.26-.13-.63-.25a1.42,1.42,0,0,1-.77-.62,2.28,2.28,0,0,1-.19-1,2.07,2.07,0,0,1,.1-.66,1.42,1.42,0,0,1,.28-.53,1.27,1.27,0,0,1,.46-.36,1.54,1.54,0,0,1,.67-.13,1.46,1.46,0,0,1,.6.12,1.7,1.7,0,0,1,.47.32,1.33,1.33,0,0,1,.39.95Z"/><polygon class="cls-1" points="130.6 73.08 130.96 74.19 132.12 74.19 131.18 74.87 131.54 75.98 130.6 75.3 129.66 75.98 130.02 74.87 129.08 74.19 130.24 74.19 130.6 73.08"/><polygon class="cls-1" points="153.41 73.08 153.77 74.19 154.93 74.19 153.99 74.87 154.35 75.98 153.41 75.3 152.47 75.98 152.83 74.87 151.89 74.19 153.05 74.19 153.41 73.08"/><polygon class="cls-1" points="99.03 73.08 99.39 74.19 100.56 74.19 99.62 74.87 99.97 75.98 99.03 75.3 98.09 75.98 98.45 74.87 97.51 74.19 98.68 74.19 99.03 73.08"/></svg>