<svg id="Layer_1" data-name="Layer 1" xmlns="http://www.w3.org/2000/svg" viewBox="0 0 250 100"><defs><style>.cls-1{fill:#897969;}.cls-2{fill:#2b2624;}.cls-3{fill:#fff;}</style></defs><rect class="cls-1" x="81.11" y="11.03" width="81.65" height="77.94"/><rect class="cls-2" x="84.98" y="14.89" width="73.92" height="70.23"/><path class="cls-1" d="M122,49h0c-.29,0-.63-.28-1.33-.93l-.17-.15c-6.52-6-11.24-10.4-16.73-16-2.47-2.48-4.88-4.68-7.43-7-1.21-1.1-2.45-2.23-3.75-3.44l-.36-.33c-1.09-1-3.37-3.13-3.58-3.46l-.09-.13c-.06-.09-.12-.17-.08-.24s.16-.1.57-.13c1.51-.09,3.18-.12,5.11-.12,4.64,0,9.73.24,14.23.46l3.08.15c.2,0,.23,0,.28.14a.11.11,0,0,1,0,.1c0,.05-.08.09-.23.13a3,3,0,0,0-1.1.67,4.35,4.35,0,0,1-.6.48.47.47,0,0,1-.28,0,38,38,0,0,0-6.54-.48c-2.16,0-4.33.1-6.25.19-.55,0-1.23.05-1.88.06l-1.37,0h-.08c-.1,0-.25,0-.26,0s0,.05.14.21c7,7.64,14.68,14.56,22.8,21.89,1.77,1.61,3.61,3.26,5.41,4.89a1.72,1.72,0,0,1,.29.37s0,.1.08.1a1.1,1.1,0,0,0,.34-.27l14-12.79.1,0c.25,0,.73.44,1,.7s.21.27.2.37a.29.29,0,0,1-.13.18l0,0c-2.45,2.06-4.53,4.1-6.74,6.27-.31.32-.63.63-1,.94l-.43.43c-2.08,2-4.44,4.36-6.69,6.35A.75.75,0,0,1,122,49"/><path class="cls-1" d="M112.57,27.37h0a.26.26,0,0,1-.17-.08,1.47,1.47,0,0,1-.66-1.11c.05-.62.8-1.12,1.72-1.66a6,6,0,0,0,2-1.62c0-.07.26-.08.26-.08s.18,0,.18.08a3.13,3.13,0,0,0,.45.59c.29.33.37.43.35.49v0l0,0a11.77,11.77,0,0,0-1.32,1.25,3.07,3.07,0,0,0-.25.26,6.19,6.19,0,0,1-2.37,1.79l0,0-.13,0"/><path class="cls-1" d="M107.39,31.66h-.09a1.69,1.69,0,0,1-.94-.86c-.08-.14.4-.88,1.14-1.42a9.85,9.85,0,0,0,1-.8.1.1,0,0,1,.07,0,2.25,2.25,0,0,1,1.22,1.54c0,.07,0,.1-.2.18a5.78,5.78,0,0,0-.76.54,2.87,2.87,0,0,1-1.45.84"/><path class="cls-1" d="M117.65,35.8h0c-.05,0-.1,0-.17-.12a30,30,0,0,0-3.86-3.55c-2-1.68-4.12-3.56-5.07-6.33a4.22,4.22,0,0,1,0-2.19.12.12,0,0,1,.06-.06,2.25,2.25,0,0,1,.58-.08,1.63,1.63,0,0,1,1.26.47c0,3,1.72,4.68,3.87,6.83l.28.28c.42.41,1,1,1.43,1.47a8.72,8.72,0,0,0-.2-3.91c0-.11-.05-.23-.07-.34-.14-.64-.28-1.31-.36-2,0,0,0-.06.1-.1a2.06,2.06,0,0,0,.35-.27,1,1,0,0,1,.49-.29.09.09,0,0,1,.09.05,4.76,4.76,0,0,1,.44,1.35l0,.1a41.42,41.42,0,0,1,.82,8.39c0,.14,0,.2,0,.23l0,0"/><path class="cls-1" d="M105.89,29.24h0c-.06,0-.12,0-.21-.13-1.67-1.82-3.27-3.43-5.06-5.07-.4-.37-.82-.74-1.26-1.13-.79-.7-1.6-1.41-2.35-2.16-.09-.08-.14-.15-.12-.21s.09-.06.16-.06h.11l1.41,0c1.09,0,2.21,0,3.29-.08s2.25-.09,3.37-.09c2.83,0,6.06.24,8.55,2.08,0,0,0,.06,0,.12s0,.54-.86,1.1l-.35.28c-.11.09-.16.13-.21.13s0,0,0,0c-1.65-1.31-3.9-1.92-7.11-1.92-1.39,0-2.76.11-4,.21h0a4.61,4.61,0,0,0-.51.06l.07.08a2,2,0,0,1,.24.29A21.77,21.77,0,0,0,103,24.51c1.34,1.18,3,2.64,4.18,3.84.07.08,0,.31-.21.47a2.49,2.49,0,0,1-.92.39l0,0h-.08"/><path class="cls-1" d="M120.8,42.47a1,1,0,0,1-.53-.3L119,41l-1.85-1.6-.32-.27c-2.58-2.18-5.24-4.43-7.86-6.84-.06-.07-.14-.14-.09-.24a1.58,1.58,0,0,1,.6-.46l.17-.1.26-.17a.36.36,0,0,1,.2-.1s0,0,0,0A55.9,55.9,0,0,0,116,36.59a23.38,23.38,0,0,1,2.24,2c.31.3.62.59.92.86l.42.41a4,4,0,0,0,.31.28,3.13,3.13,0,0,0-.1-.7l0-.17a31.9,31.9,0,0,1-.37-4.66c0-.38,0-.76,0-1.12-.19-4.75-.39-9.66-4.6-12.54,0,0-.09-.07-.09-.11s0-.06.06-.09a3,3,0,0,1,1.84-.54.58.58,0,0,1,.46.19c4.16,3.95,4,10,3.89,15.84,0,2-.09,4.14.06,6a.24.24,0,0,1,0,.17.18.18,0,0,1-.12,0"/><path class="cls-1" d="M112.51,20.35h-.06c-.18,0-.6-.09-.86-.11-.51,0-1.3-.22-1.36-.39a.08.08,0,0,1,0-.09A9.14,9.14,0,0,1,113,17.82a13.22,13.22,0,0,1,4.35-.77,10.32,10.32,0,0,1,3.07.45.23.23,0,0,1,.14.16c0,.11-.08.25-.3.38a4.84,4.84,0,0,0-.64.47c-.44.35-.44.35-2.55.4h-.19c-1.5,0-3,.06-4.21,1.32l0,0c-.06.07-.09.1-.15.1"/><path class="cls-1" d="M126.8,24a19.6,19.6,0,0,1-3.88-2.87.13.13,0,0,1,0-.15c.11-.24,1-.45,1.06-.45a7.18,7.18,0,0,1,3,1.64l.09.07.33.22c.32.21.41.28.41.33a.08.08,0,0,1,0,.05l-.18.23c-.1.13-.23.31-.33.43s-.12.15-.18.22-.21.28-.27.28Z"/><path class="cls-1" d="M134.64,25.83a.22.22,0,0,1-.11,0c-1.19-.45-1.21-.5-1.09-1a4.27,4.27,0,0,0,.1-1.35,4.85,4.85,0,0,0-1.4-3.18s0-.05,0-.09.19-.19.44-.19l.25-.05a3,3,0,0,1,.49-.08.13.13,0,0,1,.1,0,6,6,0,0,1,1.37,5.82c0,.07-.05.16-.14.16"/><path class="cls-1" d="M134,29.4a.49.49,0,0,1-.4-.14,9.83,9.83,0,0,0-3.4-2.63.39.39,0,0,1-.18-.21.54.54,0,0,1,.12-.41c.22-.37.71-1,.89-1h0a11.75,11.75,0,0,1,3,1.84c.2.16.42.31.63.47.54.38.73.51.72.6a1.3,1.3,0,0,1-.58,1l-.29.27a.74.74,0,0,1-.5.15"/><path class="cls-1" d="M126.32,35.61h0c-.14,0-.14-.17-.15-.75,0-.29,0-.71,0-1.26-.15-3.15-.34-7.07,1.89-9.56a6.37,6.37,0,0,1,2.37-1.83c.26-.14.53-.26.85-.46a1.12,1.12,0,0,1,.32-.05.43.43,0,0,1,.28.07,2,2,0,0,1,.48,1.22v0c0,.18,0,.22-.09.26a6.64,6.64,0,0,0-2.91,2.13A7.94,7.94,0,0,0,128,31.88c0,.07,0,.13,0,.17v0h0a.83.83,0,0,1,.29-.21A8,8,0,0,0,131,29.06a1.2,1.2,0,0,1,.63-.42l.06,0a4.44,4.44,0,0,0,.61.28c.25.09.42.16.46.29a.26.26,0,0,1-.06.22,23.37,23.37,0,0,1-5.92,5.9l-.15.1c-.13.1-.21.16-.28.16"/><path class="cls-1" d="M138.78,33.58h-.05a5.47,5.47,0,0,1-1.57-1.28c-.2-.2-.38-.38-.46-.44a.08.08,0,0,1,0-.07s0-.17.64-.76l.13-.13c.22-.22.42-.4.59-.4h.06a3.27,3.27,0,0,1,1.33,1,7.18,7.18,0,0,1,.48.57l.21.25s.05.05,0,.14a2.8,2.8,0,0,1-1.35,1.11"/><path class="cls-1" d="M119.79,21.85s-.15,0-.56-.58c0,0-.53-.78-.35-.91a1.43,1.43,0,0,1,.23-.15c.41-.27,1.37-.9,2.82-1.93A8.22,8.22,0,0,1,126.64,17a12.41,12.41,0,0,1,2,.16c.12,0,.25,0,.27.14s-.08.17-.28.27L128,18a10.58,10.58,0,0,1-.95.5.16.16,0,0,0-.09.05,1.76,1.76,0,0,1-1,.29h-.28a8.81,8.81,0,0,0-5.78,3,.12.12,0,0,1-.08,0"/><path class="cls-1" d="M123.41,43c-.13,0-.2-.11-.23-.33a11.62,11.62,0,0,1,0-2.5,31.75,31.75,0,0,0-.22-4.71c-.07-.81-.14-1.51-.14-1.85,0-3.43.14-7,1.34-9.71a.31.31,0,0,1,.28-.24.81.81,0,0,1,.38.14c1,.63,1,.78.93.83-1.36,2.94-1.26,6.28-1.16,9.5a45.68,45.68,0,0,1-.06,5.28v.15a2.15,2.15,0,0,0,0,.61,2.06,2.06,0,0,0,.34-.31l.33-.33c1.24-1.2,2.54-2.43,3.8-3.63l0,0c.68-.65,1.38-1.3,2.07-2A116.75,116.75,0,0,0,142.5,22.14l.14-.16.06-.07h-.3a4.18,4.18,0,0,0-.51,0,17.62,17.62,0,0,0-2.59.26,20.56,20.56,0,0,1-2.81.26l-.59,0a.33.33,0,0,1-.32-.25,3.17,3.17,0,0,0-.31-.78l-.15-.35c0-.05-.05-.1,0-.15s.09-.05.21-.05c2.38,0,10.21-.09,10.92-.11.35,0,.53,0,.57.08s-.07.17-.32.36A26.3,26.3,0,0,0,142,25.28c-1.24,1.43-2.07,2.21-3,3.12-.5.46-1,1-1.72,1.67-4.38,4.4-8.92,9-13.5,12.78a.56.56,0,0,1-.32.17"/><path class="cls-1" d="M140.76,31.38h0c-.06,0-.14-.07-.28-.21a2.93,2.93,0,0,0-.31-.29.69.69,0,0,1-.31-.43.51.51,0,0,1,.13-.33c3-3.26,8.76-9.13,11.43-11-.25-.43-2.73-.46-4.23-.47-.5,0-.93,0-1.23,0l-.5,0c-1.79-.09-3.63-.19-5.43-.19-3.49,0-8,.31-11.73,2.69a.4.4,0,0,1-.23.06.86.86,0,0,1-.42-.15l-.19-.1c-.37-.17-.8-.48-.83-.64a.09.09,0,0,1,0-.08c3.34-2.74,7.65-3.12,11.79-3.12,1.07,0,2.15,0,3.21.06H142l1.79,0c1.66,0,3.06-.05,4.44-.1,1.14,0,2.22-.08,3.26-.08a26.86,26.86,0,0,1,3.64.21c.09,0,.18,0,.2.09s0,.2-.14.41c-.63,1-13.19,12.64-14.36,13.69l-.05,0"/><path class="cls-1" d="M87.64,81.78c-.16,0-.18-.2-.22-.7A202.73,202.73,0,0,1,87.77,60c0-.19,0-.22.14-.27H88c.08,0,.12.09.16.24a2.79,2.79,0,0,0,.72,1,4.28,4.28,0,0,1,.51.57.36.36,0,0,1,0,.26c-.75,3.78-.51,8.22-.3,12.14,0,.53,0,1.16.06,1.78,0,.47,0,.91,0,1.3,0,.16,0,.22.06.22a.8.8,0,0,0,.3-.19c8.82-7.25,16.83-15.17,25.32-23.56l3.08-3,.1-.09c.08-.07.12-.11.12-.16s-.13-.21-.36-.43c-2.19-2.13-13.24-13.14-13.34-13.24a.16.16,0,0,1,0-.12c0-.24.48-.69.75-.91a.64.64,0,0,1,.35-.19c.11,0,.16.07.22.12s0,0,0,0c2.35,2.52,4.66,4.71,7.62,7.42,2,1.81,4.56,4.2,7,6.61.28.28.44.47.44.72s-.23.6-.85,1.2c-6.78,6.57-11.29,10.85-17.11,16-3.2,2.85-5.91,5.46-9,8.48l-2,1.95-1,1.06c-1.13,1.15-2.55,2.57-2.82,2.73a.7.7,0,0,1-.27.11"/><path class="cls-1" d="M96.81,59.69h0c-.65,0-1.19-.77-1.76-1.62a5.54,5.54,0,0,0-1.71-1.92c-.07,0-.09-.23-.08-.31s.06-.11.09-.11a3.35,3.35,0,0,0,.61-.42c.41-.33.51-.38.55-.32a13.76,13.76,0,0,0,1.33,1.25l.28.25A6,6,0,0,1,98,58.73a.11.11,0,0,0,0,.05.21.21,0,0,1-.06.28,1.65,1.65,0,0,1-1.11.63"/><path class="cls-1" d="M101.59,64.8a3.08,3.08,0,0,1-1.45-1.09c-.23-.29-.73-.88-.83-1a.08.08,0,0,1,0-.09,2.45,2.45,0,0,1,1.63-1.15h0c.06,0,.1.08.18.2a4.22,4.22,0,0,0,.57.73c.42.42,1,1,.87,1.47a1.65,1.65,0,0,1-.9.88h0"/><path class="cls-1" d="M95.32,62.83h0c-.46,0-1.3-.07-1.34-.21A1.85,1.85,0,0,1,94.21,61q.12-.15.18-.15c3.17,0,5-1.65,7.22-3.68l.3-.27c.45-.4,1.09-1,1.54-1.34a8.48,8.48,0,0,0-1.57-.14,12.26,12.26,0,0,0-2.56.32l-.36.07c-.64.13-1.37.27-2.07.34,0,0-.06,0-.1-.09a1.94,1.94,0,0,0-.28-.33c-.17-.16-.33-.37-.31-.49s0-.06,0-.07a5.64,5.64,0,0,1,1.42-.42l.1,0a50.13,50.13,0,0,1,8.89-.78h0c.14,0,.22,0,.24.08s0,.11-.12.18A31.84,31.84,0,0,0,103,57.9c-1.78,1.94-3.76,3.91-6.68,4.82a4.16,4.16,0,0,1-1,.11"/><path class="cls-1" d="M90.83,73.78h0s0,0-.06,0,0-.12,0-.25c.07-1.43,0-3-.06-4.45-.18-4.08-.36-8.31,2.11-11.31,0,0,0,0,.11,0s.57,0,1.17.81l.29.34c.12.12.18.19.12.25-2.5,2.82-2.12,7.08-1.8,10.51v0a2.54,2.54,0,0,0,.06.48s.06,0,.09-.07a2.35,2.35,0,0,1,.3-.22A21.25,21.25,0,0,0,95,68c1.24-1.28,2.79-2.87,4-4,.07-.07.31,0,.49.2a2.26,2.26,0,0,1,.41.87.13.13,0,0,0,0,0c0,.08,0,.14-.13.27-1.92,1.57-3.62,3.1-5.36,4.8L93.3,71.43c-.73.75-1.5,1.53-2.29,2.25-.09.07-.14.1-.18.1"/><path class="cls-1" d="M103.07,62.45h0l-.07,0a1.49,1.49,0,0,1-.49-.58l-.1-.14c-.06-.1-.12-.18-.17-.25s-.16-.2-.09-.25a54,54,0,0,0,5.61-5.58,23.13,23.13,0,0,1,2.08-2.12l.92-.87.42-.41a2,2,0,0,0,.29-.28s0,0,0,0-.35.05-.7.1l-.18,0a35.46,35.46,0,0,1-4.92.35l-1.19,0c-5,.18-10.2.38-13.25,4.37a.14.14,0,0,1-.11.07.1.1,0,0,1-.09,0,2.65,2.65,0,0,1-.57-1.75.5.5,0,0,1,.19-.43c3.49-3.28,8.53-3.74,13.47-3.74,1.09,0,2.2,0,3.27.05s2.13,0,3.19,0c1.26,0,2.28,0,3.2-.1a.21.21,0,0,1,.21.1c0,.12,0,.3-.3.57l-1.18,1.22-1.7,1.77-.27.28c-2.31,2.45-4.7,5-7.26,7.47-.06.06-.11.11-.17.11"/><path class="cls-1" d="M90,61.13h0l-.07,0a8.92,8.92,0,0,1-2-2.62,10.2,10.2,0,0,1-.33-7,.2.2,0,0,1,.18-.14c.11,0,.24.1.37.29a6.59,6.59,0,0,0,.5.61c.37.42.37.42.42,2.41v.19c0,1.42.06,2.9,1.38,4l0,0c.09.08.12.1.1.2a7.27,7.27,0,0,0-.12.82c0,.52-.25,1.3-.44,1.3"/><path class="cls-1" d="M91.33,49.13h0a.26.26,0,0,1-.18-.11,2.44,2.44,0,0,1-.35-.92,6.53,6.53,0,0,1,1.74-2.87l.06-.07c.07-.08.16-.2.24-.31.21-.29.29-.39.35-.39l0,0,.23.16a5.4,5.4,0,0,1,.46.33l.24.16c.2.14.29.2.29.26a18.54,18.54,0,0,1-3,3.7.12.12,0,0,1-.09,0"/><path class="cls-1" d="M90.41,40.35c-.09,0-.24-.14-.24-.42a1.32,1.32,0,0,0,0-.25c-.08-.36-.11-.51-.05-.56a6.32,6.32,0,0,1,4.31-1.53,7.4,7.4,0,0,1,1.83.23c.07,0,.14,0,.16.1a.17.17,0,0,1,0,.14c-.49,1.14-.55,1.15-1.12,1a4.77,4.77,0,0,0-1-.11l-.38,0a5.48,5.48,0,0,0-3.35,1.32s0,0-.06,0"/><path class="cls-1" d="M96.94,42.34h0a.87.87,0,0,1-.37-.12c-.33-.18-1.06-.71-1-.88a11,11,0,0,1,2-2.81l.48-.59c.38-.48.55-.67.63-.69a1.24,1.24,0,0,1,.27,0c.81,0,1.07.9,1.13,1.29a.91.91,0,0,0,.06.16c.05.11.05.17-.09.26a9.77,9.77,0,0,0-2.79,3.23.34.34,0,0,1-.28.18"/><path class="cls-1" d="M101.84,46.11h0c-2.34,0-5.28-.21-7.34-1.87A6.18,6.18,0,0,1,92.56,42a8,8,0,0,0-.49-.81c0-.07-.09-.47,0-.57a2.18,2.18,0,0,1,1.28-.46h0l.15,0c.09,0,.11,0,.13.1A6.43,6.43,0,0,0,95.94,43a8.14,8.14,0,0,0,4.86,1.41,12.59,12.59,0,0,0,2-.16l.18,0h0a.83.83,0,0,1-.22-.27,8.06,8.06,0,0,0-3-2.5,1.29,1.29,0,0,1-.42-.54.15.15,0,0,1,0-.13,4.4,4.4,0,0,0,.29-.57c.11-.26.19-.44.36-.44a.49.49,0,0,1,.18,0,23.69,23.69,0,0,1,6.23,5.63l.12.14c.12.15.19.24.15.31s-.21.09-.78.1c-.32,0-.75,0-1.34,0-.93,0-1.84.07-2.75.07"/><path class="cls-1" d="M102.68,36h0c-.05,0-.19,0-.8-.61l-.13-.13c-.26-.23-.47-.44-.42-.61.16-.45.3-.6.91-1.12.16-.14.42-.34.63-.5l.34-.26a.08.08,0,0,1,.08,0c.22,0,.72.49,1,.85s.25.39.23.49c-.1.38-.81,1-1.31,1.46-.22.19-.39.36-.46.43s0,0-.07,0"/><path class="cls-1" d="M90.84,53.1h0a.12.12,0,0,1-.09,0s-.09-.12-.21-.28c-.36-.47-1.08-1.44-2.14-2.76-1.74-2.18-1.32-5.45-1.15-6.4,0-.06,0-.25.17-.25s.16.08.27.26.26.45.39.65.36.58.52.91l.05.09a1.48,1.48,0,0,1,.31.94c-.16,1.66,1.54,4.7,3.32,5.89a.07.07,0,0,1,0,.08s0,.15-.61.53a2.59,2.59,0,0,1-.87.37"/><path class="cls-1" d="M104.15,49.22c-3.24,0-6.94-.15-9.77-1.27-.12-.05-.23-.1-.26-.2s0-.23.15-.43c.44-.65.73-1,.87-.89a19.42,19.42,0,0,0,7.41,1.15c.88,0,1.77,0,2.63,0s1.78,0,2.73,0c1.13,0,2.06,0,2.85.1h.16l.52,0c.1,0,.12,0,.12,0a2.34,2.34,0,0,0-.32-.31l-.35-.31c-1.32-1.23-2.73-2.57-3.87-3.64l-2.07-2A120.46,120.46,0,0,0,92.49,30.51l-.17-.13-.08-.06v.09c0,.05,0,.11,0,.19a12.91,12.91,0,0,0,.26,2.94,14.3,14.3,0,0,1,.25,3.23.32.32,0,0,1-.25.31,4.12,4.12,0,0,0-.84.28,1.94,1.94,0,0,1-.36.15l-.1,0c-.11,0-.11-.15-.11-.21v-.55C91,34.51,91,27.62,91,27c0-.3,0-.46,0-.52a.11.11,0,0,1,.07,0c.07,0,.17.09.34.31a26.54,26.54,0,0,0,4.4,4.3,39.71,39.71,0,0,1,3.29,2.86c.5.45,1.06,1,1.76,1.62,4.66,4.14,9.47,8.44,13.52,12.8.1.12.21.25.16.36s-.14.14-.34.17a13,13,0,0,1-2.64,0c-.23,0-.51,0-.83,0-1.22,0-2.84.13-4.14.25-.85.06-1.6.13-2,.13Z"/><path class="cls-1" d="M90.47,45.56l-.06,0c-3.52-3.86-3.38-8.9-3.24-14.23V31c0-2.09,0-3.9-.11-5.49a24.34,24.34,0,0,1,.3-7c0-.1.06-.2.16-.2a1,1,0,0,1,.36.15c1.09.6,13.3,12.58,14.34,13.62a.11.11,0,0,1,0,.06c0,.06-.08.13-.23.26s-.21.19-.3.29a.67.67,0,0,1-.49.3.46.46,0,0,1-.3-.12C97.48,30,91.28,24.58,89.28,22.05c-.47.22-.5,2.49-.51,4,0,.47,0,.88,0,1.17l0,.47c-.32,5.72-.65,11.62,2.64,16.28.16.22,0,.42-.1.62l-.1.18c-.18.36-.52.78-.69.78"/><path class="cls-1" d="M146.94,82.88c-4.61,0-9.76-.18-14.51-.52-.2,0-.23,0-.28-.14s0-.06,0-.1.09-.09.24-.12a3,3,0,0,0,1.1-.69,3.17,3.17,0,0,1,.6-.47.39.39,0,0,1,.27,0,38.17,38.17,0,0,0,6.55.48c2.15,0,4.42-.11,6.25-.2L149,81l1.39,0c.13,0,.14,0,.14,0s-.15-.24-.28-.38c-7.49-8.17-15.6-15.52-24.17-23.3l-3.74-3.4a2.74,2.74,0,0,1-.26-.28.28.28,0,0,0-.08-.08s-.09.06-.19.15l-.19.18c-2.38,2.19-13.84,12.63-13.92,12.7a.17.17,0,0,1-.1,0c-.26,0-.73-.45-1-.71s-.21-.26-.2-.35.08-.14.13-.19l.05,0c2-1.71,3.72-3.41,5.52-5.22.65-.66,1.33-1.35,2-2,1.89-1.86,4.25-3.94,6.32-5.77l1.09-1a.55.55,0,0,1,.38-.18c.26,0,.57.2,1.27.85l.12.12c6.54,6,11.27,10.43,16.77,16,2.47,2.49,4.89,4.69,7.44,7,1.21,1.11,2.45,2.24,3.74,3.44.09.1.25.23.42.4,1.1,1,3.15,2.91,3.36,3.23l.08.13c.07.1.12.17.09.24s-.16.11-.58.13c-2.31.13-4.92.2-7.74.2"/><path class="cls-1" d="M128.14,77.2c-.1,0-.17,0-.18-.09a4.1,4.1,0,0,0-.44-.56c-.3-.35-.37-.44-.36-.5v0l0,0a15.94,15.94,0,0,0,1.32-1.25l.25-.27a6.42,6.42,0,0,1,2.36-1.78l.06,0a.24.24,0,0,1,.3,0,1.45,1.45,0,0,1,.65,1.11c0,.62-.8,1.12-1.71,1.66a6,6,0,0,0-2,1.62c0,.07-.25.07-.26.07"/><path class="cls-1" d="M135.3,71.47h0a2.26,2.26,0,0,1-1.23-1.54c0-.07.05-.1.2-.19a4.67,4.67,0,0,0,.77-.53,2.87,2.87,0,0,1,1.44-.85h.1a1.72,1.72,0,0,1,.93.86c.08.13-.39.88-1.14,1.42-.3.22-.93.7-1,.79a.09.09,0,0,1-.06,0"/><path class="cls-1" d="M134.65,76.56h0a1.63,1.63,0,0,1-1.26-.47c0-3-1.73-4.7-3.87-6.83l-.29-.28c-.43-.43-1-1-1.42-1.47a8.56,8.56,0,0,0,.19,3.9c0,.12.05.23.08.35.15.7.28,1.33.35,1.95,0,0,0,.07-.1.11a1.89,1.89,0,0,0-.34.26,1,1,0,0,1-.5.31.11.11,0,0,1-.09-.06A5.1,5.1,0,0,1,127,73a.81.81,0,0,0,0-.09,42.29,42.29,0,0,1-.82-8.41.37.37,0,0,1,0-.23.11.11,0,0,1,.06,0s.09,0,.16.12a32.25,32.25,0,0,0,3.86,3.56c2.05,1.68,4.12,3.55,5.07,6.31a4.4,4.4,0,0,1,0,2.2.11.11,0,0,1-.07.06,2.18,2.18,0,0,1-.57.08"/><path class="cls-1" d="M138.64,79.69c-2.83,0-6.06-.25-8.55-2.09,0,0,0,0,0-.11s0-.54.86-1.1a3.5,3.5,0,0,0,.35-.28c.11-.08.16-.13.21-.13h.05c1.64,1.32,3.9,1.92,7.1,1.92,1.39,0,2.77-.1,4-.2h0a4.28,4.28,0,0,0,.5-.06s0-.06-.07-.09a1.49,1.49,0,0,1-.23-.28,26,26,0,0,0-1.93-1.77c-1.34-1.17-3-2.63-4.17-3.83-.08-.09,0-.32.2-.47a2.56,2.56,0,0,1,.92-.39l0,0,.08,0c.06,0,.12,0,.21.14,1.66,1.82,3.26,3.42,5.05,5.07.41.37.82.74,1.26,1.12.79.7,1.6,1.42,2.36,2.16.09.09.14.15.12.22s-.1.06-.17.06h-.11c-.44,0-.9,0-1.4,0-1.09,0-2.21,0-3.29.09s-2.25.09-3.38.09"/><path class="cls-1" d="M127.42,79.85h-.1a.6.6,0,0,1-.46-.19c-4.16-4-4-10-3.9-15.84.05-2,.09-4.14,0-6a.15.15,0,0,1,0-.15c.09-.11.32,0,.64.23L124.92,59c.61.53,1.23,1.07,1.84,1.58l.33.28c2.57,2.18,5.22,4.43,7.84,6.85.08.07.13.13.1.22s-.31.3-.61.47l-.16.09a2.28,2.28,0,0,0-.26.18.53.53,0,0,1-.21.1s0,0,0,0a58.49,58.49,0,0,0-5.88-5.31,22.11,22.11,0,0,1-2.23-2l-.92-.87-.43-.39a1.27,1.27,0,0,0-.31-.28,3.64,3.64,0,0,0,.11.7l0,.16a30.47,30.47,0,0,1,.37,4.66c0,.38,0,.75,0,1.13.2,4.74.4,9.65,4.61,12.53,0,0,.08.06.08.11a.08.08,0,0,1-.06.08,3,3,0,0,1-1.73.55"/><path class="cls-1" d="M126.52,83h0a10,10,0,0,1-3.08-.46.17.17,0,0,1-.13-.15c0-.11.08-.24.3-.38a6.75,6.75,0,0,0,.63-.47c.44-.35.44-.35,2.55-.4H127c1.51,0,3.06-.07,4.21-1.32l0,0c.05-.07.08-.1.15-.1h0c.18,0,.61.09.87.11.5,0,1.3.22,1.35.39a.09.09,0,0,1,0,.09,8.89,8.89,0,0,1-2.75,1.93,13.17,13.17,0,0,1-4.34.77"/><path class="cls-1" d="M119.93,79.48h0a7.18,7.18,0,0,1-3-1.64l-.08-.06a3.66,3.66,0,0,0-.33-.23c-.32-.21-.4-.27-.41-.33s0,0,0,0l.17-.22a5,5,0,0,1,.34-.43l.18-.23c.14-.19.21-.27.27-.28A20,20,0,0,1,121,78.88a.16.16,0,0,1,0,.16c-.11.24-1,.44-1.06.44"/><path class="cls-1" d="M110.56,80.21h0a.13.13,0,0,1-.1,0,5.92,5.92,0,0,1-1.36-5.82c0-.09.06-.21.24-.14,1.19.45,1.21.5,1.09,1a4.21,4.21,0,0,0-.1,1.35,4.91,4.91,0,0,0,1.4,3.17.09.09,0,0,1,0,.1c0,.09-.18.19-.43.19l-.27,0a2.07,2.07,0,0,1-.48.09"/><path class="cls-1" d="M112.83,75h0a11.73,11.73,0,0,1-3-1.85l-.64-.46c-.53-.37-.72-.51-.71-.61a1.76,1.76,0,0,1,.94-1.57.47.47,0,0,1,.17,0,.92.92,0,0,1,.65.32,10.18,10.18,0,0,0,3.4,2.64.38.38,0,0,1,.19.21c0,.1,0,.23-.13.41-.22.36-.71,1-.88,1"/><path class="cls-1" d="M112.31,78.32a.46.46,0,0,1-.28-.06,2.19,2.19,0,0,1-.48-1.22v0c0-.19,0-.23.09-.28a6.6,6.6,0,0,0,2.91-2.12,7.94,7.94,0,0,0,1.32-6.47,1.28,1.28,0,0,1,0-.17.08.08,0,0,1,0,0h0a.74.74,0,0,1-.29.21A8.11,8.11,0,0,0,112.9,71a1.2,1.2,0,0,1-.63.41h-.06a4,4,0,0,0-.61-.28c-.24-.09-.42-.16-.46-.28a.27.27,0,0,1,.06-.23,23.09,23.09,0,0,1,5.93-5.9l.14-.11c.13-.09.21-.15.28-.15s.14.18.15.75c0,.3,0,.71,0,1.26.15,3.15.34,7.07-1.89,9.56a6.59,6.59,0,0,1-2.36,1.83c-.26.13-.54.26-.86.45a.69.69,0,0,1-.32,0"/><path class="cls-1" d="M105.8,69.54h0a2.73,2.73,0,0,1-1.16-.89l-.12-.12c-.15-.16-.34-.39-.48-.57l-.21-.25s-.06-.06,0-.14a2.71,2.71,0,0,1,1.35-1.11h0a5.38,5.38,0,0,1,1.52,1.27,5.55,5.55,0,0,0,.46.45.08.08,0,0,1,0,.08s0,.17-.63.76l-.14.12c-.22.22-.41.41-.59.41"/><path class="cls-1" d="M117.24,83h0a13.77,13.77,0,0,1-2-.15c-.1,0-.25,0-.26-.15s.07-.17.28-.27l.68-.37a9.57,9.57,0,0,1,1-.5l.09,0a1.7,1.7,0,0,1,1-.29h.27a9.18,9.18,0,0,0,6-3.12.09.09,0,0,1,.07,0s.15,0,.56.58c0,0,.53.78.36.91l-.24.16c-.45.3-1.5,1-3,2A8.22,8.22,0,0,1,117.24,83"/><path class="cls-1" d="M97.43,79.34c-.21,0-.32,0-.36-.09s.06-.17.32-.35a26,26,0,0,0,4.53-4.16c1.25-1.42,2.07-2.2,3-3.11.48-.47,1-1,1.71-1.67,4.37-4.41,8.9-9,13.49-12.78a.59.59,0,0,1,.32-.17c.13,0,.2.11.23.33a11.08,11.08,0,0,1,0,2.51,33.29,33.29,0,0,0,.23,4.7c.07.8.14,1.5.14,1.85,0,3.43-.14,7-1.35,9.71,0,.1-.11.24-.27.24a.85.85,0,0,1-.38-.14c-1-.63-1-.78-.94-.84,1.36-2.93,1.26-6.26,1.17-9.49a45.6,45.6,0,0,1,0-5.27v-.16a2.38,2.38,0,0,0,0-.61,1.7,1.7,0,0,0-.34.31l-.34.33c-1.2,1.16-2.44,2.34-3.83,3.66l-2.08,2a117.77,117.77,0,0,0-11.45,11.79,1.77,1.77,0,0,0-.14.17.17.17,0,0,0-.06.06h.29a4.24,4.24,0,0,0,.51,0,17.62,17.62,0,0,0,2.59-.26h0a20.57,20.57,0,0,1,2.82-.26,5.41,5.41,0,0,1,.59,0,.31.31,0,0,1,.32.24,3.18,3.18,0,0,0,.3.78c.05.11.11.22.16.35a.18.18,0,0,1,0,.14s-.09.06-.22.06h-.68c-2.62,0-9.56.08-10.23.1h-.22"/><path class="cls-1" d="M92.64,83h0a30.24,30.24,0,0,1-3.88-.22.27.27,0,0,1-.19-.11c0-.1,0-.25.13-.47.64-1,13.26-12.59,14.36-13.58h.06c.06,0,.13.07.27.21a2.06,2.06,0,0,0,.31.28.67.67,0,0,1,.31.45.53.53,0,0,1-.12.32c-3.23,3.5-8.9,9.23-11.43,11,.24.44,2.73.47,4.23.49.49,0,.93,0,1.22,0l.51,0c1.78.09,3.63.18,5.42.18,3.5,0,8-.3,11.74-2.68a.47.47,0,0,1,.22-.07.91.91,0,0,1,.43.16l.19.1c.37.17.8.48.82.63s0,.07,0,.08c-3.35,2.74-7.65,3.12-11.8,3.12-1,0-2.15,0-3.2,0h-.32c-.63,0-1.24,0-1.89,0-1.56,0-2.91,0-4.22.08-1.1,0-2.14.07-3.14.07"/><path class="cls-1" d="M138.33,64.72h0a.3.3,0,0,1-.21-.12l0,0c-2.35-2.52-4.65-4.7-7.62-7.41s-5.25-4.89-7.17-6.83a.63.63,0,0,1-.21-.41c0-.26.23-.56.85-1.17l.14-.13c6.4-6.2,11-10.68,16.88-15.9,3-2.65,5.66-5.25,8.49-8,.87-.84,1.75-1.69,2.65-2.58.11-.09.26-.24.45-.42,1.07-1,3.05-3,3.39-3.16l.14-.08a.37.37,0,0,1,.2-.1c.12,0,.16.17.18.56a202.62,202.62,0,0,1-.34,21.11c0,.2,0,.23-.14.27l-.06,0c-.09,0-.14-.1-.18-.24a2.79,2.79,0,0,0-.72-1,4.25,4.25,0,0,1-.5-.57.36.36,0,0,1,0-.26c.75-3.79.51-8.23.3-12.15,0-.51,0-1.19-.06-1.85s0-1,0-1.39v-.12l0,0-.23.21c-9,7.4-17.14,15.45-25.77,24L126,49.49l-.11.12c-.14.13-.22.2-.22.27s.11.18.31.38l.08.08c2.24,2.19,13.23,13.08,13.3,13.16a.15.15,0,0,1,0,.11c0,.26-.48.69-.75.92a.65.65,0,0,1-.36.19"/><path class="cls-1" d="M149.46,45.06h0a.05.05,0,0,1-.05,0,15.51,15.51,0,0,0-1.32-1.24l-.28-.25a5.9,5.9,0,0,1-1.89-2.24l0,0c0-.1-.06-.16.06-.29l.17-.18c.29-.3.44-.46.75-.44.71,0,1.5.87,2,1.62a5.59,5.59,0,0,0,1.71,1.91c.06,0,.08.23.07.32s0,.11-.08.11a3.05,3.05,0,0,0-.61.43c-.31.24-.45.33-.51.33"/><path class="cls-1" d="M143.21,38.45c-.09,0-.27-.13-1-.86-.46-.46-1-1-.89-1.47a1.76,1.76,0,0,1,.91-.89h0a3.14,3.14,0,0,1,1.46,1.1,11.08,11.08,0,0,0,.83,1,.13.13,0,0,1,0,.14,1.78,1.78,0,0,1-1.37,1Z"/><path class="cls-1" d="M137.2,46c-.13,0-.22,0-.24-.07s0-.12.13-.19a31,31,0,0,0,3.75-3.66c1.78-1.93,3.76-3.9,6.68-4.8a3.8,3.8,0,0,1,1-.13c.45,0,1.29.08,1.34.21a1.88,1.88,0,0,1-.24,1.6c-.08.1-.14.16-.17.16-3.18,0-5,1.63-7.22,3.67l-.3.27c-.43.39-1.07.94-1.55,1.35a9.5,9.5,0,0,0,1.57.13,11.91,11.91,0,0,0,2.55-.32,2.57,2.57,0,0,0,.38-.08c.64-.11,1.36-.26,2.06-.33,0,0,.06,0,.11.08a1.34,1.34,0,0,0,.28.34c.16.15.32.37.31.49a.09.09,0,0,1-.05.07,5.6,5.6,0,0,1-1.43.42h-.1a48.36,48.36,0,0,1-8.88.78Z"/><path class="cls-1" d="M151,42.32c-.09,0-.56,0-1.16-.82-.12-.15-.23-.25-.3-.34s-.17-.18-.12-.24c2.51-2.82,2.12-7.08,1.81-10.51v0a2.2,2.2,0,0,0-.07-.48.23.23,0,0,0-.08.07c-.08.05-.17.14-.31.22s-.93.88-1.86,1.82c-1.25,1.28-2.79,2.88-4,4-.08.07-.32,0-.49-.2a2.08,2.08,0,0,1-.42-.87.05.05,0,0,0,0,0c-.05-.1,0-.16.12-.28,1.93-1.58,3.63-3.1,5.37-4.81l1.18-1.18c.74-.75,1.5-1.53,2.29-2.25.14-.11.2-.13.25-.08a.45.45,0,0,1,0,.23v0c-.08,1.44,0,3,.06,4.44.18,4.09.36,8.31-2.11,11.32a.15.15,0,0,1-.12,0"/><path class="cls-1" d="M130.11,49.09h0a.19.19,0,0,1-.19-.1c0-.11.05-.3.3-.56l1.17-1.21c.57-.59,1.17-1.2,1.72-1.79l.38-.4c2.27-2.41,4.62-4.9,7.14-7.34.08-.08.15-.13.24-.1s.31.3.49.59l.1.15a3,3,0,0,0,.18.24c.09.12.15.2.09.25a53.31,53.31,0,0,0-5.62,5.58A23.1,23.1,0,0,1,134,46.52c-.32.3-.63.59-.91.87s-.31.3-.43.4a3,3,0,0,0-.28.29h0a4.47,4.47,0,0,0,.71-.1l.16,0a37.54,37.54,0,0,1,4.93-.36c.4,0,.8,0,1.19,0,5-.18,10.21-.37,13.25-4.36,0,0,.07-.08.11-.08a.11.11,0,0,1,.09,0,2.64,2.64,0,0,1,.58,1.75.55.55,0,0,1-.2.44c-3.47,3.28-8.53,3.73-13.48,3.73-1.08,0-2.18,0-3.25,0s-2.2,0-3.21,0c-1.23,0-2.27,0-3.19.1Z"/><path class="cls-1" d="M156.1,48.72h0c-.11,0-.24-.09-.37-.29s-.38-.47-.49-.6c-.39-.42-.39-.42-.44-2.42v-.18c0-1.43-.06-2.9-1.38-4l0,0c-.09-.07-.13-.11-.11-.2a5.89,5.89,0,0,0,.12-.83c.05-.5.25-1.29.44-1.29a.06.06,0,0,1,.06,0A8.74,8.74,0,0,1,156,41.54a10.28,10.28,0,0,1,.33,7.05.2.2,0,0,1-.19.13"/><path class="cls-1" d="M150.69,55.57h0a0,0,0,0,1-.05,0l-.23-.15c-.16-.1-.34-.22-.47-.32a1.66,1.66,0,0,0-.24-.18c-.21-.14-.28-.19-.29-.26a19.68,19.68,0,0,1,3.14-3.94c.08-.06.18,0,.27.07a2.5,2.5,0,0,1,.35.92,7.8,7.8,0,0,1-1.9,3.19,2.78,2.78,0,0,0-.23.31c-.21.29-.3.39-.35.39"/><path class="cls-1" d="M149.5,62.44a7,7,0,0,1-1.84-.24c-.07,0-.13,0-.16-.09a.14.14,0,0,1,0-.14c.48-1.14.55-1.15,1.12-1a4.73,4.73,0,0,0,1,.1h.38a5.54,5.54,0,0,0,3.36-1.34c.07-.07.29.07.29.41,0,0,0,.14.05.24.09.37.11.51.06.56a6.38,6.38,0,0,1-4.31,1.54"/><path class="cls-1" d="M145.08,62.92h0c-.69,0-1.06-.67-1.39-1.24-.14-.22,0-.51.25-.66A9,9,0,0,0,146.59,58l.06-.1a.34.34,0,0,1,.29-.18.83.83,0,0,1,.36.12c.34.19,1.07.71,1,.87a10.84,10.84,0,0,1-1.94,2.82l-.47.57c-.5.6-.7.85-.8.85"/><path class="cls-1" d="M143.85,60.26a.35.35,0,0,1-.18-.06,23.38,23.38,0,0,1-6.24-5.62l-.11-.14c-.13-.15-.19-.24-.16-.31s.22-.09.79-.1c.31,0,.74,0,1.34,0,.93,0,1.84-.07,2.75-.07,2.34,0,5.28.21,7.34,1.87A6.31,6.31,0,0,1,151.32,58c.14.24.27.5.47.81.05.07.1.47,0,.57a2.15,2.15,0,0,1-1.28.45h0l-.15,0c-.09,0-.11,0-.13-.1A6.4,6.4,0,0,0,147.94,57a8.18,8.18,0,0,0-4.87-1.42,14.11,14.11,0,0,0-2,.16l-.18,0h0a1.15,1.15,0,0,1,.23.27,8,8,0,0,0,3,2.51,1.39,1.39,0,0,1,.43.54.16.16,0,0,1,0,.12,4.66,4.66,0,0,0-.3.58c-.11.26-.19.44-.35.44"/><path class="cls-1" d="M140.54,67.28h0c-.22,0-.73-.49-1-.84s-.25-.39-.23-.49c.1-.38.76-1,1.23-1.39a5,5,0,0,0,.43-.4.1.1,0,0,1,.08,0s.19,0,.8.61l.13.12c.25.24.47.44.41.63-.15.44-.31.59-.91,1.11-.16.14-.4.32-.59.46l-.27.2a.12.12,0,0,1-.08,0"/><path class="cls-1" d="M156.46,56.65h0c-.09,0-.17-.09-.27-.27s-.26-.44-.4-.64-.35-.58-.52-.91a.39.39,0,0,1,0-.09,1.48,1.48,0,0,1-.32-.94c.17-1.68-1.43-4.58-3.17-5.75a.09.09,0,0,1,0-.07s0-.15.62-.53a2.5,2.5,0,0,1,.86-.38.1.1,0,0,1,.09,0s.07.1.18.23c.28.39.94,1.31,2,2.65,1.74,2.19,1.32,5.46,1.15,6.41,0,.06,0,.25-.16.25"/><path class="cls-1" d="M152.8,73.6c-.07,0-.17-.08-.33-.3a26.94,26.94,0,0,0-4.4-4.3,42.11,42.11,0,0,1-3.29-2.85c-.49-.47-1.06-1-1.77-1.63-4.66-4.15-9.47-8.45-13.51-12.8-.11-.12-.21-.25-.17-.37s.15-.13.34-.16a13,13,0,0,1,2.64,0q.36,0,.84,0c1.21,0,2.83-.14,4.14-.25.85-.07,1.59-.13,2-.13h.46c3.26,0,7,.15,9.79,1.27a.39.39,0,0,1,.25.2c0,.11,0,.23-.14.42-.44.66-.73.95-.87.9a19.23,19.23,0,0,0-7.41-1.15c-.88,0-1.77,0-2.64,0s-1.76,0-2.72,0c-1.13,0-2.07,0-2.85-.09H133a4.8,4.8,0,0,0-.52,0c-.1,0-.12,0-.12,0a1.69,1.69,0,0,0,.33.31L133,53c1.26,1.16,2.56,2.4,3.81,3.58l.06.06c.68.65,1.38,1.3,2.06,2a121.72,121.72,0,0,0,12.47,10.88l.18.13.07.06a.28.28,0,0,0,0-.1,1.36,1.36,0,0,1,0-.18,12.9,12.9,0,0,0-.25-2.93v0a14.21,14.21,0,0,1-.25-3.22.33.33,0,0,1,.26-.31,4.22,4.22,0,0,0,.83-.28,2.28,2.28,0,0,1,.36-.15l.1,0c.11,0,.11.14.11.21,0,1,.1,9.63.12,10.36,0,.3,0,.45,0,.51s0,0-.07,0"/><path class="cls-1" d="M156.34,81.7h0a1.05,1.05,0,0,1-.35-.15c-1.1-.59-13.3-12.58-14.35-13.62a.13.13,0,0,1,0-.06c0-.06.07-.13.21-.26a3,3,0,0,0,.32-.3c.26-.32.54-.38.79-.17,3.7,3.07,9.75,8.44,11.65,10.84.46-.22.49-2.49.51-4,0-.47,0-.88,0-1.17l0-.47c.32-5.72.65-11.62-2.64-16.29-.16-.21,0-.42.09-.62l.1-.17c.19-.36.53-.78.69-.78a.11.11,0,0,1,.07,0c3.51,3.86,3.37,8.89,3.24,14.23V69c-.06,2.11,0,3.9.11,5.49a24.77,24.77,0,0,1-.3,7c0,.08,0,.2-.17.2"/><path class="cls-3" d="M97,29.5h3a1.8,1.8,0,1,0,0-3.57H97ZM104.37,35h-2.66l-2.3-3.47H97V35H94.88V31.52h-1.3v-2h1.3V23.91h5.28a3.7,3.7,0,0,1,4,3.8,3.52,3.52,0,0,1-2.55,3.34Z"/><rect class="cls-3" x="120.95" y="23.95" width="2.12" height="11.07"/><polygon class="cls-3" points="146.64 34.99 144.52 34.99 144.52 25.93 141.3 25.93 141.3 23.9 149.86 23.9 149.86 25.93 146.64 25.93 146.64 34.99"/><path class="cls-3" d="M99.74,57.46a4.74,4.74,0,0,1-4.93-4.75V46.16h2.12v6.12a2.83,2.83,0,1,0,5.62,0V46.16h2.12v6.55a4.74,4.74,0,0,1-4.93,4.75"/><path class="cls-3" d="M120.48,53.26h3.07L122,49.49Zm6.94,4h-2.28v0l-.83-2h-4.59l-.84,2.06H116.6l0-.06,4-9.1h-2.5V46.16h4.62v0Z"/><polygon class="cls-3" points="149.74 57.23 141.27 57.23 141.27 46.16 143.39 46.16 143.39 55.22 147.62 55.22 147.62 52.6 149.74 52.6 149.74 57.23"/><path class="cls-3" d="M99.18,78.44a6.61,6.61,0,0,1-4.74-2l0,0L96,74.92l0,0a4.52,4.52,0,0,0,3.23,1.47c1.58,0,2.58-.63,2.58-1.61s-1.26-1.16-2.72-1.36c-1.95-.26-4.37-.58-4.37-3.2,0-1.91,2-3.35,4.6-3.35a5.93,5.93,0,0,1,4.4,1.69l0,0L102.22,70l0,0a3.94,3.94,0,0,0-3-1.3c-1.56,0-2.27.73-2.27,1.45,0,1,1.26,1.16,2.71,1.35,1.94.24,4.38.54,4.38,3.21,0,2.42-2.52,3.72-4.89,3.72"/><path class="cls-3" d="M125.16,78.13A1.79,1.79,0,1,1,127,76.34a1.79,1.79,0,0,1-1.79,1.79"/><path class="cls-3" d="M136.71,78.13a1.79,1.79,0,1,1,1.79-1.79,1.79,1.79,0,0,1-1.79,1.79"/><path class="cls-3" d="M148.26,78.13a1.79,1.79,0,1,1,1.79-1.79,1.8,1.8,0,0,1-1.79,1.79"/><path class="cls-2" d="M166,13.29h.74a.84.84,0,0,0,.24-.06.31.31,0,0,0,.16-.14.41.41,0,0,0,.07-.27.38.38,0,0,0-.06-.22.35.35,0,0,0-.14-.13.59.59,0,0,0-.2-.06H166ZM165.51,12h1.1a1.16,1.16,0,0,1,.75.21.75.75,0,0,1,.24.61.7.7,0,0,1-.21.56,1,1,0,0,1-.54.21l.82,1.25h-.48l-.77-1.22H166v1.22h-.44Zm-1.06,1.41a2.32,2.32,0,0,0,.15.84,2,2,0,0,0,.43.66,2,2,0,0,0,.63.43,1.91,1.91,0,0,0,.8.16,1.85,1.85,0,0,0,.78-.16,2,2,0,0,0,.63-.43,2,2,0,0,0,.43-.66,2.32,2.32,0,0,0,.15-.84,2.24,2.24,0,0,0-.15-.81,1.89,1.89,0,0,0-.43-.65,2,2,0,0,0-1.41-.59,1.91,1.91,0,0,0-.8.16A1.86,1.86,0,0,0,165,12a1.89,1.89,0,0,0-.43.65,2.24,2.24,0,0,0-.15.81m-.44,0a2.3,2.3,0,0,1,.19-.95,2.58,2.58,0,0,1,.53-.77,2.67,2.67,0,0,1,.78-.5,2.3,2.3,0,0,1,1-.19,2.36,2.36,0,0,1,.94.19,2.49,2.49,0,0,1,.77.5,2.58,2.58,0,0,1,.53.77,2.3,2.3,0,0,1,.19.95,2.33,2.33,0,0,1-.19,1,2.41,2.41,0,0,1-1.3,1.29,2.53,2.53,0,0,1-.94.18,2.47,2.47,0,0,1-1-.18,2.7,2.7,0,0,1-.78-.51,2.5,2.5,0,0,1-.53-.78,2.33,2.33,0,0,1-.19-1"/></svg>