<svg id="Layer_1" data-name="Layer 1" xmlns="http://www.w3.org/2000/svg" viewBox="0 0 250 100"><defs><style>.cls-1{fill:#1d2e51;}</style></defs><path class="cls-1" d="M46.38,50.22c1.22-2.7-.46-3.76-4.46-3.76h-6.7c-1.45,0-1.76-.12-1.43-.82l.47-1c.3-.68.73-.81,2.19-.81h8.76a8.37,8.37,0,0,1,3.56.6l.86-3.69H32.15a7.45,7.45,0,0,0-7.26,4.42L23,49.31c-1.45,3.1-.42,4,3.33,4h7.7c1.47,0,1.72.14,1.39.82l-.58,1.28c-.3.69-.68.81-2.14.81H23.61a6.77,6.77,0,0,1-3.38-.7l-.93,3.8h17c4.52,0,6.64-1.63,8-4.55Z"/><path class="cls-1" d="M92,51.22a13.62,13.62,0,0,1,4,.51l1.86-4.07a19.79,19.79,0,0,1-4.48.48H86.71l2-4.35H96.4a13.85,13.85,0,0,1,4.07.5l.87-3.58H79.93c.14.75.11,1.43-.69,3.2L73.65,56.11a9.8,9.8,0,0,1-1.4,2.33A16.66,16.66,0,0,1,71,55.51L68,46.2l6.24-3.66a19.35,19.35,0,0,1,4.09-1.85l-8.61,0a5.82,5.82,0,0,1-.24.7c-.28.61-.74,1.07-2.24,2l-9,5.64,2.35-5.16a8.79,8.79,0,0,1,2.24-3.21l-11,0c.15.73.14,1.41-.67,3.19L45.51,56.13a8.64,8.64,0,0,1-2.22,3.2h11c-.12-.76-.12-1.44.68-3.21l1.3-2.79,3.1-1.9,1.92,7.9H93.18l2.5-3.6a17.81,17.81,0,0,1-4.46.5H83l2.3-5Z"/><path class="cls-1" d="M120.26,54.8a33.17,33.17,0,0,1-6.73.69s-3.65,0-4.42,0c-1,0-1.25-.26-.88-1.18s4-8.75,4-8.75A1.85,1.85,0,0,1,114,44.51h6.92a10.52,10.52,0,0,1,3.27.58l1.1-4.29h-.06l0-.11H110.42c-4,0-6.94,1.46-8.78,5.48l-3.5,7.69c-1.84,4-.25,5.46,3.76,5.46h15.24Z"/><path class="cls-1" d="M147.22,56.1l5.6-12.22A8.28,8.28,0,0,1,155,40.69h-11c.14.73.13,1.41-.69,3.19l-1.93,4.26h-7l1.95-4.26a8.39,8.39,0,0,1,2.25-3.19h-11c.14.73.12,1.4-.7,3.18l-5.59,12.23a8.59,8.59,0,0,1-2.25,3.2h11c-.13-.74-.12-1.44.71-3.2L133,51.22h7l-2.23,4.9a8.7,8.7,0,0,1-2.24,3.2h11c-.13-.74-.11-1.44.7-3.21"/><path class="cls-1" d="M167,56.21h-8.18l2.27-5h6.73a13.4,13.4,0,0,1,4,.5l1.86-4.07a19.31,19.31,0,0,1-4.46.48h-6.75l2-4.35h7.69a13.17,13.17,0,0,1,4.07.49l.86-3.58h-21.4c.13.74.12,1.43-.69,3.2l-5.59,12.23a8.94,8.94,0,0,1-2.23,3.2H169l2.49-3.59a17.89,17.89,0,0,1-4.47.49"/><path class="cls-1" d="M197.48,51.2c2.06-.1,3.91-.25,5.16-3l1.56-3.43c1.43-3.12-.2-4.11-4.53-4.11H179.34c.37.74.36,1.42-.45,3.2L173.3,56.1a8.42,8.42,0,0,1-2.25,3.21h11c-.13-.75-.12-1.44.69-3.21L185,51.21h2.91l.77,8.11h10.54a7.32,7.32,0,0,1-.73-2.87Zm-2.73-6.4-1,2.27c-.41.92-.82,1.06-2,1.06h-5.33l2-4.36h5.31c1.21,0,1.5.13,1.06,1"/><path class="cls-1" d="M215,44.57c.31-.67.72-.81,2.2-.82h8.76a8.5,8.5,0,0,1,3.54.62l1.22-3.71H212.86a7.5,7.5,0,0,0-7.25,4.43l-1.88,4.17c-1.43,3.1-.39,4,3.35,4h7.69c1.45,0,1.73.14,1.4.82l-.59,1.27c-.3.7-.67.81-2.16.81h-9.1a6.94,6.94,0,0,1-3.39-.7L200,59.3h17c4.53,0,6.65-1.65,8-4.56l2.08-4.56c1.24-2.7-.43-3.75-4.46-3.75h-6.69c-1.47,0-1.77-.1-1.44-.82Z"/><path class="cls-1" d="M225.4,56.52A1.39,1.39,0,1,1,224,57.91a1.38,1.38,0,0,1,1.39-1.39Zm0,.28a1.12,1.12,0,0,0,0,2.23,1.12,1.12,0,0,0,0-2.23Zm-.23,1.91h-.32V57.17a2.45,2.45,0,0,1,.49-.05.83.83,0,0,1,.53.13.4.4,0,0,1-.16.69h0c.13,0,.23.16.25.39a1.49,1.49,0,0,0,.08.38h-.33a.87.87,0,0,1-.1-.4.26.26,0,0,0-.29-.24h-.15Zm0-.89h.15c.19,0,.34-.06.34-.21s-.09-.23-.31-.23h-.18Z"/></svg>