<?xml version="1.0" encoding="utf-8"?>
<!-- Generator: Adobe Illustrator 26.3.1, SVG Export Plug-In . SVG Version: 6.00 Build 0)  -->
<svg version="1.1" id="Layer_1" xmlns="http://www.w3.org/2000/svg" xmlns:xlink="http://www.w3.org/1999/xlink" x="0px" y="0px"
	 viewBox="0 0 448 512" style="enable-background:new 0 0 448 512;" xml:space="preserve">
<style type="text/css">
	.st0{fill:#C50101;}
</style>
<path class="st0" d="M0,80v149.5c0,17,6.7,33.3,18.7,45.3l176,176c25,25,65.5,25,90.5,0l133.5-133.5c25-25,25-65.5,0-90.5l-176-176
	c-12-12-28.3-18.7-45.3-18.7H48C21.5,32,0,53.5,0,80z M112,176c-17.7,0-32-14.3-32-32s14.3-32,32-32s32,14.3,32,32
	S129.7,176,112,176z"/>
</svg>
