<svg id="Layer_1" data-name="Layer 1" xmlns="http://www.w3.org/2000/svg" viewBox="0 0 250 100"><defs><style>.cls-1{fill:#119ad7;}.cls-2{fill:#fff;}</style></defs><rect class="cls-1" x="76.26" y="19.07" width="97.48" height="61.87"/><path class="cls-2" d="M82.77,63.65h.48c1.25,0,1.79-.46,1.79-2.22V48.24C85,46.48,84.5,46,83.25,46h-.48V45.2c.94,0,2.24.09,3.46.09,1.46,0,3-.09,4.41-.09,4.35,0,5.7,3,5.7,5.12,0,2.4-1.46,5.16-6.43,5.16-.84,0-1.65-.08-2.49-.16v5.46c0,2.57.46,2.87,1.54,2.87h.78v.81c-1.19,0-2.32-.08-3.51-.08s-2.52.06-3.46.08Zm4.65-9.84a6.19,6.19,0,0,0,2.78.64,3.36,3.36,0,0,0,3.55-3.62C93.75,47.67,92,46,89.12,46a13.33,13.33,0,0,0-1.7.11Z"/><path class="cls-2" d="M97,63.65h.49c1.24,0,1.78-.46,1.78-2.22V48.23c0-1.75-.54-2.22-1.78-2.22H97v-.8c1,0,2.25.08,3.46.08s2.33-.06,3.6-.08V46h-.62c-1.25,0-1.79.47-1.79,2.22V60.81c0,2,.44,2.73,3.76,2.73,4.44,0,4.95-.78,5.44-3.86h.84l-.17,4.78c-2.38,0-5.43-.08-7.81-.08-3.17,0-5.76.05-6.71.08Z"/><path class="cls-2" d="M113.25,63.65h.33c1.48,0,2.08-.68,2.92-2.92l6.19-16.28h.52l7,16.58c.65,1.56,1.48,2.62,2.73,2.62h.56v.81c-1-.06-2.26-.08-3.67-.08s-2.73,0-3.73.08v-.81h.67c.87,0,1.38-.3,1.38-.87a4.66,4.66,0,0,0-.38-1.35l-2-4.87h-6.3L118,60.84a6.78,6.78,0,0,0-.46,1.94c0,.49.27.87,1.11.87h.6v.81c-1-.06-2.06-.08-3.33-.08-1,0-2,0-2.68.08Zm9.06-15.52-2.51,7.41h5.54Z"/><path class="cls-2" d="M150.25,50.05h-.43c-.71-1.41-2-4.06-7.11-4.06-5.49,0-7.25,5.06-7.25,9,0,6.44,4.57,8.66,7.38,8.66,4.24,0,6.19-2.41,7.47-4h.18v2a10.23,10.23,0,0,1-7.43,3.08c-6.14,0-10.31-3.86-10.31-9.3,0-5.22,3.65-10.66,10.06-10.66A21.08,21.08,0,0,1,149,46a8.49,8.49,0,0,0,1.35.38Z"/><path class="cls-2" d="M152.66,63.65h.48c1.25,0,1.79-.46,1.79-2.22V48.23c0-1.75-.54-2.22-1.79-2.22h-.48v-.8c.86,0,3.94.08,6.65.08,3.19,0,4.46-.06,6.35-.08.06,1.67.11,3.13.25,4.59h-.76c-.27-1.89-.46-3.57-5.25-3.57h-2.59v7.66h2.35c3.3,0,3.41-.57,3.46-2.17h.76c0,.63-.06,1.46-.06,2.65s0,1.92.06,2.46h-.76c-.13-1.35-.16-1.92-3.22-1.92h-2.59v6.5c0,1.62.59,2,2.32,2h.73c4.55,0,5.74-.86,6.17-3.86h.75c-.18,1.67-.35,3.24-.54,4.89-1.62,0-4.51-.08-7.43-.08-3.36,0-5.79.05-6.65.08Z"/><path class="cls-2" d="M84.2,40.72h.18c.43,0,.51-.11.51-.76V35.63H84c-.85,0-1,.49-1,1.11h-.27V35.29l2.52,0,2.53,0v1.45H87.5c0-.62-.15-1.11-1-1.11h-.9V40c0,.65.08.76.5.76h.19V41c-.31,0-.65,0-1.05,0s-.74,0-1,0Z"/><path class="cls-2" d="M89.25,40.72h.15c.36,0,.52-.14.52-.66V36.18c0-.51-.16-.65-.52-.65h-.15v-.24l1,0,1,0v.24h-.23c-.31,0-.45.09-.45.84v1.47h3.29V36.37c0-.75-.14-.84-.46-.84h-.23v-.24l1,0,1,0v.24h-.14c-.37,0-.52.14-.52.65v3.88c0,.52.15.66.52.66h.14V41c-.27,0-.66,0-1,0s-.69,0-1,0v-.24h.23c.32,0,.46-.09.46-.85V38.18H90.62v1.69c0,.76.14.85.45.85h.23V41c-.35,0-.68,0-1,0s-.74,0-1,0Z"/><path class="cls-2" d="M96.93,40.72h.14c.37,0,.53-.14.53-.66V36.18c0-.51-.16-.65-.53-.65h-.14v-.24l1.95,0c1,0,1.32,0,1.87,0,0,.5,0,.92.08,1.35h-.23c-.08-.55-.13-1-1.54-1H98.3v2.25H99c1,0,1-.16,1-.63h.22c0,.18,0,.43,0,.78s0,.56,0,.72H100c-.05-.39-.05-.56-1-.56H98.3v1.91c0,.48.17.59.68.59h.21c1.34,0,1.69-.25,1.82-1.13h.22c0,.49-.1.95-.16,1.44-.47,0-1.33,0-2.19,0s-1.7,0-1.95,0Z"/><path class="cls-2" d="M111.79,36.72h-.13a2,2,0,0,0-2.09-1.2c-1.62,0-2.13,1.49-2.13,2.66a2.3,2.3,0,0,0,2.17,2.55,2.58,2.58,0,0,0,2.19-1.18h.06v.6a3,3,0,0,1-2.19.91,2.76,2.76,0,0,1-3-2.74,3,3,0,0,1,3-3.13,6.49,6.49,0,0,1,1.82.33,1.63,1.63,0,0,0,.4.11Z"/><path class="cls-2" d="M113.54,40.72h.15c.36,0,.52-.14.52-.66V36.18c0-.51-.16-.65-.52-.65h-.15v-.24l1,0,1,0v.24h-.23c-.32,0-.46.09-.46.84v1.47h3.29V36.37c0-.75-.14-.84-.46-.84h-.23v-.24l1,0,1,0v.24h-.14c-.36,0-.52.14-.52.65v3.88c0,.52.16.66.52.66h.14V41c-.27,0-.65,0-1,0s-.69,0-1,0v-.24h.23c.32,0,.46-.09.46-.85V38.18h-3.29v1.69c0,.76.14.85.46.85h.23V41c-.35,0-.69,0-1,0s-.74,0-1,0Z"/><path class="cls-2" d="M121.22,40.72h.14c.37,0,.53-.14.53-.66V36.18c0-.51-.16-.65-.53-.65h-.14v-.24l1,0,1,0v.24h-.15c-.36,0-.52.14-.52.65v3.88c0,.52.16.66.52.66h.15V41c-.34,0-.67,0-1,0s-.74,0-1,0Z"/><path class="cls-2" d="M125,40.72h.15c.36,0,.52-.14.52-.66V36.18c0-.51-.16-.65-.52-.65H125v-.24l1,0,1.06,0v.24h-.18c-.37,0-.53.14-.53.65v3.7c0,.6.13.8,1.1.8,1.31,0,1.46-.23,1.61-1.13h.24l0,1.41-2.3,0c-.94,0-1.7,0-2,0Z"/><path class="cls-2" d="M131,40.72h.14c.37,0,.53-.14.53-.66V36.18c0-.51-.16-.65-.53-.65H131v-.24l1,0,1.91,0a2.8,2.8,0,0,1,2.91,2.78,2.89,2.89,0,0,1-3.2,2.88l-1.62,0-1,0Zm1.37-.79c0,.62.25.72,1.16.72,1.39,0,2.55-.6,2.55-2.38a2.6,2.6,0,0,0-2.7-2.71,8.57,8.57,0,0,0-1,.07Z"/><path class="cls-2" d="M138.65,40.72h.14c.37,0,.52-.14.52-.66V36.18c0-.51-.15-.65-.52-.65h-.14v-.24c.27,0,.66,0,1,0,.54,0,.92,0,1.27,0a1.52,1.52,0,0,1,1.66,1.47,1.46,1.46,0,0,1-1.13,1.49L142.53,40c.43.71.56.76,1.2.8V41h-.44a1.36,1.36,0,0,1-1.45-.78l-.93-1.52c-.18-.3-.29-.31-.9-.33v1.5c0,.76.14.85.46.85h.23V41l-1,0-1,0ZM140,38a1.75,1.75,0,0,0,.54.06c.72,0,1.31-.33,1.31-1.15a1.32,1.32,0,0,0-1.35-1.33,3.75,3.75,0,0,0-.5,0Z"/><path class="cls-2" d="M145.14,40.72h.15c.36,0,.52-.14.52-.66V36.18c0-.51-.16-.65-.52-.65h-.15v-.24l2,0c.94,0,1.31,0,1.87,0,0,.5,0,.92.07,1.35h-.22c-.08-.55-.14-1-1.55-1h-.76v2.25h.69c1,0,1-.16,1-.63h.22c0,.18,0,.43,0,.78s0,.56,0,.72h-.22c0-.39-.05-.56-.95-.56h-.76v1.91c0,.48.18.59.69.59h.21c1.34,0,1.68-.25,1.81-1.13h.23c-.06.49-.11.95-.16,1.44-.48,0-1.33,0-2.19,0s-1.7,0-2,0Z"/><path class="cls-2" d="M151.2,40.72h.12c.42,0,.5-.18.52-1,0-1.05,0-2.56,0-3.49,0-.57-.18-.69-.58-.69h-.22v-.24l.7,0,.63,0,3.74,4.61h0l-.05-3.26c0-.92-.13-1.11-.56-1.11h-.09v-.24l.85,0,.86,0v.24h-.12c-.25,0-.48.09-.51.86L156.42,41h-.24l-3.94-4.84h0c0,1.24,0,2.46.05,3.69,0,.66.14.84.52.84H153V41c-.27,0-.58,0-.88,0s-.63,0-.87,0Z"/><path class="cls-2" d="M159,37.1a1.35,1.35,0,0,0,.46-.88.87.87,0,0,0-.35-.7l.6-.33a1.39,1.39,0,0,1,.23.73c0,.42-.16.75-.74,1.25Z"/><path class="cls-2" d="M165.44,36.74h-.27a1.17,1.17,0,0,0-1.27-1.25,1,1,0,0,0-1.09.94c0,.46.24.79.91,1.09l.73.33a1.7,1.7,0,0,1,1.18,1.49c0,1-.65,1.72-2,1.72a5.25,5.25,0,0,1-1.42-.2l0-1.31h.23a1.36,1.36,0,0,0,1.36,1.24,1.16,1.16,0,0,0,1.27-1.09c0-.69-.55-1-1-1.18l-.86-.4a1.53,1.53,0,0,1-1-1.37A1.64,1.64,0,0,1,164,35.19a8.36,8.36,0,0,1,1.49.21Z"/></svg>